<svg width="24" height="24" viewBox="0 0 25 25" fill="none" xmlns="http://www.w3.org/2000/svg">
<mask id="admpractic" mask-type="alpha" maskUnits="userSpaceOnUse" x="0" y="0" width="25" height="25">
<g clip-path="url(#clip0)">
<path d="M16.1029 0.281197C14.463 0.280636 12.8593 0.760865 11.4896 1.6626L9.62968 0.59013C9.44548 0.485968 9.22762 0.458478 9.02341 0.513645C8.8177 0.567876 8.64248 0.702894 8.53813 0.888215L7.93616 1.9317C7.48903 1.87485 7.03648 1.87485 6.58935 1.9317L5.98981 0.891955C5.88528 0.704951 5.70912 0.56825 5.50211 0.513458C5.29621 0.457917 5.07686 0.486155 4.89191 0.592187L2.80157 1.79856C2.61718 1.90533 2.48272 2.08131 2.42831 2.28739C2.3737 2.49328 2.40343 2.71264 2.51077 2.89683L3.11237 3.93976C2.83822 4.29619 2.61251 4.68741 2.44121 5.10312H1.2354C0.791825 5.10368 0.432215 5.4631 0.431841 5.90668V8.31773C0.432215 8.76131 0.791825 9.12073 1.2354 9.12129H2.44121C2.61269 9.537 2.83822 9.92822 3.11237 10.2846L2.5119 11.3257C2.40381 11.5101 2.37351 11.73 2.42812 11.9367C2.48272 12.1433 2.61755 12.3196 2.80269 12.4266L4.89584 13.6343C5.07985 13.7384 5.29771 13.7659 5.50211 13.7108C5.70781 13.6567 5.88285 13.5215 5.98738 13.3362L6.58935 12.2927C7.03648 12.3499 7.48903 12.3499 7.93616 12.2927L8.36422 13.0368L7.87482 13.5264C7.51203 13.8851 7.41872 14.4354 7.64313 14.8936L6.39898 16.1375C5.94007 15.9279 5.4 16.0182 5.03422 16.3657L0.772377 20.6277C0.546288 20.8538 0.419312 21.1605 0.419312 21.4801C0.419312 21.7999 0.546288 22.1065 0.772377 22.3326L2.47711 24.0374C2.94818 24.5075 3.71097 24.5075 4.18204 24.0374L8.44407 19.7755C8.80312 19.4142 8.89587 18.8663 8.67595 18.407L9.91636 17.1664C10.218 17.3134 10.5677 17.3259 10.8791 17.2008V17.5595C10.8796 18.0031 11.2392 18.3627 11.6828 18.3633H12.8886C13.0599 18.779 13.2856 19.17 13.5598 19.5264L12.9593 20.5675C12.8512 20.7519 12.8209 20.9718 12.8755 21.1784C12.9301 21.3853 13.065 21.5616 13.2501 21.6686L15.3432 22.8761C15.5273 22.9804 15.7451 23.0079 15.9495 22.9525C16.1552 22.8985 16.3303 22.7635 16.4348 22.578L17.0368 21.5347C17.4839 21.5915 17.9364 21.5915 18.3836 21.5347L18.9831 22.5742C19.0876 22.7614 19.2636 22.8979 19.4708 22.9527C19.6765 23.0083 19.8959 22.98 20.0808 22.874L22.1712 21.6678C22.3556 21.5609 22.4898 21.3851 22.5444 21.179C22.599 20.9729 22.5693 20.7536 22.462 20.5695L21.8605 19.5264C22.1345 19.17 22.3602 18.779 22.5315 18.3633H23.7373C24.1811 18.3627 24.5405 18.0031 24.5411 17.5595V15.1486C24.5405 14.7051 24.1811 14.3455 23.7373 14.3449H22.5308C22.5156 14.3077 22.4943 14.2692 22.4777 14.2314C24.6428 11.7375 25.1513 8.2089 23.7787 5.20522C22.406 2.20155 19.4054 0.276522 16.1029 0.281197ZM23.7373 8.71942C23.7345 11.345 22.3817 13.7844 20.1564 15.1774C20.1474 15.184 20.1362 15.1875 20.128 15.1947C18.6254 16.1508 16.8292 16.5344 15.0672 16.2755C15.0068 16.2477 14.9402 16.2353 14.8739 16.2396C14.8688 16.2402 14.8649 16.2432 14.86 16.2439C10.8619 15.5818 8.07885 11.9097 8.52205 7.88145C8.96525 3.85318 12.48 0.874003 16.5264 1.09691C20.573 1.31964 23.7394 4.66684 23.7373 8.71942ZM20.121 16.3541C20.1225 17.5345 19.2681 18.542 18.1032 18.7332C16.9384 18.9243 15.8066 18.2428 15.4309 17.1236C15.6533 17.1414 15.876 17.1576 16.1029 17.1576C17.5003 17.1593 18.8761 16.8115 20.1049 16.1459C20.1109 16.2153 20.121 16.2847 20.121 16.3541ZM7.66463 8.71942C7.66463 8.97599 7.68071 9.22845 7.70297 9.47922C6.80441 9.64678 5.88846 9.29128 5.33792 8.56159C4.78756 7.83189 4.69742 6.85367 5.10509 6.03552C5.51295 5.21757 6.34868 4.70068 7.26276 4.70124C7.70428 4.70162 8.13682 4.8256 8.51139 5.05917C7.95561 6.19934 7.66594 7.45096 7.66463 8.71942ZM6.45097 11.4585C6.28379 11.4271 6.11492 11.5052 6.0304 11.653L5.29378 12.936L3.20681 11.7291L3.94622 10.4473C4.03131 10.2998 4.01411 10.1147 3.9034 9.98526C3.54959 9.57422 3.27619 9.10016 3.09778 8.58814C3.04187 8.4262 2.88946 8.31773 2.71816 8.31773H1.2354V5.90668H2.71816C2.88927 5.90668 3.04149 5.79822 3.0976 5.63646C3.27619 5.12444 3.54959 4.65038 3.90359 4.23934C4.01429 4.10994 4.0315 3.9248 3.94622 3.77725L3.20438 2.49384L5.29116 1.28953L6.03058 2.57126C6.11492 2.71937 6.28379 2.79735 6.45116 2.76574C6.98767 2.66813 7.53765 2.66813 8.07417 2.76574C8.24135 2.79697 8.41003 2.71918 8.49493 2.57163L9.23173 1.28841L10.7786 2.18042C10.0334 2.79136 9.39742 3.5248 8.89812 4.34911C8.40424 4.05253 7.83892 3.89638 7.26276 3.89768C6.04479 3.89282 4.92894 4.57651 4.38008 5.66376C3.8314 6.75119 3.94417 8.05518 4.67162 9.0319C5.39888 10.0088 6.61572 10.4907 7.8148 10.2768C7.89053 10.6772 7.99563 11.0716 8.12915 11.4566C8.11083 11.456 8.0925 11.4566 8.07417 11.4585C7.53765 11.5561 6.98786 11.5561 6.45134 11.4585H6.45097ZM9.29475 16.6514L8.15982 17.7865L7.59133 17.2184L7.02302 16.6501L8.15982 15.5137L8.18469 15.5386L9.29475 16.6514ZM3.61373 23.4691C3.45665 23.626 3.20232 23.626 3.04523 23.4691L1.3405 21.7641C1.26513 21.689 1.22287 21.5867 1.22287 21.4803C1.22287 21.3737 1.26513 21.2714 1.3405 21.1962L1.90881 20.6279L4.18204 22.9009L3.61373 23.4691ZM7.87576 19.2072L4.75016 22.3328L2.47711 20.0596L5.60253 16.9342C5.76148 16.7825 6.01151 16.7825 6.17065 16.9342L7.87557 18.6391C8.0321 18.7962 8.0321 19.0501 7.87576 19.2072ZM10.152 16.3713L10.1484 16.3659L8.75281 14.9702L8.44313 14.6596C8.28736 14.5035 8.28736 14.2508 8.44313 14.0947L9.10606 13.4316C9.71121 14.3268 10.4815 15.0983 11.3754 15.7052L10.7156 16.3674C10.5608 16.5235 10.3089 16.5252 10.1518 16.3713H10.152ZM23.7373 15.1486V17.5595H22.2548C22.0836 17.5597 21.9312 17.668 21.8751 17.8297C21.6967 18.3419 21.4235 18.8158 21.0697 19.2269C20.9588 19.3563 20.9418 19.5414 21.0269 19.6889L21.7685 20.9725L19.6818 22.1769L18.9423 20.8949C18.8574 20.7476 18.6889 20.6696 18.5216 20.7004C17.9851 20.7983 17.4353 20.7983 16.8987 20.7004C16.7314 20.6692 16.5627 20.7472 16.478 20.8949L15.7412 22.178L13.6542 20.971L14.3936 19.6891C14.4787 19.5418 14.4615 19.3564 14.3508 19.227C13.9968 18.8162 13.7236 18.3421 13.5452 17.8299C13.4891 17.6682 13.3367 17.5595 13.1656 17.5595H11.6828V16.5349L12.0806 16.1357C12.8574 16.5564 13.6959 16.8517 14.5649 17.0105C14.7863 18.1467 15.6026 19.0758 16.7009 19.4415C17.7992 19.8075 19.0095 19.5535 19.8682 18.7771C20.7267 18.0007 21.1007 16.822 20.847 15.6925C21.2087 15.443 21.5503 15.1657 21.869 14.8633C21.8714 14.8704 21.8748 14.8782 21.8774 14.8852C21.9352 15.0436 22.0861 15.1488 22.2548 15.1486H23.7373Z" fill="#003B34"/>
<path d="M9.35593 7.77156C9.35312 7.78091 9.35555 7.79008 9.35349 7.79943C9.07056 9.90435 9.78473 12.0211 11.2853 13.5242C11.3709 13.6097 11.4627 13.6847 11.5515 13.7647C11.554 13.7679 11.5581 13.7697 11.5605 13.7727C13.4117 15.4498 16.0311 15.9816 18.3898 15.1596C20.7485 14.3373 22.4696 12.2924 22.8773 9.82806C23.2848 7.36371 22.3139 4.87355 20.3455 3.33562C20.3277 3.31991 20.3084 3.3057 20.288 3.29336C18.3628 1.79788 15.7853 1.44537 13.5291 2.3688C11.2731 3.29223 9.68244 5.35078 9.35817 7.76689L9.35593 7.77156ZM15.4596 14.6799C16.3944 13.2527 18.2405 12.7365 19.7801 13.4718C18.5493 14.416 17.0016 14.8488 15.4596 14.6799ZM20.4249 12.9032C19.4426 12.3343 18.2721 12.1854 17.1787 12.4904C16.0851 12.7953 15.1606 13.5281 14.6143 14.5234C13.8057 14.3179 13.0491 13.9453 12.3933 13.4298C12.5797 13.1201 12.7905 12.8256 13.0237 12.5494C13.1355 12.4203 13.1531 12.2344 13.0676 12.0867L11.9257 10.1043C11.8964 10.0543 11.8882 9.99486 11.9027 9.93876C11.9175 9.88285 11.954 9.83516 12.0041 9.80618L15.2286 7.94342C15.2789 7.91406 15.339 7.90621 15.3954 7.92154C15.4508 7.9365 15.4977 7.97334 15.5256 8.02346L16.6667 10.0046C16.7522 10.1508 16.9197 10.2286 17.0867 10.1993C17.9426 10.0427 18.8199 10.0427 19.6758 10.1993C19.8428 10.2294 20.0107 10.1514 20.0956 10.0046L21.238 8.0214C21.2657 7.97203 21.3121 7.93594 21.3667 7.92135C21.4224 7.90621 21.4817 7.91387 21.5318 7.94249L22.1199 8.2804C22.2411 9.99262 21.6244 11.6751 20.4251 12.9032H20.4249ZM21.9614 7.26216L21.9307 7.24458C21.6962 7.1105 21.4179 7.07497 21.1572 7.14566C20.896 7.21522 20.6736 7.38708 20.5403 7.62233L19.5378 9.3626C18.7707 9.24946 17.9913 9.24946 17.2242 9.3626L16.2233 7.62458C16.09 7.3882 15.8671 7.2156 15.6049 7.14566C15.3433 7.07478 15.0643 7.11087 14.8292 7.24608L11.6013 9.11089C11.3668 9.24647 11.1959 9.46994 11.1263 9.73194C11.0567 9.99374 11.0941 10.2726 11.2305 10.5067L12.2322 12.2458C12.0724 12.4493 11.9229 12.6608 11.7846 12.8796C10.63 11.685 10.0218 10.0656 10.1049 8.40626L10.7676 8.59794C10.851 8.61926 10.9369 8.63029 11.0231 8.63029C11.4876 8.62917 11.8925 8.31388 12.0075 7.86376L12.512 5.92227C12.8965 5.87402 13.2769 5.79791 13.6503 5.69469C14.0224 5.59146 14.3867 5.46168 14.7404 5.30646L16.1683 6.71686C16.5704 7.11181 17.2157 7.10919 17.6144 6.71068L20.105 4.18574C20.1964 4.26672 20.2897 4.34432 20.3774 4.43203C21.1559 5.21147 21.704 6.191 21.9614 7.26216ZM11.8536 4.43203C13.8897 2.40041 17.0768 2.08848 19.4682 3.687L17.0461 6.14219C17.0059 6.18483 16.95 6.20914 16.8915 6.21007C16.8329 6.21082 16.7765 6.18801 16.735 6.14686L15.1076 4.53956C14.9868 4.42044 14.8043 4.38995 14.6513 4.46307C14.2605 4.6512 13.8538 4.80398 13.436 4.92011C13.0175 5.03568 12.5892 5.11348 12.1567 5.15237C11.9878 5.16771 11.8466 5.28739 11.804 5.45158L11.2288 7.66422C11.2151 7.71939 11.18 7.76689 11.131 7.79606C11.0855 7.82392 11.0311 7.83346 10.9788 7.8228L10.1933 7.59559C10.4121 6.3967 10.9913 5.293 11.8536 4.43203Z" fill="#003B34"/>
</g>


<defs>
<clipPath id="clip0">
<rect width="24" height="24" fill="white" transform="translate(0.419312 0.239166)"/>
</clipPath>
</defs>
</mask>

<g mask="url(#admpractic)">
<rect width="25" height="25" />
</g>
</svg>
