<svg width="24" height="23" viewBox="0 0 24 23" fill="none" xmlns="http://www.w3.org/2000/svg">
<mask id="arrest" mask-type="alpha" maskUnits="userSpaceOnUse" x="0" y="0" width="26" height="26">
<path d="M8.94003 5.99328H9.30186C9.39782 5.99328 9.48985 5.95516 9.55771 5.8873C9.62556 5.81944 9.66368 5.72741 9.66368 5.63145C9.66368 5.53549 9.62556 5.44346 9.55771 5.3756C9.48985 5.30774 9.39782 5.26962 9.30186 5.26962H8.94003C8.84407 5.26962 8.75203 5.30774 8.68418 5.3756C8.61632 5.44346 8.5782 5.53549 8.5782 5.63145C8.5782 5.72741 8.61632 5.81944 8.68418 5.8873C8.75203 5.95516 8.84407 5.99328 8.94003 5.99328Z" fill="#004F43"/>
<path d="M23.1231 19.6863L22.4082 19.7992L22.5707 20.8282H20.5185V21.5518H22.685L22.6895 21.5802V22.6373H23.4131V21.5518C23.4131 21.5329 23.4116 21.5141 23.4087 21.4954L23.1231 19.6863Z" fill="#004F43"/>
<path d="M6.76906 20.8282H15.8147V20.1045H6.76906V19.0191H14.0056V18.2954H6.40723C6.31127 18.2954 6.21924 18.3335 6.15138 18.4014C6.08353 18.4692 6.0454 18.5613 6.0454 18.6572V19.0191H2.83154L3.11718 17.2099H13.6438V16.4863H3.23145L3.40284 15.4008H10.25C10.9697 15.7586 11.7626 15.9446 12.5664 15.9444C12.8241 15.9444 13.0814 15.9251 13.3362 15.8866L13.2277 15.1711C12.5393 15.2767 11.8357 15.2186 11.1741 15.0014C10.5124 14.7842 9.91121 14.4141 9.41934 13.9211L9.31214 13.8139L10.2755 13.6212C10.8998 14.1823 11.7095 14.4927 12.5489 14.4927C12.8245 14.4925 13.0991 14.4596 13.3669 14.3947L13.197 13.6913C12.7697 13.7965 12.323 13.7953 11.8963 13.6878C11.4695 13.5802 11.0756 13.3697 10.7492 13.0745V11.4207C10.7492 11.3247 10.711 11.2327 10.6432 11.1648C10.5753 11.097 10.4833 11.0589 10.3873 11.0589H8.49887L7.84372 8.43831C7.82781 8.37469 7.79493 8.31659 7.74858 8.2702L6.8475 7.36912L7.23 6.60413L7.9605 7.33463C8.02837 7.40247 8.1204 7.44058 8.21637 7.44059H10.0255L10.2814 7.69645L11.429 6.54887C11.5496 6.42755 11.7128 6.35807 11.8839 6.35523C12.2547 6.34819 12.5583 6.66587 12.5583 7.03683V7.26758C12.5588 7.78106 12.4067 8.28312 12.1214 8.71003C12.0848 8.76477 12.0353 8.80964 11.9773 8.84067C11.9192 8.87169 11.8544 8.88792 11.7885 8.8879H11.6944C11.6048 8.8879 11.5166 8.86706 11.4365 8.82703L10.9109 8.56427L10.5874 9.21152L11.1128 9.47427C11.2934 9.56455 11.4925 9.61155 11.6943 9.61155H11.7885C11.9715 9.61215 12.1519 9.56777 12.3138 9.48232C12.4756 9.39688 12.614 9.27298 12.7167 9.12152C12.8069 8.98729 12.8872 8.84668 12.957 8.70081C13.394 9.11044 13.8659 9.48111 14.3674 9.8086V10.3352H15.0911V9.75617C15.7911 9.00581 16.1792 8.01712 16.1766 6.99095V1.65135C16.1766 1.55539 16.1385 1.46335 16.0706 1.3955C16.0027 1.32764 15.9107 1.28952 15.8147 1.28952H6.40723C6.31127 1.28952 6.21924 1.32764 6.15138 1.3955C6.08353 1.46335 6.0454 1.55539 6.0454 1.65135V2.73683C6.0454 3.12068 6.19789 3.48881 6.46931 3.76023C6.74073 4.03166 7.10886 4.18414 7.49271 4.18414H7.63092L6.08361 7.27875C6.04965 7.34668 6.03792 7.42357 6.05008 7.49854C6.06223 7.5735 6.09767 7.64274 6.15136 7.69645L7.166 8.71104L7.86536 11.5084C7.88492 11.5867 7.9301 11.6562 7.9937 11.7059C8.0573 11.7556 8.13568 11.7825 8.21637 11.7825H10.0255V12.9332L3.07981 14.3223C3.0073 14.3368 2.94098 14.3732 2.88977 14.4266C2.83856 14.4799 2.80492 14.5476 2.79338 14.6207L1.70789 21.4954C1.70497 21.5141 1.70349 21.533 1.70348 21.5519V22.6373H2.42713V21.5803L2.43161 21.5519H6.0454V22.2755C6.0454 22.3715 6.08353 22.4635 6.15138 22.5314C6.21924 22.5992 6.31127 22.6373 6.40723 22.6373H19.0712V21.9137H6.76906V20.8282ZM14.6696 9.14204C14.1456 8.7909 13.6576 8.38876 13.2127 7.9415C13.2543 7.74018 13.2771 7.53544 13.2808 7.32991L15.4529 6.51537V6.99095C15.4552 7.77818 15.1776 8.54059 14.6696 9.14204ZM6.76906 2.73683V2.01318H15.4529V4.45297L11.1923 3.46976C11.1657 3.46359 11.1384 3.46047 11.111 3.46048H7.49271C7.30086 3.46027 7.11692 3.38395 6.98126 3.24829C6.84559 3.11262 6.76928 2.92869 6.76906 2.73683ZM8.43999 4.18414H11.0698L15.4529 5.19562V5.74255L13.212 6.58289C13.138 6.3583 13.0077 6.1564 12.8335 5.99643C12.6593 5.83646 12.4471 5.72375 12.2171 5.66903C11.987 5.61432 11.7467 5.61942 11.5192 5.68386C11.2917 5.74829 11.0844 5.86991 10.9172 6.03714L10.2374 6.71693H8.36623L7.57116 5.92181L8.43999 4.18414ZM8.9076 14.4328C8.99241 14.5176 9.07991 14.599 9.17011 14.6771H4.99579L8.45925 13.9844L8.9076 14.4328ZM2.54588 20.8282L2.71727 19.7427H6.0454V20.8282H2.54588Z" fill="#004F43"/>
<path d="M23.2048 11.093C23.1425 11.0638 23.0732 11.053 23.005 11.0618C22.9368 11.0707 22.8725 11.0987 22.8197 11.1427C22.2753 11.5965 21.589 11.845 20.8803 11.845C20.1716 11.845 19.4854 11.5965 18.941 11.1427C18.876 11.0885 18.794 11.0589 18.7094 11.0589C18.6247 11.0589 18.5428 11.0885 18.4777 11.1427C17.9334 11.5965 17.2471 11.845 16.5384 11.845C15.8297 11.845 15.1434 11.5965 14.5991 11.1427C14.5462 11.0987 14.4819 11.0706 14.4137 11.0618C14.3455 11.053 14.2762 11.0638 14.2139 11.093C14.1517 11.1222 14.099 11.1685 14.0621 11.2265C14.0252 11.2846 14.0056 11.3519 14.0056 11.4207V15.3029C14.0056 16.378 14.305 17.4319 14.8702 18.3464C15.4355 19.261 16.2442 20.0001 17.2058 20.4809L18.5475 21.1518C18.5978 21.1769 18.6532 21.19 18.7094 21.19C18.7655 21.19 18.8209 21.1769 18.8712 21.1518L20.2129 20.4809C21.1745 20.0001 21.9833 19.261 22.5485 18.3465C23.1137 17.4319 23.4131 16.378 23.4131 15.3029V11.4207C23.4131 11.3519 23.3935 11.2846 23.3566 11.2265C23.3197 11.1685 23.267 11.1222 23.2048 11.093ZM18.7094 11.877C19.445 12.399 20.3443 12.6383 21.2422 12.5508V15.3029C21.2444 15.9753 21.0583 16.635 20.7047 17.207C20.3512 17.779 19.8445 18.2405 19.242 18.5392L18.7094 18.8055L18.1766 18.5392C17.5742 18.2405 17.0675 17.779 16.714 17.207C16.3605 16.6349 16.1743 15.9753 16.1766 15.3029V12.5507C17.0744 12.6382 17.9737 12.399 18.7094 11.877ZM22.6895 15.3029C22.6895 16.2436 22.4275 17.1658 21.9329 17.966C21.4383 18.7663 20.7307 19.413 19.8893 19.8337L18.7094 20.4237L17.5294 19.8337C16.688 19.413 15.9804 18.7663 15.4858 17.966C14.9912 17.1658 14.7293 16.2436 14.7293 15.3029V12.1041C14.9591 12.2307 15.2017 12.3328 15.4529 12.4085V15.3029C15.4502 16.1098 15.6736 16.9014 16.0978 17.5878C16.522 18.2742 17.1301 18.828 17.853 19.1864L18.5475 19.5337C18.5978 19.5588 18.6532 19.5719 18.7094 19.5719C18.7655 19.5719 18.8209 19.5588 18.8712 19.5337L19.5657 19.1864C20.2886 18.828 20.8967 18.2742 21.3209 17.5878C21.7452 16.9014 21.9686 16.1098 21.9658 15.3029V12.4085C22.217 12.3328 22.4596 12.2307 22.6895 12.1041V15.3029Z" fill="#004F43"/>
</mask>

<g mask="url(#arrest)">
<rect width="26" height="26" />
</g>
</svg>