<svg width="20" height="20" viewBox="0 0 20 20" fill="none" xmlns="http://www.w3.org/2000/svg">
<mask id="arrow" mask-type="alpha" maskUnits="userSpaceOnUse" x="0" y="0" width="20" height="20">
<path fill-rule="evenodd" clip-rule="evenodd" d="M10.5893 3.57741C10.2638 3.25197 9.73619 3.25197 9.41075 3.57741C9.08532 3.90284 9.08532 4.43048 9.41075 4.75592L13.8215 9.16666H4.16668C3.70644 9.16666 3.33334 9.53976 3.33334 10C3.33334 10.4602 3.70644 10.8333 4.16668 10.8333H13.8215L9.41075 15.2441C9.08532 15.5695 9.08532 16.0971 9.41075 16.4226C9.73619 16.748 10.2638 16.748 10.5893 16.4226L16.4226 10.5892C16.748 10.2638 16.748 9.73618 16.4226 9.41074L10.5893 3.57741Z" fill="#004F43"/>
</mask>

<g mask="url(#arrow)">
<rect width="20" height="20" />
</g>
</svg>
