<svg width="26" height="26" viewBox="0 0 26 26" fill="none" xmlns="http://www.w3.org/2000/svg">
<mask id="driver" mask-type="alpha" maskUnits="userSpaceOnUse" x="0" y="0" width="26" height="26">
<path d="M10.0793 11.5572C10.0344 12.1206 9.7448 12.7049 9.3246 13.0822C9.18138 13.2108 9.11974 13.4094 9.16678 13.5975L9.38002 14.4515C9.42705 14.6386 9.57233 14.7849 9.76048 14.832L11.6326 15.2992C11.8907 15.3629 12.1312 15.4873 12.3475 15.6692C12.5692 15.8542 12.8984 15.826 13.0845 15.6034C13.2685 15.3818 13.2392 15.0525 13.0186 14.8665C12.6799 14.5832 12.2995 14.3877 11.8866 14.2832L10.3176 13.8922L10.2518 13.6288C10.6584 13.1794 10.9479 12.6055 11.0671 12.0097C11.3462 11.8655 11.55 11.5905 11.5908 11.2613L11.7037 10.354C11.7382 10.0791 11.6535 9.79997 11.4706 9.59197C11.4141 9.52715 11.3493 9.4707 11.2793 9.42367L11.3065 8.86862L11.4016 8.77244C11.6713 8.48708 12.0361 7.87456 11.4591 6.99339C11.1852 6.5753 10.6218 6.07459 9.48977 6.07459C9.15634 6.07459 8.40477 6.07459 7.67515 6.53345C5.52397 6.60871 5.27099 7.76794 5.27099 8.64284C5.27099 8.81531 5.30235 9.13831 5.3316 9.40799C5.25424 9.45713 5.18422 9.51774 5.1215 9.58776C4.93546 9.79786 4.84971 10.078 4.88529 10.3539L4.99818 11.2633C5.04105 11.6041 5.25742 11.8863 5.5762 12.0253C5.69325 12.5961 5.96715 13.1469 6.34864 13.586L6.27235 13.8933L4.70341 14.2842C3.43339 14.602 2.54492 15.7392 2.54492 17.05C2.54492 17.3385 2.77908 17.5727 3.06758 17.5727H10.4441C10.7326 17.5727 10.9668 17.3385 10.9668 17.05C10.9668 16.7615 10.7326 16.5275 10.4441 16.5275L3.66863 16.5264C3.84737 15.9296 4.32926 15.455 4.95849 15.2982L6.83161 14.831C7.01873 14.7839 7.16504 14.6387 7.21208 14.4505L7.43472 13.5589C7.48073 13.376 7.42321 13.1816 7.2842 13.0519C6.87757 12.6683 6.60897 12.1091 6.56399 11.5551C6.54204 11.2833 6.30998 11.1339 6.03717 11.1339L5.90233 10.3008C6.05285 10.3008 6.19499 10.2359 6.2943 10.1241C6.39362 10.0102 6.43958 9.86175 6.42077 9.71231C6.38103 9.39662 6.31728 8.82698 6.31728 8.64196C6.31728 8.10157 6.31728 7.59043 7.84547 7.57475C7.95208 7.57372 8.0566 7.54025 8.1444 7.47651C8.64207 7.11995 9.2149 7.11995 9.48977 7.11995C10.2925 7.11995 10.511 7.45446 10.5873 7.56627C10.7995 7.8924 10.7127 7.98437 10.6542 8.04708L10.4274 8.27389C10.3354 8.36586 10.281 8.48816 10.2748 8.61781L10.2183 9.75611C10.212 9.89826 10.2288 9.99655 10.327 10.1011C10.4243 10.2045 10.5256 10.2244 10.6678 10.2265L10.5999 11.0753C10.327 11.0753 10.1013 11.2843 10.0793 11.5572Z" fill="#003B34"/>
<path d="M15.6109 9.21053H18.7468C19.0353 9.21053 19.2694 8.97637 19.2694 8.68787C19.2694 8.39938 19.0353 8.16522 18.7468 8.16522H15.6109C15.3224 8.16522 15.0883 8.39938 15.0883 8.68787C15.0883 8.97637 15.3224 9.21053 15.6109 9.21053Z" fill="#003B34"/>
<path d="M22.9279 0.848267H3.06759C1.62618 0.848267 0.454407 2.02004 0.454407 3.46145V17.0501C0.454407 18.4915 1.62618 19.6633 3.06759 19.6633H10.8006C11.0901 19.6633 11.3232 19.4291 11.3232 19.1406C11.3232 18.8521 11.0891 18.618 10.8006 18.618H3.06759C2.20313 18.618 1.49967 17.9145 1.49967 17.0501V5.02937H24.4958V15.2836C24.4958 15.5721 24.7299 15.8062 25.0184 15.8062C25.3069 15.8062 25.5411 15.5721 25.5411 15.2836V3.46145C25.5411 2.02004 24.3693 0.848267 22.9279 0.848267ZM24.4958 3.9841H1.49967V3.46145C1.49967 2.59699 2.20313 1.89353 3.06759 1.89353H22.9279C23.7923 1.89353 24.4958 2.59699 24.4958 3.46145V3.9841H24.4958Z" fill="#003B34"/>
<path d="M22.9279 9.21053C23.2164 9.21053 23.4506 8.97637 23.4506 8.68787C23.4506 8.39938 23.2164 8.16522 22.9279 8.16522H20.8374C20.5489 8.16522 20.3147 8.39938 20.3147 8.68787C20.3147 8.97637 20.5489 9.21053 20.8374 9.21053H22.9279Z" fill="#003B34"/>
<path d="M25.5411 17.5727C25.5411 17.1358 25.216 16.8306 24.7509 16.8306C24.4885 16.8306 24.0391 16.9654 23.6523 17.1881C23.1412 16.1093 22.3049 15.1529 21.706 14.855C21.3099 14.6574 19.9604 14.4369 18.7468 14.4369C17.5332 14.4369 16.1838 14.6574 15.7866 14.855C15.1897 15.1529 14.3535 16.1093 13.8413 17.1881C13.4535 16.9654 13.004 16.8306 12.7417 16.8306C12.5431 16.8306 12.3727 16.8818 12.2358 16.9853C12.0539 17.1222 11.9525 17.3312 11.9525 17.5727C11.9525 18.388 12.5849 18.9535 12.6581 19.0152C12.7145 19.0632 12.7793 19.0936 12.8462 19.1145C12.5964 19.8075 12.4752 20.5768 12.4752 21.2312C12.4752 22.012 12.5473 23.3437 12.9978 24.0242V24.8897C12.9978 25.4761 13.4567 25.9349 14.0431 25.9349H15.0884C15.6748 25.9349 16.1336 25.4761 16.1336 24.8897V24.5353C16.7649 24.6931 17.7496 24.8897 18.7468 24.8897C19.744 24.8897 20.7286 24.6931 21.36 24.5353V24.8897C21.36 25.4761 21.8188 25.9349 22.4052 25.9349H23.4505C24.0369 25.9349 24.4958 25.4761 24.4958 24.8897V24.0242C24.9463 23.3437 25.0184 22.012 25.0184 21.2312C25.0184 20.5768 24.8972 19.8075 24.6474 19.1145C24.7142 19.0946 24.7791 19.0643 24.8355 19.0152C24.9087 18.9536 25.5411 18.388 25.5411 17.5727ZM16.2517 15.7916C16.4472 15.7017 17.5625 15.4822 18.7468 15.4822C19.9312 15.4822 21.0464 15.7017 21.2388 15.7895C21.635 15.9881 22.5548 17.0302 22.9206 18.1664C21.9381 18.3044 19.6155 18.618 18.7468 18.618C17.8782 18.618 15.5546 18.3044 14.572 18.1664C14.9378 17.0302 15.8577 15.9881 16.2517 15.7916ZM13.2998 18.1842C13.2664 18.1508 13.2152 18.0964 13.1546 18.0076C13.2236 18.04 13.2894 18.0766 13.3511 18.1132C13.3343 18.1372 13.3166 18.1591 13.2998 18.1842ZM15.0884 24.8897H14.0431V24.3671H15.0884V24.8897ZM23.4506 24.8897H22.4053V24.3671H23.4506V24.8897ZM23.691 23.3218H21.8826C21.8272 23.3218 21.7719 23.3312 21.7175 23.3479C21.7028 23.3532 20.206 23.8444 18.7468 23.8444C17.2876 23.8444 15.7907 23.3531 15.7761 23.3489C15.7583 23.3437 15.7406 23.3479 15.7228 23.3448C15.6862 23.3364 15.6507 23.3218 15.611 23.3218H13.8006C13.6636 23.0092 13.5194 22.2891 13.5194 21.2323C13.5194 21.0661 13.5319 20.8895 13.5507 20.7107C14.2531 20.7306 15.0883 20.9679 15.0883 21.2313C15.0883 21.5198 15.3225 21.7539 15.611 21.7539C15.8995 21.7539 16.1336 21.5197 16.1336 21.2312C16.1336 19.9539 14.4089 19.7187 13.7556 19.6748C13.8142 19.4835 13.8842 19.3038 13.9636 19.1344C13.9646 19.1344 13.9657 19.1355 13.9668 19.1355C14.1131 19.1574 17.5636 19.6633 18.7468 19.6633C19.93 19.6633 23.3805 19.1574 23.5268 19.1355C23.5279 19.1355 23.5279 19.1344 23.529 19.1344C23.6084 19.3038 23.6784 19.4835 23.7369 19.6748C23.0837 19.7187 21.36 19.9549 21.36 21.2312C21.36 21.5197 21.5941 21.7539 21.8826 21.7539C22.1711 21.7539 22.4053 21.5197 22.4053 21.2312C22.4053 20.9626 23.2353 20.7326 23.9419 20.7107C23.9607 20.8894 23.9732 21.0661 23.9732 21.2312C23.9732 22.289 23.8279 23.0092 23.691 23.3218ZM24.1927 18.1832C24.176 18.1591 24.1593 18.1362 24.1415 18.1132C24.2032 18.0766 24.2701 18.0389 24.338 18.0066C24.2868 18.0839 24.2345 18.1414 24.1927 18.1832Z" fill="#003B34"/>
<path d="M15.6109 12.3464H22.9279C23.2164 12.3464 23.4505 12.1122 23.4505 11.8237C23.4505 11.5352 23.2164 11.3011 22.9279 11.3011H15.6109C15.3224 11.3011 15.0883 11.5352 15.0883 11.8237C15.0883 12.1122 15.3224 12.3464 15.6109 12.3464Z" fill="#003B34"/>
<path d="M19.7921 20.7086H17.7015C17.413 20.7086 17.1788 20.9427 17.1788 21.2312C17.1788 21.5197 17.413 21.7539 17.7015 21.7539H19.7921C20.0806 21.7539 20.3147 21.5197 20.3147 21.2312C20.3147 20.9427 20.0806 20.7086 19.7921 20.7086Z" fill="#003B34"/>
</mask>

<g mask="url(#driver)">
<rect width="26" height="26" />
</g>
</svg>
