<svg width="27" height="27" viewBox="0 0 27 27" fill="none" xmlns="http://www.w3.org/2000/svg">
<mask id="exam" mask-type="alpha" maskUnits="userSpaceOnUse" x="0" y="0" width="27" height="27">
<g clip-path="url(#clip0)">
<path d="M21.2685 6.96629C21.0578 6.96629 20.8869 7.13716 20.8869 7.34791V24.4789C20.8869 24.4934 20.8752 24.5052 20.8607 24.5052H7.40072C7.18997 24.5052 7.0191 24.6761 7.0191 24.8868C7.0191 25.0976 7.18997 25.2684 7.40072 25.2684H20.8607C21.296 25.2684 21.6501 24.9143 21.6501 24.4789V7.34791C21.6501 7.13716 21.4793 6.96629 21.2685 6.96629Z" fill="#003B34"/>
<path d="M22.4921 2.47976H18.9793L17.6985 1.19901C17.4724 0.972841 17.1717 0.848282 16.8519 0.848282H3.72978C3.29443 0.848282 2.94029 1.20242 2.94029 1.63777V24.4789C2.94029 24.9142 3.29443 25.2684 3.72978 25.2684H4.57177V26.1104C4.57177 26.5457 4.92591 26.8999 5.36126 26.8999H22.4921C22.9275 26.8999 23.2816 26.5457 23.2816 26.1104V3.2693C23.2816 2.83395 22.9275 2.47976 22.4921 2.47976ZM17.1635 1.7433L20.7551 5.33491H17.1897C17.1752 5.33491 17.1635 5.32316 17.1635 5.30866V1.7433ZM22.5184 26.1104C22.5184 26.1249 22.5066 26.1367 22.4921 26.1367H5.36126C5.34676 26.1367 5.33501 26.1249 5.33501 26.1104V25.2684H5.76903C5.97978 25.2684 6.15065 25.0976 6.15065 24.8868C6.15065 24.6761 5.97978 24.5052 5.76903 24.5052H3.72978C3.71528 24.5052 3.70352 24.4934 3.70352 24.4789V1.63777C3.70352 1.62327 3.71528 1.61151 3.72978 1.61151H16.4002V5.30866C16.4002 5.744 16.7544 6.09814 17.1897 6.09814H21.2685C21.4793 6.09814 21.6501 5.92728 21.6501 5.71653V5.64656C21.6501 5.32677 21.5256 5.02606 21.2994 4.79989L19.7425 3.243H22.4921C22.5066 3.243 22.5184 3.25475 22.5184 3.26925V26.1104Z" fill="#003B34"/>
<path d="M10.5257 5.20781C10.3766 5.05877 10.135 5.05877 9.986 5.20781L7.82712 7.36668C7.81684 7.37691 7.80021 7.37691 7.78998 7.36668L6.92936 6.50606H7.59184C7.8026 6.50606 7.97346 6.3352 7.97346 6.12445C7.97346 5.91369 7.8026 5.74283 7.59184 5.74283H6.58489C6.46287 5.74283 6.34767 5.77148 6.24438 5.82114L6.03897 5.61573C5.88994 5.46669 5.6483 5.46669 5.49932 5.61573C5.35028 5.76476 5.35028 6.0064 5.49932 6.15538L5.79932 6.45538C5.79688 6.48067 5.79545 6.50632 5.79545 6.53227V8.97954C5.79545 9.41489 6.14959 9.76903 6.58494 9.76903H9.03221C9.46756 9.76903 9.8217 9.41489 9.8217 8.97954V6.45142L10.5257 5.74746C10.6747 5.59843 10.6747 5.35679 10.5257 5.20781ZM9.05847 8.97959C9.05847 8.99409 9.04671 9.00585 9.03221 9.00585H6.58494C6.57044 9.00585 6.55868 8.99409 6.55868 8.97959V7.21465L7.25032 7.90629C7.40424 8.0602 7.6064 8.13719 7.8086 8.13719C8.01076 8.13719 8.21291 8.0602 8.36683 7.90629L9.05847 7.21465V8.97959Z" fill="#003B34"/>
<path d="M9.03222 11.0452H6.58494C6.1496 11.0452 5.79546 11.3993 5.79546 11.8347V14.282C5.79546 14.7173 6.1496 15.0714 6.58494 15.0714H9.03222C9.46757 15.0714 9.82171 14.7173 9.82171 14.282V11.8347C9.82171 11.3994 9.46757 11.0452 9.03222 11.0452ZM9.05848 14.282C9.05848 14.2965 9.04672 14.3082 9.03222 14.3082H6.58494C6.57044 14.3082 6.55869 14.2965 6.55869 14.282V11.8347C6.55869 11.8202 6.57044 11.8084 6.58494 11.8084H9.03222C9.04672 11.8084 9.05848 11.8202 9.05848 11.8347V14.282Z" fill="#003B34"/>
<path d="M9.03222 16.3476H6.58494C6.1496 16.3476 5.79546 16.7018 5.79546 17.1371V19.5844C5.79546 20.0197 6.1496 20.3739 6.58494 20.3739H9.03222C9.46757 20.3739 9.82171 20.0197 9.82171 19.5844V17.1371C9.82171 16.7018 9.46757 16.3476 9.03222 16.3476ZM9.05848 19.5844C9.05848 19.5989 9.04672 19.6106 9.03222 19.6106H6.58494C6.57044 19.6106 6.55869 19.5988 6.55869 19.5844V17.1371C6.55869 17.1226 6.57044 17.1109 6.58494 17.1109H9.03222C9.04672 17.1109 9.05848 17.1226 9.05848 17.1371V19.5844Z" fill="#003B34"/>
<path d="M15.1504 6.55857H11.4795C11.2687 6.55857 11.0979 6.72944 11.0979 6.94019C11.0979 7.15094 11.2687 7.3218 11.4795 7.3218H15.1504C15.3611 7.3218 15.532 7.15094 15.532 6.94019C15.532 6.72944 15.3611 6.55857 15.1504 6.55857Z" fill="#003B34"/>
<path d="M18.4134 8.19011H11.4795C11.2687 8.19011 11.0979 8.36097 11.0979 8.57172C11.0979 8.78248 11.2687 8.95334 11.4795 8.95334H18.4134C18.6241 8.95334 18.795 8.78248 18.795 8.57172C18.795 8.36097 18.6242 8.19011 18.4134 8.19011Z" fill="#003B34"/>
<path d="M15.1504 11.861H11.4795C11.2687 11.861 11.0979 12.0319 11.0979 12.2426C11.0979 12.4534 11.2687 12.6242 11.4795 12.6242H15.1504C15.3611 12.6242 15.532 12.4534 15.532 12.2426C15.532 12.0319 15.3611 11.861 15.1504 11.861Z" fill="#003B34"/>
<path d="M18.4134 13.4925H11.4795C11.2687 13.4925 11.0979 13.6633 11.0979 13.8741C11.0979 14.0848 11.2687 14.2557 11.4795 14.2557H18.4134C18.6241 14.2557 18.795 14.0848 18.795 13.8741C18.795 13.6633 18.6242 13.4925 18.4134 13.4925Z" fill="#003B34"/>
<path d="M15.1504 17.1634H11.4795C11.2687 17.1634 11.0979 17.3342 11.0979 17.545C11.0979 17.7557 11.2687 17.9266 11.4795 17.9266H15.1504C15.3611 17.9266 15.532 17.7557 15.532 17.545C15.532 17.3342 15.3611 17.1634 15.1504 17.1634Z" fill="#003B34"/>
<path d="M18.4134 18.7948H11.4795C11.2687 18.7948 11.0979 18.9657 11.0979 19.1765C11.0979 19.3872 11.2687 19.5581 11.4795 19.5581H18.4134C18.6241 19.5581 18.795 19.3872 18.795 19.1765C18.795 18.9657 18.6242 18.7948 18.4134 18.7948Z" fill="#003B34"/>
</g>
</mask>

<defs>
<clipPath id="clip0">
<rect width="26.0516" height="26.0516" fill="white" transform="translate(0.0852051 0.848267)"/>
</clipPath>
</defs>

<g mask="url(#exam)">
<rect width="27" height="27" />
</g>
</svg>
