<svg width="20" height="20" viewBox="0 0 20 20" fill="none" xmlns="http://www.w3.org/2000/svg">
<mask id="factura" mask-type="alpha" maskUnits="userSpaceOnUse" x="0" y="0" width="26" height="26">
<g clip-path="url(#clip0)">
<path d="M10.1197 6.978H9.31225C8.95619 6.978 8.66651 6.68831 8.66651 6.33222C8.66651 5.97616 8.95619 5.68647 9.31225 5.68647H10.9271C11.2393 5.68647 11.4924 5.43334 11.4924 5.12111C11.4924 4.80889 11.2393 4.55576 10.9271 4.55576H10.2813V3.91005C10.2813 3.59782 10.0281 3.3447 9.71592 3.3447C9.40369 3.3447 9.15056 3.59782 9.15056 3.91005V4.56349C8.24656 4.64546 7.5358 5.40726 7.5358 6.33225C7.5358 7.31182 8.33272 8.10875 9.31225 8.10875H10.1197C10.4758 8.10875 10.7655 8.39843 10.7655 8.7545C10.7655 9.11056 10.4758 9.40024 10.1197 9.40024H8.50481C8.19259 9.40024 7.93946 9.65337 7.93946 9.9656C7.93946 10.2778 8.19259 10.531 8.50481 10.531H9.15056V11.1767C9.15056 11.4889 9.40369 11.7421 9.71592 11.7421C10.0281 11.7421 10.2813 11.4889 10.2813 11.1767V10.5233C11.1853 10.4413 11.8962 9.67953 11.8962 8.75446C11.8962 7.77492 11.0993 6.978 10.1197 6.978Z" fill="#003B34"/>
<path d="M12.7438 13.6392H6.68822C6.37599 13.6392 6.12286 13.8923 6.12286 14.2045C6.12286 14.5167 6.37599 14.7699 6.68822 14.7699H12.7438C13.056 14.7699 13.3091 14.5167 13.3091 14.2045C13.3091 13.8923 13.056 13.6392 12.7438 13.6392Z" fill="#003B34"/>
<path d="M16.3771 0.316895H3.05486C2.74263 0.316895 2.4895 0.570022 2.4895 0.882249V17.3837C2.4895 17.5336 2.54909 17.6774 2.65511 17.7834L4.32042 19.4487C4.54117 19.6695 4.89915 19.6695 5.11994 19.4487L6.38547 18.1832L7.65096 19.4487C7.75698 19.5548 7.90077 19.6144 8.05074 19.6144C8.20067 19.6144 8.3445 19.5548 8.45052 19.4487L9.71597 18.1832L10.9815 19.4487C11.0875 19.5548 11.2313 19.6144 11.3812 19.6144C11.5312 19.6144 11.675 19.5548 11.781 19.4487L13.0465 18.1832L14.312 19.4487C14.4224 19.5591 14.5671 19.6144 14.7118 19.6144C14.8565 19.6144 15.0012 19.5592 15.1116 19.4487L16.7769 17.7834C16.8829 17.6774 16.9425 17.5336 16.9425 17.3837V0.882249C16.9424 0.570022 16.6894 0.316895 16.3771 0.316895ZM14.7118 18.2494L13.4463 16.9839C13.3402 16.8779 13.1964 16.8183 13.0465 16.8183C12.8965 16.8183 12.7527 16.8779 12.6467 16.9839L11.3812 18.2494L10.1157 16.9839C9.89493 16.7631 9.53694 16.7631 9.31615 16.9839L8.05063 18.2494L6.78514 16.9839C6.67912 16.8779 6.53533 16.8183 6.38536 16.8183C6.23543 16.8183 6.09164 16.8779 5.98561 16.9839L4.72009 18.2494L3.62013 17.1495V1.4476H15.8117V17.1495H15.8117L14.7118 18.2494Z" fill="#003B34"/>
</g>
</mask>

<defs>
<clipPath id="clip0">
<rect width="19.2975" height="19.2975" fill="white" transform="translate(0.0672607 0.316895)"/>
</clipPath>
</defs>

<g mask="url(#factura)">
<rect width="26" height="26" />
</g>
</svg>
