<svg width="27" height="27" viewBox="0 0 27 27" fill="none" xmlns="http://www.w3.org/2000/svg">
<mask id="flash" mask-type="alpha" maskUnits="userSpaceOnUse" x="0" y="0" width="27" height="27">
<path d="M17.5932 3.37095C18.2088 2.7551 18.7488 2.21489 19.2996 1.66387C19.6884 1.27491 20.0772 0.885956 20.466 0.497001C21.1356 -0.162063 22.086 -0.183671 22.7556 0.475392C24.0084 1.71789 25.2612 2.96039 26.5032 4.21369C27.1836 4.90516 27.1728 5.84514 26.4708 6.54742C25.6176 7.41177 24.7536 8.26531 23.8896 9.12965C23.8248 9.19448 23.7276 9.2485 23.5656 9.36735C23.76 9.51861 23.9004 9.59424 24.0084 9.71309C24.7644 10.4694 24.7644 11.3986 23.9976 12.1657C20.8116 15.3529 17.6148 18.5402 14.4288 21.7275C13.284 22.8619 12.1716 24.0288 11.0052 25.1417C9.19079 26.8595 7.03079 27.3998 4.64399 26.6867C2.24639 25.9844 0.701992 24.3097 0.172792 21.8463C-0.324008 19.545 0.302393 17.5138 1.96559 15.8391C6.23159 11.5714 10.4976 7.31453 14.7744 3.05763C15.606 2.22569 16.524 2.22569 17.3664 3.06843C17.442 3.15486 17.5068 3.2521 17.5932 3.37095ZM0.583192 20.485C0.615592 20.8631 0.626392 21.2413 0.691192 21.6086C1.09079 23.8019 2.33279 25.3361 4.42799 26.06C6.57719 26.7947 8.58599 26.395 10.2168 24.7851C14.6664 20.3986 19.062 15.958 23.4792 11.539C23.8572 11.1609 23.8572 10.7611 23.5008 10.3722C23.4576 10.3289 23.4144 10.2749 23.3712 10.2317C21.168 8.01681 18.9648 5.80192 16.7616 3.59784C16.254 3.09004 15.876 3.09004 15.3576 3.60865C11.0592 7.90877 6.76079 12.2197 2.45159 16.5198C1.32839 17.6219 0.691192 18.9184 0.583192 20.485ZM23.0688 8.7515C24.0516 7.77911 25.0128 6.83914 25.9632 5.87755C26.2872 5.54262 26.2332 5.09964 25.8876 4.7431C24.678 3.53302 23.4684 2.32293 22.2588 1.11285C21.8592 0.713087 21.4056 0.702283 21.006 1.10204C20.1096 1.988 19.224 2.88476 18.3384 3.78151C18.306 3.81393 18.2736 3.86795 18.2628 3.87875C19.872 5.51021 21.4704 7.13085 23.0688 8.7515Z" fill="#004F43"/>
<path d="M18.198 11.3337C18.198 12.036 17.9388 12.6302 17.4528 13.1272C16.0164 14.5642 14.58 16.0012 13.1328 17.4274C12.42 18.1296 11.5668 18.3241 10.6272 18.0324C9.69839 17.7407 9.11519 17.0924 8.90999 16.1308C8.72639 15.2341 8.97479 14.467 9.62279 13.8187C11.0376 12.4034 12.4524 10.9772 13.8672 9.55102C14.6016 8.81632 15.6924 8.58943 16.6536 8.98919C17.5932 9.36734 18.198 10.2857 18.198 11.3337ZM11.2428 17.3517C11.772 17.3625 12.15 17.2437 12.4524 16.9412C13.932 15.4718 15.4116 14.0024 16.8804 12.5222C17.5392 11.8523 17.5176 10.7827 16.848 10.1236C16.1676 9.45378 15.0984 9.45378 14.4288 10.1344C12.9924 11.5714 11.5668 13.0192 10.1304 14.4562C9.63359 14.9532 9.49319 15.6447 9.75239 16.2929C10.0224 16.9304 10.638 17.3409 11.2428 17.3517Z" fill="#004F43"/>
<path d="M6.12359 24.1585C4.87079 24.0936 3.75839 23.4454 3.15359 22.0948C2.55959 20.7551 2.75399 19.4802 3.70439 18.3457C3.96359 18.0324 4.16879 18.0324 4.47119 18.3241C5.87519 19.7179 7.26839 21.1225 8.67239 22.527C8.97479 22.8295 8.97479 23.024 8.63999 23.3157C7.98119 23.8776 7.20359 24.1477 6.12359 24.1585ZM7.79759 22.916C6.55559 21.6735 5.31359 20.431 4.08239 19.1993C3.32639 20.1501 3.46679 21.7491 4.41719 22.6567C5.36759 23.5426 6.98759 23.6507 7.79759 22.916Z" fill="#004F43"/>
<path d="M20.682 3.97599C20.7468 3.84634 20.7792 3.7383 20.844 3.67347C21.0168 3.4898 21.1896 3.30613 21.384 3.14406C21.5784 2.97119 21.816 2.982 21.9564 3.15486C22.1184 3.33854 22.1076 3.53302 21.9456 3.70589C21.7728 3.90036 21.6 4.09484 21.384 4.2461C21.276 4.32173 21.0708 4.34334 20.952 4.28932C20.8332 4.2461 20.7684 4.08404 20.682 3.97599Z" fill="#004F43"/>
<path d="M23.598 4.89436C23.6844 4.95919 23.8464 5.02402 23.8896 5.13206C23.9436 5.25091 23.9544 5.45619 23.8788 5.55343C23.706 5.79112 23.49 5.9964 23.2632 6.19088C23.112 6.32053 22.9176 6.29893 22.7772 6.16927C22.6368 6.05043 22.5396 5.86675 22.6692 5.71549C22.896 5.44538 23.166 5.20769 23.4144 4.95919C23.4468 4.92678 23.5008 4.92678 23.598 4.89436Z" fill="#004F43"/>
</mask>

<g mask="url(#flash)">
<rect width="27" height="27" />
</g>
</svg>
