<svg width="30" height="30" viewBox="0 0 30 30" fill="none" xmlns="http://www.w3.org/2000/svg">
<mask id="monitoring" mask-type="alpha" maskUnits="userSpaceOnUse" x="0" y="0" width="30" height="30">

<g clip-path="url(#clip0)">
<path d="M4.82892 8.50512V11.2421C4.82892 11.5943 4.54349 11.8797 4.19131 11.8797C3.83914 11.8797 3.5537 11.5943 3.5537 11.2421V8.50512C3.5537 8.15294 3.83914 7.8675 4.19131 7.8675C4.54349 7.8675 4.82892 8.15294 4.82892 8.50512ZM6.81161 18.9972H3.56482C3.21265 18.9972 2.92721 19.2826 2.92721 19.6348C2.92721 19.987 3.21265 20.2724 3.56482 20.2724H6.81161C7.16379 20.2724 7.44923 19.987 7.44923 19.6348C7.44923 19.2826 7.16379 18.9972 6.81161 18.9972ZM6.81161 21.2873H5.35963C5.00745 21.2873 4.72202 21.5727 4.72202 21.9249C4.72202 22.2771 5.00745 22.5625 5.35963 22.5625H6.81161C7.16379 22.5625 7.44923 22.2771 7.44923 21.9249C7.44923 21.5727 7.16379 21.2873 6.81161 21.2873ZM6.58902 8.87776C6.23684 8.87776 5.95141 9.1632 5.95141 9.51538V11.2421C5.95141 11.5943 6.23684 11.8797 6.58902 11.8797C6.94119 11.8797 7.22663 11.5943 7.22663 11.2421V9.51538C7.22663 9.1632 6.94119 8.87776 6.58902 8.87776ZM12.3636 18.1352C12.3636 18.4874 12.649 18.7728 13.0012 18.7728H13.7185C14.0707 18.7728 14.3561 18.4874 14.3561 18.1352C14.3561 17.783 14.0707 17.4976 13.7185 17.4976H13.0012C12.649 17.4976 12.3636 17.783 12.3636 18.1352ZM25.1114 22.7631H25.1097C24.7576 22.7631 24.473 23.0486 24.473 23.4007C24.473 23.7529 24.7593 24.0384 25.1114 24.0384C25.4636 24.0384 25.7491 23.7529 25.7491 23.4007C25.7491 23.0486 25.4635 22.7631 25.1114 22.7631ZM20.7055 23.4007C20.7055 23.7528 20.42 24.0383 20.0679 24.0383H16.3861C16.093 25.3917 14.8863 26.4086 13.4465 26.4086C11.9698 26.4086 10.7382 25.3391 10.4859 23.9339C9.97495 23.7721 9.55356 23.4311 9.32721 22.976C9.21393 22.749 9.1564 22.5067 9.1564 22.2566V18.0049C9.1564 17.6527 9.44184 17.3673 9.79401 17.3673C10.1462 17.3673 10.4316 17.6527 10.4316 18.0049V22.2566C10.4316 22.3074 10.4441 22.3582 10.4686 22.4075C10.4904 22.4511 10.5227 22.4955 10.5648 22.5373C10.9368 21.2983 12.0879 20.3929 13.4465 20.3929C14.8861 20.3929 16.0928 21.4098 16.3861 22.763H20.0679C20.42 22.7631 20.7055 23.0485 20.7055 23.4007ZM15.1789 23.4007C15.1789 22.4455 14.4018 21.6682 13.4465 21.6682C12.4959 21.6682 11.7215 22.4377 11.7139 23.3865C11.714 23.3944 11.714 23.4024 11.7138 23.4104C11.7191 24.3613 12.4944 25.1333 13.4465 25.1333C14.4018 25.1333 15.1789 24.3561 15.1789 23.4007ZM8.98644 7.8675C8.63426 7.8675 8.34883 8.15294 8.34883 8.50512V11.2421C8.34883 11.5943 8.63426 11.8797 8.98644 11.8797C9.33861 11.8797 9.62405 11.5943 9.62405 11.2421V8.50512C9.62405 8.15294 9.33854 7.8675 8.98644 7.8675ZM29.3978 20.9421L29.3962 21.3063C29.3949 21.5743 29.3934 21.8801 29.3934 22.2566C29.3934 23.0192 28.845 23.6794 28.0718 23.9305C27.8208 25.3372 26.5884 26.4086 25.1106 26.4086C23.452 26.4086 22.1027 25.0592 22.1027 23.4007C22.1027 21.7422 23.452 20.393 25.1106 20.393C26.4673 20.393 27.617 21.2957 27.9906 22.532C28.0706 22.451 28.1182 22.3554 28.1182 22.2566C28.1182 21.8776 28.1197 21.5699 28.121 21.3001L28.1226 20.9363C28.1249 20.413 28.1281 19.6964 28.1207 19.3618C28.1154 19.129 28.1091 18.9381 28.0928 18.7729H18.2837C18.0549 18.7729 17.519 18.7729 15.8791 17.1522C15.3794 16.6584 14.3862 15.6076 14.2037 15.165C14.0693 14.8394 14.2244 14.4667 14.5499 14.3324C14.8707 14.1997 15.2368 14.3485 15.3762 14.6638C15.4629 14.8192 15.9813 15.4553 16.7328 16.2029C17.6792 17.1443 18.1822 17.4493 18.3192 17.4976H27.3762C27.1712 17.3011 26.9082 17.068 26.5703 16.7686C26.3947 16.6131 26.202 16.4423 25.9903 16.2523C25.8357 16.1137 25.6818 15.9666 25.5328 15.8243C25.3162 15.6173 25.0922 15.4034 24.859 15.2081C24.6531 15.0355 24.458 14.8713 24.2726 14.7151C21.9064 12.7227 21.2704 12.1872 19.2748 12.1872H14.8729C14.5208 12.1872 14.2353 11.9017 14.2353 11.5496C14.2353 11.1974 14.5208 10.912 14.8729 10.912H19.2748C21.7357 10.912 22.7188 11.7398 25.0939 13.7396C25.2786 13.8951 25.4729 14.0587 25.6779 14.2305C25.943 14.4526 26.1823 14.6812 26.4138 14.9023C26.5622 15.044 26.7022 15.1778 26.8419 15.3031C27.0516 15.4912 27.2423 15.6602 27.416 15.8141C28.9442 17.1681 29.355 17.5321 29.3957 19.3333C29.4034 19.6851 29.4003 20.382 29.3978 20.9421ZM26.8432 23.3941C26.8396 22.4419 26.0637 21.6682 25.1105 21.6682C24.1552 21.6682 23.3778 22.4455 23.3778 23.4007C23.3778 24.3561 24.1552 25.1333 25.1105 25.1333C26.0655 25.1333 26.8424 24.3568 26.8432 23.402C26.8432 23.3994 26.8432 23.3968 26.8432 23.3941ZM8.84999 16.2449C8.84999 16.5971 8.56455 16.8825 8.21238 16.8825H4.96559C4.61341 16.8825 4.32797 16.5971 4.32797 16.2449C4.32797 15.8927 4.61341 15.6073 4.96559 15.6073H5.95141V14.5214H1.09202C0.739845 14.5214 0.454407 14.236 0.454407 13.8838V4.66697C0.454407 4.3148 0.739845 4.02936 1.09202 4.02936H12.0857C12.4378 4.02936 12.7233 4.3148 12.7233 4.66697V13.8838C12.7233 14.236 12.4378 14.5214 12.0857 14.5214H7.22663V15.6073H8.21238C8.56455 15.6073 8.84999 15.8927 8.84999 16.2449ZM11.448 13.2462V5.30458H1.72963V13.2462H11.448ZM13.4472 22.7631H13.4457C13.0935 22.7631 12.8089 23.0486 12.8089 23.4007C12.8089 23.7529 13.0951 24.0384 13.4472 24.0384C13.7994 24.0384 14.0849 23.7529 14.0849 23.4007C14.0849 23.0486 13.7993 22.7631 13.4472 22.7631Z" fill="#003B34"/>
</g>
</mask>

<defs>
<clipPath id="clip0">
<rect width="28.9462" height="28.9462" fill="white" transform="translate(0.454407 0.745911)"/>
</clipPath>
</defs>


<g mask="url(#monitoring)">
<rect width="30" height="30" />
</g>
</svg>
