<svg width="35" height="33" viewBox="0 0 35 33" fill="none" xmlns="http://www.w3.org/2000/svg">
<mask id="penalty" mask-type="alpha" maskUnits="userSpaceOnUse" x="0" y="0" width="35" height="35">
<g clip-path="url(#clip0)">
<path d="M22.459 22.6336H18.1888H6.52387H2.25362H1.24299C1.05083 22.6336 0.894254 22.475 0.894254 22.2803V19.9586C0.894254 19.7639 1.05083 19.6053 1.24299 19.6053H15.2779V19.0284H1.52767V15.7549C1.52767 14.9185 2.19668 14.2408 3.02226 14.2408H15.2779V13.6639H5.20009L6.54522 8.80418C6.69468 8.26341 7.18575 7.88847 7.74089 7.88847H15.2708V7.31164H7.74089C6.92954 7.31164 6.21783 7.85963 5.9972 8.65276L4.60937 13.6712H3.80514V13.1808L5.17162 8.26341C5.44919 7.27559 6.3317 6.59782 7.34233 6.59782H15.2779V6.021H7.34233C6.07549 6.021 4.96522 6.87902 4.6236 8.11199L3.59163 11.8109C3.39235 11.5297 3.06496 11.3422 2.69488 11.3422H1.3711C0.759029 11.3422 0.260834 11.8469 0.260834 12.467V13.1087C0.260834 13.7288 0.759029 14.2336 1.3711 14.2336H1.59885C1.20029 14.6157 0.958308 15.1493 0.958308 15.7477V19.0717C0.58822 19.1943 0.324887 19.5404 0.324887 19.9586V22.2803C0.324887 22.7922 0.737678 23.2104 1.24299 23.2104H1.96893V25.5033C1.96893 26.3036 2.60947 26.9526 3.39947 26.9526H5.37802C6.16801 26.9526 6.80855 26.3036 6.80855 25.5033V23.2104H17.9041V25.5033C17.9041 26.3036 18.5446 26.9526 19.3346 26.9526H21.3132C22.1032 26.9526 22.7437 26.3036 22.7437 25.5033V23.2104H22.886V22.6336H22.459ZM1.3711 13.6567C1.07218 13.6567 0.8302 13.4116 0.8302 13.1087V12.467C0.8302 12.1642 1.07218 11.919 1.3711 11.919H2.69488C2.99379 11.919 3.23577 12.1642 3.23577 12.467V13.1015L3.0792 13.6639H1.3711V13.6567ZM6.23918 25.5033C6.23918 25.9864 5.85486 26.3757 5.37802 26.3757H3.39947C2.92262 26.3757 2.5383 25.9864 2.5383 25.5033V23.2104H6.23918V25.5033ZM22.1743 25.5033C22.1743 25.9864 21.79 26.3757 21.3132 26.3757H19.3346C18.8578 26.3757 18.4734 25.9864 18.4734 25.5033V23.2104H22.1743V25.5033Z" fill="#003B34"/>
<path d="M23.4625 22.6336H22.8789V23.2104H23.4625V22.6336Z" fill="#003B34"/>
<path d="M5.76947 15.0195H2.99381C2.56679 15.0195 2.21805 15.3728 2.21805 15.8054V16.5553C2.21805 17.4061 2.90129 18.0911 3.7411 18.0983H5.77659C6.48118 18.0983 7.05055 17.5215 7.05055 16.8076V16.3101C7.04343 15.5963 6.46695 15.0195 5.76947 15.0195ZM6.47406 16.8076C6.47406 17.2042 6.16091 17.5215 5.76947 17.5215H3.73399C3.20732 17.5215 2.78741 17.0888 2.7803 16.5553V15.8054C2.7803 15.69 2.87282 15.5963 2.98669 15.5963H5.76235C6.15379 15.5963 6.46695 15.9136 6.46695 16.3101V16.8076H6.47406Z" fill="#003B34"/>
<path d="M8.84403 17.2763C8.83692 17.2763 8.8298 17.2763 8.82268 17.2763C8.46683 17.2691 8.18215 16.9735 8.18926 16.613C8.19638 16.2525 8.48818 15.964 8.84403 15.9713H15.2708V15.3944H8.84403C8.83692 15.3944 8.8298 15.3944 8.81557 15.3944C8.14656 15.4016 7.61278 15.9568 7.6199 16.6346C7.62701 17.3124 8.17503 17.8531 8.84403 17.8459H15.2708V17.2691H8.84403V17.2763Z" fill="#003B34"/>
<path d="M22.8291 5.68932L23.0568 6.15078C23.0782 6.19405 23.1138 6.22289 23.1565 6.2301L23.6618 6.3022C23.733 6.31662 23.7899 6.38151 23.7757 6.46083C23.7686 6.48967 23.7543 6.51851 23.733 6.54014L23.3629 6.90066C23.3273 6.9295 23.3131 6.97997 23.3202 7.02323L23.4056 7.53517C23.4198 7.60727 23.37 7.67937 23.2917 7.69379C23.2632 7.701 23.2348 7.69379 23.2063 7.67937L22.7508 7.44143C22.7081 7.4198 22.6654 7.4198 22.6227 7.44143L22.1672 7.67937C22.1032 7.71543 22.0178 7.68658 21.9822 7.62169C21.9679 7.59285 21.9608 7.56401 21.9679 7.53517L22.0533 7.02323C22.0605 6.97997 22.0462 6.9295 22.0106 6.90066L21.6405 6.54014C21.5836 6.48967 21.5836 6.39593 21.6405 6.34546C21.6619 6.32383 21.6904 6.30941 21.7188 6.3022L22.2242 6.2301C22.2669 6.22289 22.3096 6.19405 22.3238 6.15799L22.5515 5.69653C22.5871 5.63164 22.6654 5.6028 22.7366 5.63164C22.8006 5.63885 22.822 5.66769 22.8291 5.68932Z" fill="#003B34"/>
<path d="M22.7081 9.60453C22.6441 9.60453 22.5871 9.59011 22.5302 9.56848L21.0214 8.98444C20.5089 8.79698 20.0961 8.41483 19.8613 7.91732C19.6478 7.47027 19.6406 7.10976 19.8328 6.78529C20.0392 6.43199 20.1388 6.02821 20.1175 5.61722V5.56675C20.1175 5.04039 20.0534 4.65104 19.7332 4.19679C19.7189 4.17516 19.7047 4.16073 19.6976 4.1391L19.541 3.74975C19.4556 3.54786 19.5552 3.31713 19.7545 3.2306C19.7616 3.2306 19.7688 3.22339 19.783 3.22339L20.7011 2.91335C20.9004 2.84845 21.1139 2.9494 21.1922 3.14408L21.2633 3.30992L22.4448 2.92777C22.6298 2.87009 22.822 2.87009 23.007 2.92777L24.1813 3.30992L24.2454 3.14408C24.3237 2.9494 24.5372 2.84845 24.7365 2.91335L25.6546 3.22339C25.861 3.2955 25.9677 3.51902 25.9037 3.72811C25.9037 3.73533 25.8966 3.74975 25.8966 3.75696L25.74 4.14631C25.7329 4.16794 25.7186 4.18958 25.7044 4.21121C25.3841 4.66546 25.3201 5.05481 25.3201 5.58117V5.59559C25.2916 6.01379 25.3912 6.43199 25.6048 6.7925C25.7969 7.11697 25.7827 7.47027 25.5763 7.92453C25.3414 8.42204 24.9215 8.80419 24.4162 8.99165L22.9074 9.57569C22.8291 9.59011 22.7722 9.60453 22.7081 9.60453ZM20.21 3.88674C20.6015 4.44915 20.6869 4.96829 20.6869 5.57396V5.62443C20.7082 6.13636 20.5801 6.6483 20.3168 7.08813C20.2741 7.16023 20.1958 7.29723 20.3737 7.67216C20.5445 8.03268 20.8506 8.30667 21.2278 8.44367L22.7152 9.01328L24.2027 8.44367C24.5728 8.30667 24.8788 8.03268 25.0567 7.67216C25.2347 7.29002 25.1564 7.16023 25.1137 7.08092C24.8504 6.62667 24.7222 6.10752 24.7436 5.58117V5.56675C24.7436 4.94666 24.8219 4.44915 25.2204 3.87953L25.2916 3.69927L24.7151 3.50459L24.644 3.67043C24.5657 3.86511 24.3593 3.95885 24.16 3.90116L22.822 3.46854C22.7508 3.44691 22.6725 3.44691 22.6014 3.46854L21.2633 3.90116C21.0712 3.96606 20.8577 3.86511 20.7794 3.67043L20.7153 3.50459L20.1388 3.69927L20.21 3.88674Z" fill="#003B34"/>
<path d="M18.0251 10.5923H27.3912C27.7185 10.5923 27.9819 10.8087 27.9819 11.0754C27.9819 11.3422 27.7185 11.5585 27.3912 11.5585H18.0251C17.6977 11.5585 17.4344 11.3422 17.4344 11.0754C17.4344 10.8087 17.6977 10.5923 18.0251 10.5923Z" fill="#003B34"/>
<path d="M18.0251 13.015H27.3912C27.7185 13.015 27.9819 13.2313 27.9819 13.4981C27.9819 13.7649 27.7185 13.9812 27.3912 13.9812H18.0251C17.6977 13.9812 17.4344 13.7649 17.4344 13.4981C17.4344 13.2313 17.6977 13.015 18.0251 13.015Z" fill="#003B34"/>
<path d="M19.9324 15.1709V15.38C20.0534 15.3872 20.1744 15.4233 20.2883 15.4665C20.3879 15.5098 20.4733 15.5747 20.5445 15.6612C20.6015 15.7261 20.6442 15.791 20.6797 15.8703C20.7082 15.928 20.7224 16.0001 20.7296 16.065C20.7296 16.1299 20.7011 16.1876 20.6584 16.238C20.6157 16.2813 20.5516 16.3101 20.4876 16.3101C20.3666 16.3173 20.2598 16.2236 20.2385 16.101C20.2029 15.9424 20.0819 15.8198 19.9324 15.7766V16.5913C20.089 16.6346 20.2171 16.6779 20.3168 16.7139C20.4093 16.75 20.4947 16.8004 20.573 16.8725C20.6513 16.9446 20.7153 17.0312 20.758 17.1321C20.8007 17.2331 20.8221 17.3484 20.8221 17.4638C20.8221 17.608 20.7865 17.7522 20.7153 17.882C20.6442 18.0118 20.5374 18.1271 20.4093 18.1992C20.2669 18.2858 20.1033 18.3362 19.9324 18.3435V18.8338C19.9324 18.8914 19.9253 18.9491 19.9111 18.9996C19.8897 19.0356 19.8542 19.0573 19.8115 19.0501C19.7759 19.0573 19.7332 19.0356 19.7118 19.0068C19.6905 18.9635 19.6833 18.9203 19.6833 18.877V18.3507C19.5481 18.3362 19.4129 18.3002 19.2848 18.2425C19.178 18.192 19.0855 18.1199 19.0001 18.0406C18.9289 17.9685 18.872 17.882 18.8293 17.7883C18.7937 17.7089 18.7795 17.6152 18.7724 17.5287C18.7724 17.4638 18.8008 17.4061 18.8435 17.3556C18.8934 17.3052 18.9574 17.2763 19.0215 17.2835C19.0713 17.2835 19.1211 17.298 19.1709 17.3268C19.2136 17.3556 19.2421 17.3917 19.2563 17.4422C19.2848 17.5287 19.3133 17.608 19.3488 17.6873C19.3773 17.745 19.42 17.8027 19.4627 17.8459C19.5197 17.8964 19.5908 17.9325 19.6691 17.9541V17.0456C19.5197 17.0095 19.3773 16.9519 19.235 16.887C19.1211 16.8293 19.0215 16.7428 18.9503 16.6346C18.7724 16.3173 18.8151 15.928 19.057 15.6612C19.2279 15.5026 19.4414 15.4161 19.6691 15.4088V15.1997C19.6691 15.0916 19.7118 15.0339 19.7901 15.0339C19.8897 15.0123 19.9253 15.0628 19.9324 15.1709ZM19.6833 16.5192V15.7694C19.5908 15.791 19.5054 15.8415 19.4271 15.8991C19.3061 16.0361 19.3061 16.238 19.42 16.375C19.4983 16.4399 19.5908 16.4832 19.6833 16.5192ZM19.9324 17.0961V17.9541C20.0463 17.9397 20.1531 17.882 20.2314 17.7955C20.3025 17.7234 20.3381 17.6224 20.3381 17.5143C20.3452 17.4133 20.3097 17.3196 20.2314 17.2475C20.146 17.1826 20.0392 17.1321 19.9324 17.0961Z" fill="#003B34"/>
<path d="M25.8823 15.5314H27.3342C27.6616 15.5314 27.9249 15.7477 27.9249 16.0145C27.9249 16.2813 27.6616 16.4976 27.3342 16.4976H25.8823C25.5549 16.4976 25.2916 16.2813 25.2916 16.0145C25.2845 15.7477 25.5549 15.5314 25.8823 15.5314Z" fill="#003B34"/>
<path d="M23.2348 25.8927C23.0782 25.8927 22.9501 25.7629 22.9501 25.6043V20.283C22.943 19.2087 23.7899 18.329 24.8503 18.3218C25.9108 18.3146 26.7791 19.1726 26.7862 20.247C26.7862 20.2614 26.7862 20.2686 26.7862 20.283V24.6813C26.7862 24.84 26.6581 24.9697 26.5015 24.9697C26.3449 24.9697 26.2168 24.84 26.2168 24.6813V20.283C26.2239 19.5259 25.6261 18.9131 24.8788 18.9059C24.1315 18.8986 23.5266 19.5043 23.5195 20.2614C23.5195 20.2686 23.5195 20.283 23.5195 20.2902V25.6115C23.5195 25.7629 23.3913 25.8927 23.2348 25.8927Z" fill="#003B34"/>
<path d="M29.3341 0.562782H16.0892C15.6408 0.562782 15.2779 0.930509 15.2779 1.38476V20.7156C15.2779 20.8743 15.406 21.0041 15.5626 21.0041C15.7191 21.0041 15.8686 21.0762 15.9682 21.1987C15.9825 21.2132 15.9896 21.2204 16.0038 21.2348C16.438 21.653 17.1212 21.6386 17.5411 21.1987C17.5625 21.1699 17.5909 21.1483 17.6123 21.1266C17.84 20.9392 18.1674 20.9752 18.3525 21.1987C18.3667 21.2132 18.3738 21.2204 18.388 21.2348C18.8222 21.653 19.5054 21.6386 19.9253 21.1987C19.9467 21.1699 19.968 21.1483 19.9965 21.1266C20.2242 20.9392 20.5516 20.9752 20.7367 21.1987C20.7509 21.2132 20.758 21.2204 20.7723 21.2348C21.2064 21.653 21.8896 21.6386 22.3096 21.1987C22.3309 21.1699 22.3523 21.1483 22.3807 21.1266C22.5515 20.9896 22.7793 20.968 22.9572 21.069V20.4633C22.5942 20.3768 22.2028 20.4849 21.9252 20.7733C21.9039 20.8022 21.8825 20.8238 21.8541 20.8454C21.6263 21.0329 21.2989 20.9968 21.1139 20.7733C21.0997 20.7589 21.0925 20.7517 21.0783 20.7373C20.6442 20.3191 19.9609 20.3335 19.541 20.7733C19.5197 20.8022 19.4983 20.8238 19.4698 20.8454C19.2421 21.0329 18.9147 21.0041 18.7297 20.7733C18.7154 20.7589 18.7083 20.7517 18.6941 20.7373C18.2599 20.3191 17.5767 20.3335 17.1568 20.7733C17.1354 20.8022 17.107 20.8238 17.0856 20.8454C16.8579 21.0329 16.5305 20.9968 16.3454 20.7733C16.2031 20.6291 16.0323 20.5282 15.8472 20.4705V1.38476C15.8472 1.24776 15.954 1.13961 16.0892 1.13961H29.3341C29.4693 1.13961 29.5761 1.24776 29.5761 1.38476V20.4633C29.3839 20.521 29.2131 20.6219 29.0779 20.7661C29.0566 20.795 29.0352 20.8166 29.0067 20.8382C28.779 21.0257 28.4516 20.9968 28.2594 20.7661C28.053 20.5498 27.7684 20.4272 27.4766 20.4272C27.2275 20.4272 26.9855 20.5138 26.7933 20.6724V21.4078C26.893 21.3574 26.9855 21.2853 27.0709 21.1987C27.0922 21.1699 27.1136 21.1483 27.1421 21.1266C27.3698 20.9392 27.6972 20.968 27.8822 21.1987C28.0886 21.415 28.3733 21.5376 28.6651 21.5376C28.964 21.5376 29.2416 21.415 29.448 21.1987C29.5476 21.0762 29.6971 21.0041 29.8537 21.0041C30.0102 21.0041 30.1383 20.8743 30.1383 20.7156V1.38476C30.1455 0.930509 29.7825 0.562782 29.3341 0.562782Z" fill="#003B34"/>
<path d="M33.8677 22.8427L31.1917 16.2885C31.0066 15.8343 30.6081 15.5242 30.1455 15.4449V16.0361C30.3803 16.1082 30.5725 16.2813 30.665 16.512L33.341 23.0662C33.462 23.3546 33.4905 23.6719 33.4264 23.9747L32.0528 31.012C32.0457 31.0336 32.0457 31.048 32.0457 31.0697V31.834H25.4838V31.0625C25.4838 31.012 25.4695 30.9687 25.4482 30.9255L24.281 28.7047C23.7828 27.7529 23.5195 26.6858 23.5195 25.6042V21.4727C23.3842 21.4223 23.2561 21.3429 23.1494 21.2348C23.1351 21.2204 23.128 21.2132 23.1138 21.1987C23.0711 21.1411 23.0141 21.0978 22.9501 21.0617V25.597C22.9501 26.7723 23.2348 27.9332 23.7828 28.9715L24.9215 31.1274V32.108C24.9215 32.2666 25.0496 32.3964 25.2062 32.3964H32.3375C32.4941 32.3964 32.6222 32.2666 32.6222 32.108V31.0841L33.9958 24.0684C34.0741 23.6647 34.0314 23.232 33.8677 22.8427Z" fill="#003B34"/>
</g>
</mask>

<defs>
<clipPath id="clip0">
<rect width="33.7706" height="31.8408" fill="white" transform="translate(0.260864 0.562775)"/>
</clipPath>
</defs>


<g mask="url(#penalty)">
<rect width="35" height="35" />
</g>
</svg>
