<svg width="27" height="27" viewBox="0 0 27 27" fill="none" xmlns="http://www.w3.org/2000/svg">
<mask id="personAssessment" mask-type="alpha" maskUnits="userSpaceOnUse" x="0" y="0" width="27" height="27">
<path d="M9.48307 16.093L10.2679 16.8779C10.5397 17.1495 10.9793 17.1495 11.2511 16.8779L11.7422 16.3867C11.821 16.4227 11.9018 16.4562 11.9834 16.4865V17.1812C11.9834 17.5645 12.2952 17.8764 12.6786 17.8764H13.7884C14.1718 17.8764 14.4836 17.5645 14.4836 17.1812V16.4865C14.5652 16.4562 14.646 16.4227 14.7248 16.3867L15.216 16.8779C15.4869 17.1487 15.928 17.1489 16.1991 16.8779L16.9839 16.093C17.2549 15.822 17.2549 15.381 16.9839 15.1098L16.4927 14.6187C16.5288 14.5399 16.5622 14.4592 16.5926 14.3776H17.2872C17.6706 14.3776 17.9824 14.0657 17.9824 13.6824V12.5725C17.9824 12.1892 17.6706 11.8773 17.2872 11.8773H16.5926C16.5623 11.7958 16.5288 11.715 16.4927 11.6362L16.984 11.145C17.2549 10.8739 17.2549 10.4329 16.9839 10.1619L16.199 9.37702C15.928 9.10597 15.487 9.10607 15.2159 9.37702L14.7248 9.86823C14.646 9.83216 14.5652 9.79873 14.4836 9.76835V9.07371C14.4836 8.69036 14.1718 8.37851 13.7884 8.37851H12.6786C12.2952 8.37851 11.9834 8.69036 11.9834 9.07371V9.76835C11.9017 9.79878 11.8209 9.83221 11.7422 9.86823L11.2511 9.37707C10.9795 9.10536 10.5396 9.10531 10.2679 9.37707L9.48307 10.1619C9.21207 10.4329 9.21207 10.8739 9.48312 11.1451L9.97428 11.6362C9.93821 11.715 9.90478 11.7957 9.8744 11.8773H9.17976C8.79641 11.8773 8.48456 12.1892 8.48456 12.5725V13.6824C8.48456 14.0657 8.79641 14.3776 9.17976 14.3776H9.8744C9.90478 14.4592 9.93826 14.54 9.97428 14.6187L9.48302 15.1099C9.21207 15.381 9.21207 15.822 9.48307 16.093ZM9.92233 13.6143H9.24779V12.6404H9.92233C10.2155 12.6404 10.4783 12.4555 10.5763 12.1804C10.608 12.0913 10.6445 12.0032 10.6848 11.9183C10.8102 11.6542 10.7552 11.3375 10.5479 11.1303L10.071 10.6533L10.7595 9.96475L11.2365 10.4418C11.4438 10.649 11.7604 10.7041 12.0247 10.5785C12.1093 10.5384 12.1974 10.5019 12.2865 10.4701C12.5617 10.3721 12.7467 10.1093 12.7467 9.81618V9.14164H13.7206V9.81618C13.7206 10.1093 13.9055 10.3721 14.1806 10.4701C14.2697 10.5018 14.3578 10.5383 14.4427 10.5786C14.7068 10.7041 15.0234 10.6489 15.2307 10.4417L15.7077 9.96475L16.3962 10.6533L15.9192 11.1303C15.712 11.3376 15.657 11.6543 15.7824 11.9183C15.8227 12.0032 15.8592 12.0914 15.8909 12.1803C15.9889 12.4555 16.2517 12.6404 16.5449 12.6404H17.2194V13.6143H16.5448C16.2517 13.6143 15.9889 13.7993 15.8909 14.0744C15.8592 14.1634 15.8227 14.2515 15.7824 14.3364C15.657 14.6004 15.712 14.9171 15.9193 15.1244L16.3962 15.6014L15.7077 16.29L15.2306 15.8129C15.0234 15.6058 14.7068 15.5508 14.4425 15.6762C14.3578 15.7164 14.2697 15.7529 14.1807 15.7846C13.9055 15.8826 13.7205 16.1454 13.7205 16.4386V17.1132H12.7466V16.4386C12.7466 16.1454 12.5617 15.8826 12.2866 15.7847C12.1975 15.7529 12.1094 15.7164 12.0245 15.6761C11.7604 15.5507 11.4438 15.6058 11.2365 15.813L10.7595 16.29L10.071 15.6014L10.548 15.1243C10.7552 14.9171 10.8102 14.6004 10.6848 14.3363C10.6445 14.2515 10.608 14.1634 10.5763 14.0744C10.4783 13.7993 10.2155 13.6143 9.92233 13.6143Z" fill="#003B34"/>
<path d="M13.2336 15.1642C14.3566 15.1642 15.2703 14.2505 15.2703 13.1274C15.2703 12.0043 14.3566 11.0906 13.2336 11.0906C12.1105 11.0906 11.1967 12.0043 11.1967 13.1274C11.1967 14.2505 12.1105 15.1642 13.2336 15.1642ZM13.2336 11.8539C13.9358 11.8539 14.5071 12.4252 14.5071 13.1274C14.5071 13.8297 13.9357 14.401 13.2336 14.401C12.5313 14.401 11.96 13.8296 11.96 13.1274C11.96 12.4252 12.5313 11.8539 13.2336 11.8539Z" fill="#003B34"/>
<path d="M5.00176 9.68967C7.6522 9.68967 9.79581 7.53578 9.79581 4.89567C9.79581 2.2522 7.64518 0.101624 5.00176 0.101624C2.35834 0.101624 0.207764 2.2522 0.207764 4.89562C0.207764 7.53695 2.35681 9.68967 5.00176 9.68967ZM7.55619 8.01118C6.83382 8.60451 5.93453 8.92644 5.00176 8.92644C4.08914 8.92644 3.18477 8.61687 2.44738 8.01123C2.44738 7.22108 3.07033 6.67232 3.76309 6.67232H6.24043C6.9339 6.67227 7.55619 7.22164 7.55619 8.01118ZM5.00176 0.864853C7.22439 0.864853 9.03258 2.67305 9.03258 4.89562C9.03258 5.80946 8.72642 6.65283 8.21201 7.32966C7.93592 6.50512 7.15676 5.90904 6.24043 5.90904H3.76309C2.84686 5.90904 2.06765 6.50512 1.79157 7.32966C1.27715 6.65283 0.970993 5.80946 0.970993 4.89562C0.970993 2.67305 2.77919 0.864853 5.00176 0.864853Z" fill="#003B34"/>
<path d="M21.4653 16.5651C18.8219 16.5651 16.6712 18.7158 16.6712 21.3592C16.6712 24.0015 18.818 26.1532 21.4653 26.1532C24.0992 26.1532 26.2593 24.0122 26.2593 21.3592C26.2593 18.7158 24.1087 16.5651 21.4653 16.5651ZM24.0197 24.4747C22.5395 25.6905 20.4027 25.7001 18.9109 24.4747C18.9109 23.6846 19.5338 23.1359 20.2266 23.1359H22.7039C23.3975 23.1358 24.0197 23.6852 24.0197 24.4747ZM24.6755 23.7932C24.3994 22.9687 23.6202 22.3726 22.704 22.3726H20.2266C19.3104 22.3726 18.5312 22.9687 18.2551 23.7932C17.7407 23.1164 17.4345 22.273 17.4345 21.3592C17.4345 19.1366 19.2427 17.3284 21.4653 17.3284C23.6879 17.3284 25.4961 19.1366 25.4961 21.3592C25.4961 22.273 25.1899 23.1164 24.6755 23.7932Z" fill="#003B34"/>
<path d="M6.321 4.73084C7.05019 4.0017 7.05024 2.82155 6.321 2.09241H6.32105C5.59196 1.36332 4.41175 1.36312 3.68261 2.09241C2.95337 2.8215 2.95332 4.0016 3.68251 4.73084C4.4116 5.45993 5.59181 5.46008 6.321 4.73084ZM4.22222 2.63201C4.65207 2.20216 5.35144 2.20216 5.78129 2.63201H5.78134C6.21216 3.06288 6.21221 3.76022 5.78129 4.19114C5.35149 4.62094 4.65212 4.62094 4.22217 4.19114C3.79135 3.76027 3.7913 3.06293 4.22222 2.63201Z" fill="#003B34"/>
<path d="M3.68256 21.1944C4.40982 21.9216 5.59354 21.9217 6.321 21.1944C7.04841 20.4669 7.04841 19.2832 6.321 18.5558H6.32095C5.59359 17.8285 4.40992 17.8285 3.68251 18.5558C2.9551 19.2832 2.9551 20.4669 3.68256 21.1944ZM4.22217 19.0955C4.65212 18.6657 5.35144 18.6657 5.78129 19.0955C6.21114 19.5253 6.21114 20.2248 5.78134 20.6547C5.35154 21.0846 4.65207 21.0846 4.22222 20.6547C3.79237 20.2248 3.79237 19.5253 4.22217 19.0955Z" fill="#003B34"/>
<path d="M20.146 2.09235C19.4187 2.81976 19.4187 4.00337 20.146 4.73078C20.8742 5.45895 22.0579 5.45748 22.7845 4.73078C23.5137 4.00164 23.5138 2.82149 22.7845 2.09235H22.7846C22.0571 1.36484 20.8735 1.36494 20.146 2.09235ZM22.2449 4.19113C21.8151 4.62098 21.1157 4.62103 20.6857 4.19113C20.2559 3.76128 20.2559 3.06185 20.6857 2.632C21.1155 2.20215 21.8151 2.20215 22.2449 2.632H22.2449C22.6757 3.06292 22.6758 3.76026 22.2449 4.19113Z" fill="#003B34"/>
<path d="M22.7845 18.5558C22.0572 17.8285 20.8734 17.8284 20.146 18.5559C19.4187 19.2833 19.4187 20.467 20.1461 21.1944C20.8735 21.9218 22.0571 21.9217 22.7846 21.1944C23.512 20.4669 23.512 19.2832 22.7845 18.5558ZM22.2449 20.6547C21.8151 21.0845 21.1157 21.0846 20.6857 20.6547C20.2559 20.2249 20.2559 19.5254 20.6857 19.0955C21.1156 18.6657 21.815 18.6657 22.2449 19.0955C22.6747 19.5253 22.6747 20.2248 22.2449 20.6547Z" fill="#003B34"/>
<path d="M15.6347 5.27727C15.8455 5.27727 16.0163 5.10641 16.0163 4.89565C16.0163 4.6849 15.8455 4.51404 15.6347 4.51404H10.8323C10.6215 4.51404 10.4507 4.6849 10.4507 4.89565C10.4507 5.10641 10.6215 5.27727 10.8323 5.27727H15.6347Z" fill="#003B34"/>
<path d="M10.8324 20.9776C10.6216 20.9776 10.4508 21.1484 10.4508 21.3592C10.4508 21.57 10.6216 21.7408 10.8324 21.7408H15.6347C15.8455 21.7408 16.0163 21.57 16.0163 21.3592C16.0163 21.1484 15.8455 20.9776 15.6347 20.9776H10.8324Z" fill="#003B34"/>
<path d="M5.38341 15.5286V10.7262C5.38341 10.5154 5.2126 10.3446 5.00179 10.3446C4.79099 10.3446 4.62018 10.5154 4.62018 10.7262V15.5286C4.62018 15.7394 4.79099 15.9102 5.00179 15.9102C5.2126 15.9102 5.38341 15.7394 5.38341 15.5286Z" fill="#003B34"/>
<path d="M21.8468 15.5286V10.7262C21.8468 10.5154 21.676 10.3446 21.4652 10.3446C21.2544 10.3446 21.0836 10.5154 21.0836 10.7262V15.5286C21.0836 15.7394 21.2544 15.9102 21.4652 15.9102C21.676 15.9102 21.8468 15.7394 21.8468 15.5286Z" fill="#003B34"/>
<path d="M25.4208 4.11785C25.4612 4.32469 25.662 4.45973 25.8686 4.41918C26.0754 4.37878 26.2103 4.1783 26.1699 3.97147C25.7317 1.72915 23.7531 0.101639 21.4653 0.101639C18.8219 0.101639 16.6712 2.25222 16.6712 4.89564C16.6712 7.55183 18.8306 9.68963 21.4653 9.68963C23.7292 9.68963 25.6817 8.09911 26.1523 5.90554C26.1965 5.69947 26.0653 5.49655 25.8592 5.45239C25.6534 5.40832 25.4503 5.53939 25.406 5.74547C25.2799 6.33366 25.0247 6.87006 24.675 7.32825C24.3985 6.50442 23.6197 5.90905 22.704 5.90905H20.2266C19.3104 5.90905 18.5312 6.50513 18.2551 7.32968C17.7406 6.65284 17.4345 5.80948 17.4345 4.89564C17.4345 2.67306 19.2427 0.864868 21.4653 0.864868C23.389 0.864868 25.0525 2.23293 25.4208 4.11785ZM20.2266 6.67228H22.704C23.4295 6.67228 24.0197 7.26251 24.0197 7.98804V8.00671C23.3161 8.58366 22.4204 8.92645 21.4653 8.92645C20.5658 8.92645 19.6574 8.62442 18.9109 8.01119C18.9109 7.22104 19.5338 6.67228 20.2266 6.67228Z" fill="#003B34"/>
<path d="M5.00176 26.1532C7.64737 26.1532 9.79581 24.0017 9.79581 21.3592C9.79581 19.0923 8.18631 17.1172 5.96882 16.6627C5.76265 16.6208 5.56065 16.7535 5.51832 16.96C5.47598 17.1665 5.60909 17.3681 5.81557 17.4105C7.67963 17.7925 9.03258 19.4532 9.03258 21.3592C9.03258 22.2729 8.72642 23.1163 8.21196 23.7932C7.93587 22.9687 7.15671 22.3726 6.24043 22.3726H3.76309C2.84686 22.3726 2.06765 22.9687 1.79157 23.7932C1.27715 23.1164 0.970993 22.273 0.970993 21.3592C0.970993 19.4531 2.32389 17.7924 4.18795 17.4105C4.39443 17.3682 4.52749 17.1665 4.48521 16.96C4.44292 16.7535 4.24128 16.6207 4.0347 16.6627C1.81721 17.1172 0.207764 19.0923 0.207764 21.3592C0.207764 23.9978 2.35035 26.1532 5.00176 26.1532ZM3.76309 23.1358H6.24043C6.93395 23.1358 7.55619 23.6851 7.55619 24.4747C6.07858 25.6883 3.94123 25.7017 2.44738 24.4747C2.44738 23.6845 3.07033 23.1358 3.76309 23.1358Z" fill="#003B34"/>
</mask>

<g mask="url(#personAssessment)">
<rect width="27" height="27" />
</g>
</svg>