<svg width="27" height="24" viewBox="0 0 27 24" fill="none" xmlns="http://www.w3.org/2000/svg">
<mask id="registrationVT" mask-type="alpha" maskUnits="userSpaceOnUse" x="0" y="0" width="27" height="27">
<path d="M25.8704 3.22316H22.0712V2.3789C22.0712 2.26694 22.0267 2.15957 21.9476 2.08041C21.8684 2.00124 21.761 1.95677 21.6491 1.95677H20.3278C20.2333 1.59543 20.0218 1.27559 19.7262 1.04732C19.4306 0.819046 19.0676 0.695221 18.6941 0.695221C18.3207 0.695221 17.9577 0.819046 17.6621 1.04732C17.3665 1.27559 17.1549 1.59543 17.0605 1.95677H15.7392C15.6273 1.95677 15.5199 2.00124 15.4407 2.08041C15.3616 2.15957 15.3171 2.26694 15.3171 2.3789V3.22316H11.5179C11.4059 3.22316 11.2986 3.26764 11.2194 3.3468C11.1402 3.42597 11.0958 3.53334 11.0958 3.6453V6.17809H7.03908C6.5369 6.17781 6.05107 6.35659 5.66886 6.68232C5.28664 7.00805 5.03309 7.45939 4.95375 7.95526L4.39653 12.0879H4.20657L3.46784 10.2432C3.43656 10.1647 3.38242 10.0973 3.31242 10.0499C3.24243 10.0025 3.15981 9.97719 3.07526 9.97728H1.38673C1.27478 9.97728 1.16741 10.0217 1.08824 10.1009C1.00908 10.1801 0.964601 10.2875 0.964601 10.3994V12.0879C0.964312 12.1884 0.999858 12.2857 1.06485 12.3623C1.12985 12.4389 1.22003 12.4898 1.31919 12.5058L1.74132 12.5734C1.49998 12.7702 1.30517 13.018 1.17089 13.299C1.0366 13.58 0.966152 13.8872 0.964601 14.1986V19.6863C0.964601 19.7983 1.00908 19.9056 1.08824 19.9848C1.16741 20.064 1.27478 20.1084 1.38673 20.1084H1.80887V22.6412C1.80953 22.8649 1.8987 23.0793 2.05688 23.2375C2.21507 23.3957 2.42942 23.4848 2.65313 23.4855H6.03018C6.25389 23.4848 6.46825 23.3957 6.62643 23.2375C6.78462 23.0793 6.87378 22.8649 6.87445 22.6412V20.1084H20.3827V22.6412C20.3833 22.8649 20.4725 23.0793 20.6307 23.2375C20.7889 23.3957 21.0032 23.4848 21.2269 23.4855H24.604C24.8277 23.4848 25.042 23.3957 25.2002 23.2375C25.3584 23.0793 25.4476 22.8649 25.4483 22.6412V20.1084H25.8704C25.9823 20.1084 26.0897 20.064 26.1689 19.9848C26.248 19.9056 26.2925 19.7983 26.2925 19.6863V3.6453C26.2925 3.53334 26.248 3.42597 26.1689 3.3468C26.0897 3.26764 25.9823 3.22316 25.8704 3.22316ZM1.80887 10.8215H2.78821L3.24834 11.9697L1.80887 11.7291V10.8215ZM1.80887 15.465H2.65313V17.5757H1.80887V15.465ZM6.03018 22.6412H5.60805V21.797H4.76379V22.6412H2.65313V20.1084H3.07526V20.9527H3.91952V20.1084H6.03018V22.6412ZM11.0958 19.2642H1.80887V18.4199H11.0958V19.2642ZM3.49739 17.5757V15.465H7.71871V17.5757H3.49739ZM11.0958 17.5757H8.56298V15.465H11.0958V17.5757ZM11.0958 14.6207H1.80887V14.1986C1.80987 13.863 1.94361 13.5415 2.18089 13.3042C2.41817 13.0669 2.7397 12.9332 3.07526 12.9322H11.0958V14.6207ZM11.0958 12.0879H5.24502L5.78957 8.0819C5.83761 7.78546 5.98984 7.51588 6.21889 7.32166C6.44794 7.12743 6.73877 7.0213 7.03908 7.02235H11.0958V12.0879ZM16.1614 2.80103H17.4277C17.5397 2.80103 17.6471 2.75656 17.7262 2.67739C17.8054 2.59823 17.8499 2.49086 17.8499 2.3789C17.8499 2.15499 17.9388 1.94025 18.0972 1.78192C18.2555 1.62359 18.4702 1.53464 18.6941 1.53464C18.9181 1.53464 19.1328 1.62359 19.2911 1.78192C19.4495 1.94025 19.5384 2.15499 19.5384 2.3789C19.5384 2.49086 19.5829 2.59823 19.662 2.67739C19.7412 2.75656 19.8486 2.80103 19.9605 2.80103H21.2269V4.91169H16.1614V2.80103ZM15.7392 5.75596H21.6491C21.761 5.75596 21.8684 5.71148 21.9476 5.63232C22.0267 5.55315 22.0712 5.44578 22.0712 5.33382H24.1819V17.9978H13.2064V5.33382H15.3171C15.3171 5.44578 15.3616 5.55315 15.4407 5.63232C15.5199 5.71148 15.6273 5.75596 15.7392 5.75596ZM24.604 22.6412H22.4933V21.797H21.6491V22.6412H21.2269V20.1084H23.3376V20.9527H24.1819V20.1084H24.604V22.6412ZM25.4483 19.2642H11.94V4.06743H15.3171V4.48956H12.7843C12.6723 4.48956 12.565 4.53403 12.4858 4.6132C12.4066 4.69236 12.3622 4.79974 12.3622 4.91169V18.4199C12.3622 18.5319 12.4066 18.6392 12.4858 18.7184C12.565 18.7976 12.6723 18.842 12.7843 18.842H24.604C24.7159 18.842 24.8233 18.7976 24.9025 18.7184C24.9816 18.6392 25.0261 18.5319 25.0261 18.4199V4.91169C25.0261 4.79974 24.9816 4.69236 24.9025 4.6132C24.8233 4.53403 24.7159 4.48956 24.604 4.48956H22.0712V4.06743H25.4483V19.2642Z" fill="#003B34"/>
</mask>

<g mask="url(#registrationVT)">
<rect width="27" height="27" />
</g>
</svg>
