<svg width="28" height="28" viewBox="0 0 28 28" fill="none" xmlns="http://www.w3.org/2000/svg">
<mask id="roadObj" mask-type="alpha" maskUnits="userSpaceOnUse" x="0" y="0" width="28" height="28">
<g clip-path="url(#clip0)">
<path d="M13.9626 10.479C12.2169 10.479 10.7966 11.8993 10.7966 13.645C10.7966 15.3798 12.2014 16.811 13.9626 16.811C15.7061 16.811 17.1286 15.3955 17.1286 13.645C17.1286 11.8993 15.7083 10.479 13.9626 10.479ZM13.9626 15.7557C13.2034 15.7557 12.5104 15.3476 12.1358 14.7C12.5108 14.0527 13.2037 13.645 13.9626 13.645C14.7215 13.645 15.4145 14.0527 15.7894 14.7C15.4149 15.3476 14.7219 15.7557 13.9626 15.7557ZM13.9626 12.5897C13.1765 12.5897 12.4367 12.8807 11.8691 13.3805C11.9998 12.3412 12.8885 11.5343 13.9626 11.5343C15.0368 11.5343 15.9255 12.3412 16.0561 13.3805C15.4885 12.8807 14.7488 12.5897 13.9626 12.5897Z" fill="#003B34"/>
<path d="M13.9626 18.7106C12.2169 18.7106 10.7966 20.1308 10.7966 21.8766C10.7966 23.6114 12.2014 25.0426 13.9626 25.0426C15.7061 25.0426 17.1286 23.6271 17.1286 21.8766C17.1286 20.1308 15.7083 18.7106 13.9626 18.7106ZM13.9626 23.9872C13.2034 23.9872 12.5104 23.5792 12.1358 22.9316C12.5108 22.2843 13.2037 21.8766 13.9626 21.8766C14.7215 21.8766 15.4145 22.2843 15.7894 22.9315C15.4149 23.5792 14.7219 23.9872 13.9626 23.9872ZM13.9626 20.8212C13.1765 20.8212 12.4367 21.1123 11.8691 21.6121C11.9998 20.5728 12.8885 19.7659 13.9626 19.7659C15.0368 19.7659 15.9255 20.5728 16.0561 21.6121C15.4885 21.1123 14.7488 20.8212 13.9626 20.8212Z" fill="#003B34"/>
<path d="M13.9626 2.24744C12.2169 2.24744 10.7966 3.6677 10.7966 5.41343C10.7966 7.14823 12.2014 8.57942 13.9626 8.57942C15.7061 8.57942 17.1286 7.16395 17.1286 5.41343C17.1286 3.6677 15.7083 2.24744 13.9626 2.24744ZM13.9626 7.52409C13.2034 7.52409 12.5104 7.11604 12.1358 6.46844C12.5108 5.82115 13.2037 5.41343 13.9626 5.41343C14.7215 5.41343 15.4145 5.82115 15.7894 6.46839C15.4149 7.11604 14.7219 7.52409 13.9626 7.52409ZM13.9626 4.3581C13.1765 4.3581 12.4367 4.64916 11.8691 5.14896C11.9998 4.10962 12.8885 3.30277 13.9626 3.30277C15.0368 3.30277 15.9255 4.10962 16.0561 5.14896C15.4885 4.64916 14.7488 4.3581 13.9626 4.3581Z" fill="#003B34"/>
<path d="M23.4606 11.0067C23.4606 10.7153 23.2243 10.479 22.9329 10.479H20.2946V6.43112C22.068 6.1789 23.4606 4.65426 23.4606 2.77509C23.4606 2.48371 23.2243 2.24742 22.9329 2.24742H20.2946V1.71976C20.2946 0.846896 19.5845 0.136765 18.7116 0.136765H9.21364C8.34078 0.136765 7.63065 0.846896 7.63065 1.71976V2.24742H4.99233C4.70095 2.24742 4.46466 2.48371 4.46466 2.77509C4.46466 4.63258 5.84313 6.17357 7.63065 6.43044V10.479H4.99233C4.70095 10.479 4.46466 10.7153 4.46466 11.0067C4.46466 12.8641 5.84313 14.4051 7.63065 14.662V18.7106H4.99233C4.70095 18.7106 4.46466 18.9469 4.46466 19.2382C4.46466 21.0957 5.84313 22.6367 7.63065 22.8936V25.5702C7.63065 26.4431 8.34078 27.1532 9.21364 27.1532H18.7116C19.5845 27.1532 20.2946 26.4431 20.2946 25.5702V22.8943C22.068 22.642 23.4606 21.1174 23.4606 19.2382C23.4606 18.9469 23.2243 18.7106 22.9329 18.7106H20.2946V14.6627C22.068 14.4105 23.4606 12.8858 23.4606 11.0067ZM20.2946 3.29748H22.3528C22.1421 4.34067 21.3256 5.15269 20.2946 5.36096V3.29748ZM20.2946 11.529H22.3528C22.1421 12.5722 21.3256 13.3843 20.2946 13.5925V11.529ZM7.63065 21.8235C6.59843 21.6131 5.7834 20.7981 5.57302 19.7659H7.63065V21.8235ZM7.63065 13.592C6.59843 13.3816 5.7834 12.5665 5.57302 11.5343H7.63065V13.592ZM7.63065 5.36038C6.59843 5.15 5.7834 4.33497 5.57302 3.30275H7.63065V5.36038ZM19.2393 25.5702C19.2393 25.8612 19.0026 26.0979 18.7116 26.0979H9.21364C8.92269 26.0979 8.68598 25.8612 8.68598 25.5702C8.68598 22.1642 8.68598 5.19549 8.68598 1.71976C8.68598 1.4288 8.92269 1.19209 9.21364 1.19209H18.7116C19.0026 1.19209 19.2393 1.4288 19.2393 1.71976C19.2393 6.74371 19.2393 20.6021 19.2393 25.5702ZM22.3528 19.7606C22.1421 20.8038 21.3256 21.6158 20.2946 21.8241V19.7606H22.3528Z" fill="#003B34"/>
</g>
</mask>

<defs>
<clipPath id="clip0">
<rect width="27.0164" height="27.0164" fill="white" transform="translate(0.454407 0.13678)"/>
</clipPath>
</defs>

<g mask="url(#roadObj)">
<rect width="28" height="28" />
</g>
</svg>
