<svg width="26" height="26" viewBox="0 0 26 26" fill="none" xmlns="http://www.w3.org/2000/svg">
<mask id="specialProduct" mask-type="alpha" maskUnits="userSpaceOnUse" x="0" y="0" width="26" height="26">
<g clip-path="url(#clip0)">
<path d="M9.78921 15.9003C7.48 15.9003 5.60809 17.7722 5.60809 20.0814C5.60809 22.3906 7.48 24.2625 9.78921 24.2625C12.0984 24.2625 13.9703 22.3906 13.9703 20.0814C13.9679 17.7732 12.0974 15.9027 9.78921 15.9003ZM9.78921 23.4263C7.9418 23.4263 6.44432 21.9288 6.44432 20.0814C6.44432 18.234 7.9418 16.7365 9.78921 16.7365C11.6366 16.7365 13.1341 18.234 13.1341 20.0814C13.1321 21.9278 11.6356 23.4243 9.78921 23.4263Z" fill="#003B34"/>
<path d="M9.78921 18.8271C10.2998 18.8271 10.6254 19.0745 10.6254 19.2452H11.4617C11.4617 18.6511 10.9353 18.1699 10.2073 18.0327V17.5727H9.37109V18.0327C8.64307 18.1689 8.11676 18.6503 8.11676 19.2452C8.11676 19.9489 8.85131 20.4995 9.78921 20.4995C10.2998 20.4995 10.6254 20.747 10.6254 20.9176C10.6254 21.0883 10.2998 21.3357 9.78921 21.3357C9.27861 21.3357 8.95298 21.0883 8.95298 20.9176H8.11676C8.11676 21.5117 8.64307 21.9929 9.37109 22.1301V22.5901H10.2073V22.1301C10.9353 21.9939 11.4617 21.5125 11.4617 20.9176C11.4617 20.2139 10.7271 19.6633 9.78921 19.6633C9.27861 19.6633 8.95298 19.4159 8.95298 19.2452C8.95298 19.0745 9.27861 18.8271 9.78921 18.8271Z" fill="#003B34"/>
<path d="M21.4963 25.0987H3.93561V15.0641H10.6254C11.3181 15.0641 11.8797 14.5024 11.8797 13.8097V3.35694H16.479V8.37428H21.4963V14.2278H22.3325V7.78304L17.0702 2.52071H11.8797V2.1026C11.8797 1.4099 11.3181 0.848267 10.6254 0.848267H1.42694C0.734241 0.848267 0.172607 1.4099 0.172607 2.1026V13.8097C0.172607 14.5024 0.734241 15.0641 1.42694 15.0641H3.09939V25.935H22.3325V20.0814H21.4963V25.0987ZM17.3152 3.94817L20.9051 7.53805H17.3152V3.94817ZM1.00883 13.8097V2.1026C1.00883 1.8717 1.19604 1.68449 1.42694 1.68449H10.6254C10.8563 1.68449 11.0435 1.8717 11.0435 2.1026V13.8097C11.0435 14.0406 10.8563 14.2278 10.6254 14.2278H1.42694C1.19604 14.2278 1.00883 14.0406 1.00883 13.8097Z" fill="#003B34"/>
<path d="M13.5522 11.3011H14.3884V12.1373H13.5522V11.3011Z" fill="#003B34"/>
<path d="M15.2247 11.3011H20.242V12.1373H15.2247V11.3011Z" fill="#003B34"/>
<path d="M13.5522 9.62862H14.3884V10.4648H13.5522V9.62862Z" fill="#003B34"/>
<path d="M15.2247 9.62862H20.242V10.4648H15.2247V9.62862Z" fill="#003B34"/>
<path d="M13.5522 12.9735H14.3884V13.8097H13.5522V12.9735Z" fill="#003B34"/>
<path d="M15.2247 12.9735H20.242V13.8097H15.2247V12.9735Z" fill="#003B34"/>
<path d="M13.5522 14.646H14.3884V15.4822H13.5522V14.646Z" fill="#003B34"/>
<path d="M15.2247 14.646H20.242V15.4822H15.2247V14.646Z" fill="#003B34"/>
<path d="M10.6254 2.10261H1.42697V5.02939H10.6254V2.10261ZM9.7892 4.19317H2.26319V2.93883H9.7892V4.19317Z" fill="#003B34"/>
<path d="M3.51754 5.44751H2.68132C2.21951 5.44751 1.84509 5.82193 1.84509 6.28373V7.11995C1.84509 7.58175 2.21951 7.95618 2.68132 7.95618H3.51754C3.97934 7.95618 4.35376 7.58175 4.35376 7.11995V6.28373C4.35376 5.82193 3.97934 5.44751 3.51754 5.44751ZM2.68132 7.11995V6.28373H3.51754V7.11995H2.68132Z" fill="#003B34"/>
<path d="M6.44433 5.44751H5.6081C5.1463 5.44751 4.77188 5.82193 4.77188 6.28373V7.11995C4.77188 7.58175 5.1463 7.95618 5.6081 7.95618H6.44433C6.90613 7.95618 7.28055 7.58175 7.28055 7.11995V6.28373C7.28055 5.82193 6.90613 5.44751 6.44433 5.44751ZM5.6081 7.11995V6.28373H6.44433V7.11995H5.6081Z" fill="#003B34"/>
<path d="M9.37109 5.44751H8.53486C8.07306 5.44751 7.69864 5.82193 7.69864 6.28373V7.11995C7.69864 7.58175 8.07306 7.95618 8.53486 7.95618H9.37109C9.83289 7.95618 10.2073 7.58175 10.2073 7.11995V6.28373C10.2073 5.82193 9.83289 5.44751 9.37109 5.44751ZM8.53486 7.11995V6.28373H9.37109V7.11995H8.53486Z" fill="#003B34"/>
<path d="M3.51754 8.37429H2.68132C2.21951 8.37429 1.84509 8.74871 1.84509 9.21051V10.0467C1.84509 10.5085 2.21951 10.883 2.68132 10.883H3.51754C3.97934 10.883 4.35376 10.5085 4.35376 10.0467V9.21051C4.35376 8.74871 3.97934 8.37429 3.51754 8.37429ZM2.68132 10.0467V9.21051H3.51754V10.0467H2.68132Z" fill="#003B34"/>
<path d="M6.44433 8.37429H5.6081C5.1463 8.37429 4.77188 8.74871 4.77188 9.21051V10.0467C4.77188 10.5085 5.1463 10.883 5.6081 10.883H6.44433C6.90613 10.883 7.28055 10.5085 7.28055 10.0467V9.21051C7.28055 8.74871 6.90613 8.37429 6.44433 8.37429ZM5.6081 10.0467V9.21051H6.44433V10.0467H5.6081Z" fill="#003B34"/>
<path d="M9.37109 8.37429H8.53486C8.07306 8.37429 7.69864 8.74871 7.69864 9.21051V10.0467C7.69864 10.5085 8.07306 10.883 8.53486 10.883H9.37109C9.83289 10.883 10.2073 10.5085 10.2073 10.0467V9.21051C10.2073 8.74871 9.83289 8.37429 9.37109 8.37429ZM8.53486 10.0467V9.21051H9.37109V10.0467H8.53486Z" fill="#003B34"/>
<path d="M3.51754 11.3011H2.68132C2.21951 11.3011 1.84509 11.6755 1.84509 12.1373V12.9735C1.84509 13.4353 2.21951 13.8097 2.68132 13.8097H3.51754C3.97934 13.8097 4.35376 13.4353 4.35376 12.9735V12.1373C4.35376 11.6755 3.97934 11.3011 3.51754 11.3011ZM2.68132 12.9735V12.1373H3.51754V12.9735H2.68132Z" fill="#003B34"/>
<path d="M6.44433 11.3011H5.6081C5.1463 11.3011 4.77188 11.6755 4.77188 12.1373V12.9735C4.77188 13.4353 5.1463 13.8097 5.6081 13.8097H6.44433C6.90613 13.8097 7.28055 13.4353 7.28055 12.9735V12.1373C7.28055 11.6755 6.90613 11.3011 6.44433 11.3011ZM5.6081 12.9735V12.1373H6.44433V12.9735H5.6081Z" fill="#003B34"/>
<path d="M9.37109 11.3011H8.53486C8.07306 11.3011 7.69864 11.6755 7.69864 12.1373V12.9735C7.69864 13.4353 8.07306 13.8097 8.53486 13.8097H9.37109C9.83289 13.8097 10.2073 13.4353 10.2073 12.9735V12.1373C10.2073 11.6755 9.83289 11.3011 9.37109 11.3011ZM8.53486 12.9735V12.1373H9.37109V12.9735H8.53486Z" fill="#003B34"/>
<path d="M24.8796 14.1895C24.3833 13.7156 23.6024 13.7156 23.1061 14.1895L15.9384 21.357C15.9037 21.3921 15.8753 21.4329 15.8547 21.4778L14.8454 23.6697C14.7725 23.8285 14.8062 24.0161 14.9299 24.1396C15.0534 24.2633 15.241 24.297 15.3998 24.2241L17.5917 23.2148C17.6366 23.1942 17.6774 23.166 17.7125 23.1311L24.8796 15.9634C25.3696 15.4736 25.3696 14.6792 24.8796 14.1895ZM17.1736 22.4864L16.078 22.991L16.5827 21.8955L21.9269 16.5509L22.5182 17.1422L17.1736 22.4864ZM23.1106 16.5491L22.5194 15.9581L22.8121 15.6653L23.4034 16.2566L23.1106 16.5491ZM24.2898 15.3701L23.9942 15.6657L23.403 15.0745L23.699 14.7789C23.8642 14.6209 24.1245 14.6209 24.2898 14.7789C24.4529 14.9422 24.4529 15.2068 24.2898 15.3701Z" fill="#003B34"/>
</g>
</mask>

<defs>
<clipPath id="clip0">
<rect width="25.0867" height="25.0867" fill="white" transform="translate(0.172607 0.848267)"/>
</clipPath>
</defs>

<g mask="url(#specialProduct)">
<rect width="26" height="26" />
</g>
</svg>
