<svg width="26" height="26" viewBox="0 0 26 26" fill="none" xmlns="http://www.w3.org/2000/svg">
<mask id="staff" mask-type="alpha" maskUnits="userSpaceOnUse" x="0" y="0" width="26" height="26">
<g clip-path="url(#clip0)">
<path d="M17.9832 3.09259H14.7983V0.839089C14.7983 0.433329 14.4697 0.104318 14.0639 0.104127L11.1725 0.101639C10.7664 0.101639 10.4375 0.431415 10.4375 0.836601V3.09259H7.20371C5.71771 3.09259 4.50885 4.30145 4.50885 5.78726V22.4937C4.50885 23.9795 5.71771 25.1883 7.20371 25.1883H17.9832C19.4692 25.1883 20.678 23.9795 20.678 22.4937V5.78726C20.678 4.30145 19.4692 3.09259 17.9832 3.09259ZM11.9075 1.57214L13.3284 1.57328V4.56232H11.9075V1.57214ZM19.2081 22.4937C19.2081 23.1689 18.6586 23.7184 17.9832 23.7184H7.20371C6.52827 23.7184 5.97877 23.1689 5.97877 22.4937V5.78726C5.97877 5.11201 6.52827 4.56251 7.20371 4.56251H10.4375V5.29728C10.4375 5.70323 10.7666 6.03224 11.1725 6.03224H14.0634C14.4693 6.03224 14.7983 5.70323 14.7983 5.29728V4.56251H17.9832C18.6586 4.56251 19.2081 5.11182 19.2081 5.78726V22.4937Z" fill="#003B34"/>
<path d="M17.0032 17.7903H8.18365C7.77769 17.7903 7.44868 18.1193 7.44868 18.5253C7.44868 18.9312 7.77769 19.2602 8.18365 19.2602H17.0032C17.4091 19.2602 17.7381 18.9312 17.7381 18.5253C17.7381 18.1193 17.4091 17.7903 17.0032 17.7903Z" fill="#003B34"/>
<path d="M11.1235 20.7299H8.18365C7.77769 20.7299 7.44868 21.059 7.44868 21.4649C7.44868 21.8707 7.77769 22.1999 8.18365 22.1999H11.1235C11.5294 22.1999 11.8585 21.8707 11.8585 21.4649C11.8585 21.059 11.5294 20.7299 11.1235 20.7299Z" fill="#003B34"/>
<path d="M17.0032 20.7299H14.0633C13.6574 20.7299 13.3284 21.059 13.3284 21.4649C13.3284 21.8707 13.6574 22.1999 14.0633 22.1999H17.0032C17.4091 22.1999 17.7382 21.8707 17.7382 21.4649C17.7382 21.059 17.4091 20.7299 17.0032 20.7299Z" fill="#003B34"/>
<path d="M9.65357 16.3208H15.5333C15.9392 16.3208 16.2682 15.9916 16.2682 15.5858V14.1159C16.2682 12.7629 15.5392 11.573 14.4262 10.9306C15.4016 9.47527 14.3548 7.50179 12.5934 7.50179C10.831 7.50179 9.78123 9.4791 10.7644 10.9364C9.61089 11.6124 8.91861 12.8603 8.91861 14.1647V15.5858C8.91861 15.9916 9.24762 16.3208 9.65357 16.3208ZM12.5934 8.97171C12.9986 8.97171 13.3284 9.30148 13.3284 9.70667C13.3284 10.1119 12.9986 10.4414 12.5934 10.4414C12.1882 10.4414 11.8585 10.1119 11.8585 9.70667C11.8585 9.30148 12.1882 8.97171 12.5934 8.97171ZM10.3885 14.1647C10.3885 12.9164 11.3978 11.8874 12.6386 11.9117C13.8295 11.9357 14.7983 12.9244 14.7983 14.1159V14.8508H10.3885V14.1647Z" fill="#003B34"/>
</g>
</mask>

<defs>
<clipPath id="clip0">
<rect width="25.0867" height="25.0867" fill="white" transform="translate(0.0500488 0.101624)"/>
</clipPath>
</defs>

<g mask="url(#staff)">
<rect width="26" height="26" />
</g>
</svg>
