<svg width="28" height="28" viewBox="0 0 28 28" fill="none" xmlns="http://www.w3.org/2000/svg">
<mask id="traffic" mask-type="alpha" maskUnits="userSpaceOnUse" x="0" y="0" width="28" height="28">
<g clip-path="url(#clip0)">
<path d="M27.0206 14.6751H26.3367L26.877 13.3243H27.0206C27.2693 13.3243 27.4709 13.1227 27.4709 12.874C27.4709 12.6254 27.2693 12.4238 27.0206 12.4238H26.5704C26.3862 12.4236 26.2205 12.5356 26.152 12.7065L25.2515 14.9579C25.159 15.1887 25.2711 15.4509 25.502 15.5434C25.5553 15.5648 25.6123 15.5758 25.6698 15.5757H27.0206C27.2693 15.5757 27.4709 15.3741 27.4709 15.1254C27.4709 14.8768 27.2693 14.6751 27.0206 14.6751Z" fill="#003B34"/>
<path d="M8.55934 18.2773C7.56462 18.2773 6.75824 19.0837 6.75824 20.0784C6.75824 21.0731 7.56462 21.8795 8.55934 21.8795C9.55405 21.8795 10.3604 21.0731 10.3604 20.0784C10.3604 19.0837 9.55405 18.2773 8.55934 18.2773ZM8.55934 20.979C8.06195 20.979 7.65879 20.5758 7.65879 20.0784C7.65879 19.581 8.06195 19.1779 8.55934 19.1779C9.05672 19.1779 9.45988 19.581 9.45988 20.0784C9.45988 20.5758 9.05672 20.979 8.55934 20.979Z" fill="#003B34"/>
<path d="M16.214 20.0784C16.2238 19.4996 15.8605 18.98 15.3134 18.7906V11.5232C15.3134 11.4038 15.2659 11.2893 15.1815 11.2049L14.385 10.4083L13.507 4.70067C13.4732 4.48105 13.2843 4.31895 13.0621 4.31883H4.95715V2.96801C4.95715 2.71935 4.75554 2.51774 4.50687 2.51774H0.904681C0.656017 2.51774 0.454407 2.71935 0.454407 2.96801C0.454407 3.21668 0.656017 3.41829 0.904681 3.41829H4.0566V16.4762H0.904681C0.656017 16.4762 0.454407 16.6778 0.454407 16.9265C0.454407 17.1752 0.656017 17.3768 0.904681 17.3768H4.50687C4.75554 17.3768 4.95715 17.1752 4.95715 16.9265V5.21938H12.6775L13.5196 10.6911C13.5341 10.7857 13.5784 10.8733 13.6461 10.941L14.4129 11.7096V18.7276H11.8981C11.1645 16.8816 9.07333 15.9798 7.22726 16.7134C5.69531 17.3222 4.77332 18.8945 4.99002 20.5287H0.904681C0.656017 20.5287 0.454407 20.7303 0.454407 20.979C0.454407 21.2276 0.656017 21.4292 0.904681 21.4292H5.22236C5.96627 23.2722 8.06336 24.1631 9.90633 23.4192C10.8123 23.0536 11.5306 22.3352 11.8963 21.4292H14.9532C15.6736 21.4026 16.237 20.7989 16.214 20.0784ZM8.55934 22.7801C7.06724 22.7801 5.8577 21.5705 5.8577 20.0784C5.85916 18.5869 7.06786 17.3782 8.55934 17.3768C10.0514 17.3768 11.261 18.5863 11.261 20.0784C11.261 21.5705 10.0514 22.7801 8.55934 22.7801ZM15.3022 20.1797C15.2631 20.3537 15.1272 20.4896 14.9532 20.5287H12.1615V19.6282H14.9532C15.2019 19.6841 15.3581 19.931 15.3022 20.1797Z" fill="#003B34"/>
<path d="M27.0206 20.5287H26.5298C26.2826 19.059 24.8908 18.068 23.4211 18.3152C22.2869 18.5059 21.3983 19.3945 21.2075 20.5287H20.2665V19.1779C20.2665 18.9292 20.0648 18.7276 19.8162 18.7276H18.9156V15.9868L23.4607 15.5757C23.6234 15.561 23.7654 15.4594 23.8317 15.31L25.5139 11.5232H27.0206C27.2692 11.5232 27.4708 11.3216 27.4708 11.073C27.4708 10.8243 27.2692 10.6227 27.0206 10.6227H25.2195C25.0415 10.6227 24.8802 10.7275 24.8079 10.8901L23.1144 14.7008L18.4266 15.1254C18.1932 15.1456 18.0142 15.3414 18.0151 15.5757V18.7753C17.4609 18.9642 17.0953 19.4932 17.1145 20.0784C17.0763 20.7818 17.612 21.3846 18.315 21.4293H21.2075C21.4547 22.8989 22.8465 23.89 24.3162 23.6428C25.4504 23.4521 26.339 22.5634 26.5298 21.4293H27.0206C27.2692 21.4293 27.4708 21.2276 27.4708 20.979C27.4708 20.7303 27.2692 20.5287 27.0206 20.5287ZM19.3659 20.5287H18.3168C18.1749 20.5287 18.0169 20.3436 18.0169 20.0784C18.0169 19.8132 18.1749 19.6282 18.3168 19.6282H19.3659V20.5287ZM23.8686 22.7801C22.8739 22.7801 22.0676 21.9737 22.0676 20.979C22.0676 19.9843 22.8739 19.1779 23.8686 19.1779C24.8634 19.1779 25.6697 19.9843 25.6697 20.979C25.6697 21.9737 24.8634 22.7801 23.8686 22.7801Z" fill="#003B34"/>
<path d="M12.1615 10.5732L11.7113 6.52069C11.6859 6.29155 11.4915 6.11854 11.261 6.11994H6.75826C6.50959 6.11994 6.30798 6.32155 6.30798 6.57022V10.6227C6.30798 10.8713 6.50959 11.073 6.75826 11.073H11.7113C11.9599 11.0745 12.1628 10.8741 12.1642 10.6254C12.1644 10.6079 12.1635 10.5905 12.1615 10.5732ZM7.20853 10.1724V7.02049H10.858L11.2083 10.1724H7.20853Z" fill="#003B34"/>
<path d="M13.0621 15.5757C12.8134 15.5757 12.6118 15.7773 12.6118 16.026V17.3768C12.6118 17.6255 12.8134 17.8271 13.0621 17.8271C13.3108 17.8271 13.5124 17.6255 13.5124 17.3768V16.026C13.5124 15.7773 13.3108 15.5757 13.0621 15.5757Z" fill="#003B34"/>
<path d="M20.588 24.2628L19.2358 22.912C19.0605 22.7356 18.7754 22.7347 18.599 22.91C18.5832 22.9256 18.5687 22.9424 18.5554 22.9602L17.6418 24.1759L16.6193 22.1285C16.5081 21.9061 16.2377 21.8158 16.0153 21.9269C15.9822 21.9434 15.9512 21.964 15.9231 21.9881L13.5124 24.0526V22.7801C13.5124 22.5314 13.3108 22.3298 13.0621 22.3298C12.8134 22.3298 12.6118 22.5314 12.6118 22.7801V25.0315C12.6118 25.2801 12.8134 25.4817 13.0621 25.4817C13.1696 25.4817 13.2736 25.4432 13.3552 25.3732L16.069 23.0471L17.1618 25.2327C17.2719 25.4557 17.5419 25.5473 17.7649 25.4372C17.8291 25.4056 17.8847 25.3591 17.9273 25.3016L18.9665 23.9157L19.9513 24.8995C20.1301 25.0723 20.4152 25.0674 20.588 24.8885C20.7565 24.714 20.7565 24.4373 20.588 24.2628Z" fill="#003B34"/>
<path d="M22.1267 9.27545C22.0009 9.2598 21.8744 9.29785 21.7781 9.38036L19.0917 11.6831L17.9822 9.09444C17.8842 8.86587 17.6195 8.76011 17.3909 8.8581C17.2617 8.91349 17.1658 9.02605 17.1317 9.16243L16.2311 12.7646C16.1706 13.0053 16.3162 13.2496 16.5567 13.3108C16.7979 13.3712 17.0424 13.2247 17.1029 12.9835L17.6792 10.6781L18.5037 12.6012C18.6017 12.8297 18.8664 12.9356 19.0949 12.8375C19.1369 12.8195 19.1759 12.7952 19.2106 12.7655L21.4782 10.8217L21.1724 13.2685C21.1416 13.5152 21.3166 13.7401 21.5633 13.771C21.5819 13.7735 21.6008 13.7747 21.6196 13.7746C21.8471 13.7752 22.0394 13.606 22.0676 13.3802L22.5179 9.77796C22.5486 9.53115 22.3735 9.30618 22.1267 9.27545Z" fill="#003B34"/>
</g>
</mask>

<defs>
<clipPath id="clip0">
<rect width="27.0164" height="27.0164" fill="white" transform="translate(0.454407 0.492554)"/>
</clipPath>
</defs>

<g mask="url(#traffic)">
<rect width="28" height="28" />
</g>
</svg>
