<svg width="29" height="29" viewBox="0 0 29 29" fill="none" xmlns="http://www.w3.org/2000/svg">
<mask id="inspection" mask-type="alpha" maskUnits="userSpaceOnUse" x="0" y="0" width="29" height="29">
<path d="M19.293 18.5272H9.17311C8.75092 18.5267 8.37382 18.7911 8.23015 19.1881C8.08649 19.5851 8.20715 20.0295 8.53185 20.2993L10.0433 21.5585C10.2235 21.709 10.4507 21.7916 10.6855 21.7917H17.7806C18.0153 21.7916 18.2424 21.709 18.4223 21.5585L19.9343 20.2993C20.259 20.0295 20.3796 19.5851 20.236 19.1881C20.0923 18.7911 19.7152 18.5267 19.293 18.5272ZM19.3396 19.583L17.8277 20.8422C17.8146 20.8529 17.798 20.8585 17.7811 20.858H10.6864C10.6694 20.8585 10.6528 20.8527 10.6398 20.8417L9.12785 19.5825C9.10288 19.5653 9.09398 19.5326 9.10687 19.5051C9.11413 19.4755 9.14185 19.4558 9.17214 19.4585H19.292C19.3223 19.4558 19.3501 19.4755 19.3573 19.5051C19.3706 19.5324 19.3621 19.5655 19.3373 19.583H19.3396V19.583Z" fill="#003B34"/>
<path d="M22.6415 18.7604L21.1249 20.0195C20.799 20.2889 20.6776 20.7339 20.8214 21.1314C20.9653 21.5289 21.3434 21.7932 21.7661 21.7917H25.4261C25.9412 21.7917 26.3588 21.3741 26.3588 20.8589V19.4599C26.3588 18.9448 25.9412 18.5272 25.4261 18.5272H23.2831C23.0486 18.5278 22.8217 18.6103 22.6415 18.7604ZM25.4261 19.4599V20.8589H21.7661C21.7357 20.8619 21.7077 20.842 21.7004 20.8123C21.6876 20.7855 21.6965 20.7535 21.7213 20.7372L23.2384 19.4753C23.2513 19.4642 23.268 19.4584 23.285 19.4589L25.4261 19.4599Z" fill="#003B34"/>
<path d="M5.82565 18.7604C5.64614 18.6107 5.42004 18.5282 5.18627 18.5272H3.04103C2.5259 18.5272 2.10831 18.9448 2.10831 19.4599V20.859C2.10831 21.3741 2.5259 21.7917 3.04103 21.7917H6.70003C7.12258 21.7929 7.50038 21.5287 7.64423 21.1314C7.78808 20.7341 7.66704 20.2892 7.34175 20.0196L5.82565 18.7604ZM6.76677 20.8123C6.75947 20.8421 6.73148 20.8619 6.701 20.859H3.04103V19.4599H5.18627C5.2033 19.4593 5.21996 19.4651 5.23291 19.4762L6.75043 20.7382C6.77292 20.7558 6.77976 20.7869 6.76677 20.8123Z" fill="#003B34"/>
<path fill-rule="evenodd" clip-rule="evenodd" d="M6.30552 23.1907H3.04101C2.78347 23.1907 2.57468 23.3995 2.57468 23.657C2.57468 23.9146 2.78347 24.1234 3.04101 24.1234H6.30552C6.56306 24.1234 6.77185 23.9146 6.77185 23.657C6.77185 23.3995 6.56306 23.1907 6.30552 23.1907Z" fill="#003B34"/>
<path fill-rule="evenodd" clip-rule="evenodd" d="M25.4261 23.1907H22.1616C21.904 23.1907 21.6953 23.3995 21.6953 23.657C21.6953 23.9146 21.904 24.1234 22.1616 24.1234H25.4261C25.6836 24.1234 25.8924 23.9146 25.8924 23.657C25.8924 23.3995 25.6836 23.1907 25.4261 23.1907Z" fill="#003B34"/>
<path fill-rule="evenodd" clip-rule="evenodd" d="M18.4307 23.1907H10.0363C9.7788 23.1907 9.57001 23.3995 9.57001 23.657C9.57001 23.9146 9.7788 24.1234 10.0363 24.1234H18.4307C18.6883 24.1234 18.8971 23.9146 18.8971 23.657C18.8971 23.3995 18.6883 23.1907 18.4307 23.1907Z" fill="#003B34"/>
<path d="M28.2242 14.33C28.2242 13.5573 27.5978 12.9309 26.8251 12.9309H25.8924C25.4858 12.9324 25.1003 13.1117 24.837 13.4215L23.9617 10.7987C23.7458 10.149 23.2547 9.62729 22.619 9.37265C22.619 9.31435 22.6279 9.2584 22.6279 9.20011C22.6279 4.56395 18.8696 0.805664 14.2335 0.805664C9.59738 0.805664 5.83914 4.56395 5.83914 9.20006C5.83914 9.25836 5.84662 9.31431 5.848 9.3726C5.21289 9.62679 4.72191 10.1478 4.50581 10.7969L3.63001 13.4215C3.36677 13.1117 2.98122 12.9324 2.57464 12.9309H1.64192C0.869251 12.9309 0.242862 13.5573 0.242862 14.33C0.242862 15.1026 0.869251 15.729 1.64192 15.729H2.38154L0.656048 17.4546C0.390842 17.717 0.242036 18.0748 0.242862 18.4479V24.5898C0.245295 25.1805 0.618595 25.7061 1.17558 25.903V27.3879C1.17558 28.1606 1.80197 28.787 2.57464 28.787H5.83914C6.61181 28.787 7.2382 28.1606 7.2382 27.3879V25.9889H21.2288V27.3879C21.2288 28.1606 21.8552 28.787 22.6279 28.787H25.8924C26.6651 28.787 27.2915 28.1606 27.2915 27.3879V25.903C27.8484 25.7061 28.2217 25.1805 28.2242 24.5898V18.4479C28.225 18.0755 28.0767 17.7183 27.8124 17.4559L26.0869 15.7304H26.8251C27.1964 15.7304 27.5525 15.5828 27.8149 15.3202C28.0773 15.0575 28.2245 14.7012 28.2242 14.33ZM23.0761 11.0921L24.3124 14.7963H20.4724C21.5823 13.5639 22.3002 12.0289 22.5346 10.387C22.7877 10.5561 22.978 10.8039 23.0761 11.0921ZM14.2335 1.73839C18.3545 1.73839 21.6952 5.07908 21.6952 9.20006C21.6952 13.321 18.3545 16.6617 14.2335 16.6617C10.1125 16.6617 6.77182 13.321 6.77182 9.20006C6.77673 5.0811 10.1146 1.74325 14.2335 1.73839ZM5.39144 11.0897C5.48976 10.8025 5.67983 10.5555 5.93241 10.3869C6.16682 12.0289 6.88469 13.5639 7.99462 14.7963H4.15464L5.39144 11.0897ZM1.64192 14.7963C1.38438 14.7963 1.17558 14.5875 1.17558 14.33C1.17558 14.0724 1.38438 13.8636 1.64192 13.8636H2.57464C2.83218 13.8636 3.04098 14.0724 3.04098 14.33V14.7963H1.64192ZM6.30548 27.3879C6.30548 27.6455 6.09668 27.8543 5.83914 27.8543H2.57464C2.3171 27.8543 2.1083 27.6455 2.1083 27.3879V25.9889H6.30548V27.3879ZM26.3587 27.3879C26.3587 27.6455 26.1499 27.8543 25.8924 27.8543H22.6279C22.3704 27.8543 22.1616 27.6455 22.1616 27.3879V25.9889H26.3587V27.3879ZM27.1516 18.1154C27.2409 18.2029 27.2913 18.3227 27.2915 18.4479V24.5898C27.2915 24.8473 27.0827 25.0561 26.8251 25.0561H1.64192C1.38438 25.0561 1.17558 24.8473 1.17558 24.5898V18.4479C1.17572 18.3227 1.22612 18.2029 1.31548 18.1154L3.70042 15.729H8.97021C12.0393 18.2163 16.4305 18.2163 19.4996 15.729H24.7694L27.1516 18.1154ZM25.4261 14.7963V14.33C25.4261 14.0724 25.6349 13.8636 25.8924 13.8636H26.8251C27.0827 13.8636 27.2915 14.0724 27.2915 14.33C27.2915 14.5875 27.0827 14.7963 26.8251 14.7963H25.4261Z" fill="#003B34"/>
<path d="M10.083 8.95942C10.3303 8.95983 10.5677 8.86165 10.7424 8.68659L10.9872 8.44177L12.002 9.45656L11.7689 9.68972C10.4437 9.54578 9.25182 10.5009 9.10362 11.8257C9.08985 12.1222 9.2359 12.4034 9.48637 12.5626C9.73689 12.7219 10.0535 12.7348 10.3161 12.5965C10.6207 12.4342 10.7358 12.5499 10.8096 12.6287C10.8832 12.7075 10.9998 12.8152 10.8404 13.1118C10.7016 13.3668 10.7071 13.6759 10.8549 13.9256C11.0027 14.1754 11.2711 14.329 11.5613 14.33H11.5893C11.9843 14.3064 12.3644 14.1711 12.6852 13.9396C13.4228 13.4319 13.8253 12.5627 13.7355 11.6718L13.977 11.4297L16.604 14.0567C16.9693 14.4217 17.5613 14.4217 17.9266 14.0567L18.5837 13.3972C18.9466 13.0332 18.9466 12.4443 18.5837 12.0803L15.9567 9.45376L16.694 8.71597C17.4018 8.80524 18.1109 8.56133 18.614 8.05562C19.0323 7.67135 19.2928 7.14525 19.3448 6.57958V6.57632C19.359 6.27963 19.2131 5.99804 18.9625 5.83858C18.7118 5.67913 18.395 5.66632 18.1322 5.80494C17.8272 5.9677 17.7093 5.84831 17.6365 5.7751C17.5638 5.7019 17.4449 5.58297 17.6118 5.28311C17.7489 5.02139 17.7366 4.70652 17.5796 4.45628C17.43 4.20397 17.153 4.0553 16.8601 4.07013C16.4649 4.09377 16.0846 4.22931 15.7637 4.46091C15.0224 4.97136 14.6204 5.84698 14.7167 6.74184L13.9817 7.47728L12.9669 6.46249L13.381 6.04839C13.6185 5.81077 13.7098 5.46382 13.6202 5.14009C13.5305 4.81631 13.2737 4.56584 12.9478 4.48428L11.3645 4.08835C11.0466 4.00972 10.7107 4.10272 10.4784 4.33364L8.4344 6.37813C8.25939 6.55305 8.16107 6.79035 8.16107 7.0378C8.16107 7.28524 8.25939 7.52254 8.4344 7.69746L9.42399 8.68705C9.59864 8.86198 9.8358 8.96002 10.083 8.95942ZM17.9224 12.7369L17.2648 13.3972L14.6369 10.7717L15.2968 10.1118L17.9224 12.7369ZM15.5477 7.23067C15.6628 7.11569 15.7096 6.94903 15.6713 6.7909C15.5449 6.19192 15.7908 5.57563 16.2948 5.22817C16.4173 5.14064 16.5539 5.07482 16.6987 5.03369C16.5014 5.51453 16.6126 6.0668 16.9805 6.4339C17.3483 6.801 17.9009 6.91093 18.3813 6.7126C18.2981 6.97331 18.15 7.20859 17.9508 7.39627C17.614 7.74061 17.1187 7.87849 16.6525 7.75768C16.4932 7.71725 16.3243 7.76365 16.2081 7.87987L12.9063 11.1817C12.7923 11.2956 12.7452 11.4603 12.7818 11.6173C12.9021 12.2139 12.6554 12.8249 12.1545 13.1707C12.0315 13.2582 11.8944 13.324 11.7493 13.3652C11.9614 12.8876 11.8493 12.3282 11.4695 11.9694C11.2407 11.7226 10.9199 11.5818 10.5834 11.5804C10.4055 11.5819 10.2296 11.6171 10.0648 11.684C10.1481 11.4232 10.2964 11.1879 10.4957 11.0003C10.8371 10.6536 11.339 10.5181 11.8085 10.6459C11.9684 10.6873 12.1384 10.641 12.2552 10.5241L15.5477 7.23067ZM13.3223 8.13677L12.6619 8.79712L11.6471 7.78233L12.3075 7.12198L13.3223 8.13677ZM11.1383 4.99307L12.7239 5.38716L10.083 8.0272L9.09338 7.03807L11.1383 4.99307Z" fill="#003B34"/>
</mask>

<g mask="url(#inspection)">
<rect width="29" height="29" />
</g>
</svg>
