<svg width="27" height="31" viewBox="0 0 27 31" fill="none" xmlns="http://www.w3.org/2000/svg">
<mask id="stealing" mask-type="alpha" maskUnits="userSpaceOnUse" x="0" y="0" width="31" height="31">
<path d="M11.9592 11.3848C12.6453 11.3848 13.3107 11.5191 13.9368 11.7839C14.1598 11.8783 14.4168 11.7739 14.5111 11.5511C14.6053 11.3282 14.5011 11.0711 14.2782 10.9768C13.5434 10.6661 12.7632 10.5085 11.9592 10.5085C8.67419 10.5085 6.00171 13.1809 6.00171 16.4659C6.00171 19.7509 8.67419 22.4233 11.9592 22.4233C15.2441 22.4233 17.9166 19.7509 17.9166 16.4659C17.9166 14.8925 17.3088 13.4084 16.2052 12.2872C16.0355 12.1148 15.7581 12.1126 15.5856 12.2823C15.4132 12.452 15.411 12.7294 15.5807 12.9019C16.5219 13.8582 17.0403 15.1239 17.0403 16.4659C17.0403 18.034 16.3261 19.4383 15.2061 20.3711V19.8349C15.2061 19.1582 14.7722 18.5681 14.1262 18.3666L13.45 18.1555C13.3545 18.1257 13.2903 18.0384 13.2903 17.9383V17.3466C13.8232 16.943 14.1682 16.3037 14.1682 15.5852V14.6997C14.1682 13.4816 13.1772 12.4907 11.9592 12.4907C10.7411 12.4907 9.75011 13.4816 9.75011 14.6997V15.5852C9.75011 16.3037 10.0951 16.943 10.628 17.3466V17.9383C10.628 18.0384 10.5638 18.1257 10.4683 18.1555L9.79206 18.3666C9.14611 18.5682 8.71216 19.1583 8.71216 19.8349V20.3711C7.59219 19.4383 6.87801 18.034 6.87801 16.4659C6.87801 13.6642 9.15744 11.3848 11.9592 11.3848ZM10.6264 14.6997C10.6264 13.9649 11.2243 13.3671 11.9592 13.3671C12.694 13.3671 13.2919 13.9649 13.2919 14.6997V15.5852C13.2919 16.3201 12.694 16.9179 11.9592 16.9179C11.2243 16.9179 10.6264 16.3201 10.6264 15.5852V14.6997ZM9.58847 19.835C9.58847 19.5438 9.77523 19.2899 10.0531 19.2031L10.7294 18.992C11.1929 18.8474 11.5043 18.4239 11.5043 17.9383V17.7468C11.6512 17.7777 11.8032 17.7941 11.9592 17.7941C12.1151 17.7941 12.2671 17.7777 12.414 17.7468V17.9383C12.414 18.4239 12.7254 18.8474 13.189 18.992L13.8652 19.2031C14.1431 19.2899 14.3298 19.5438 14.3298 19.835V20.959C13.6216 21.3342 12.8148 21.5471 11.9592 21.5471C11.1035 21.5471 10.2966 21.3342 9.58847 20.959V19.835Z" fill="#003B34"/>
<path d="M4.79291 24.7382V26.757C4.79291 27.3207 5.25156 27.7793 5.81526 27.7793H18.1032C18.6669 27.7793 19.1255 27.3207 19.1255 26.757V24.7382C19.1255 24.1745 18.6669 23.7159 18.1032 23.7159H5.81526C5.25151 23.7159 4.79291 24.1745 4.79291 24.7382ZM18.2491 24.7382V26.757C18.2491 26.8375 18.1836 26.903 18.1031 26.903H5.81526C5.73476 26.903 5.66921 26.8375 5.66921 26.757V24.7382C5.66921 24.6577 5.73476 24.5922 5.81526 24.5922H18.1032C18.1836 24.5922 18.2491 24.6577 18.2491 24.7382Z" fill="#003B34"/>
<path d="M16.3864 26.1858H16.7488C16.9908 26.1858 17.187 25.9896 17.187 25.7476C17.187 25.5056 16.9908 25.3095 16.7488 25.3095H16.3864C16.1444 25.3095 15.9482 25.5056 15.9482 25.7476C15.9482 25.9896 16.1444 26.1858 16.3864 26.1858Z" fill="#003B34"/>
<path d="M14.0822 26.1858H14.4447C14.6866 26.1858 14.8828 25.9896 14.8828 25.7476C14.8828 25.5056 14.6866 25.3095 14.4447 25.3095H14.0822C13.8402 25.3095 13.644 25.5056 13.644 25.7476C13.644 25.9896 13.8402 26.1858 14.0822 26.1858Z" fill="#003B34"/>
<path d="M11.778 26.1858H12.1404C12.3824 26.1858 12.5786 25.9896 12.5786 25.7476C12.5786 25.5056 12.3824 25.3095 12.1404 25.3095H11.778C11.5359 25.3095 11.3398 25.5056 11.3398 25.7476C11.3398 25.9896 11.5359 26.1858 11.778 26.1858Z" fill="#003B34"/>
<path d="M9.47376 26.1858H9.83626C10.0782 26.1858 10.2744 25.9896 10.2744 25.7476C10.2744 25.5056 10.0782 25.3095 9.83626 25.3095H9.47376C9.23179 25.3095 9.03561 25.5056 9.03561 25.7476C9.03561 25.9896 9.23179 26.1858 9.47376 26.1858Z" fill="#003B34"/>
<path d="M7.16957 26.1858H7.532C7.77398 26.1858 7.97015 25.9896 7.97015 25.7476C7.97015 25.5056 7.77398 25.3095 7.532 25.3095H7.16957C6.92753 25.3095 6.73141 25.5056 6.73141 25.7476C6.73141 25.9896 6.92759 26.1858 7.16957 26.1858Z" fill="#003B34"/>
<path d="M25.8969 6.74417C25.7219 6.68212 25.5269 6.73722 25.4101 6.88151L24.4159 8.10956C24.2637 8.29761 24.2927 8.57353 24.4807 8.72577C24.6689 8.87808 24.9447 8.84904 25.097 8.66093L25.3124 8.39477V8.86534C25.3124 9.89266 24.592 10.7631 23.64 10.9706V9.68007C23.64 8.79418 22.9192 8.07351 22.0334 8.07351H21.2641C21.5322 7.45292 22.0905 6.97726 22.7834 6.83805C23.2797 6.73838 23.64 6.30298 23.64 5.80279V4.91761C24.2525 4.72979 24.6992 4.15902 24.6992 3.48579C24.6992 2.81256 24.2525 2.24185 23.64 2.05403V0.782694C23.64 0.540718 23.4439 0.344543 23.2019 0.344543C22.9598 0.344543 22.7637 0.540718 22.7637 0.782694V2.05403C22.1512 2.24185 21.7045 2.81256 21.7045 3.48579C21.7045 4.15902 22.1512 4.72979 22.7637 4.91761V5.80279C22.7637 5.88837 22.7009 5.96081 22.6109 5.97892C21.5044 6.20115 20.6404 7.02885 20.3349 8.07351H1.88487C0.999048 8.07351 0.27832 8.79418 0.27832 9.68007V21.9853C0.27832 22.2272 0.474495 22.4234 0.716471 22.4234C0.958505 22.4234 1.15462 22.2272 1.15462 21.9853V9.68007C1.15462 9.27738 1.48218 8.94982 1.88487 8.94982H20.2157C20.2234 9.50095 20.3816 10.0364 20.6753 10.501C20.7587 10.633 20.9008 10.7052 21.0461 10.7052C21.1262 10.7052 21.2071 10.6833 21.2798 10.6374C21.4843 10.5081 21.5454 10.2375 21.4161 10.0329C21.2112 9.70857 21.1004 9.33486 21.0927 8.94976H22.0335C22.4362 8.94976 22.7637 9.27732 22.7637 9.68001V28.649C22.7637 29.0517 22.4362 29.3792 22.0335 29.3792H1.88487C1.48218 29.3792 1.15462 29.0517 1.15462 28.649V24.1612C1.15462 23.9192 0.958505 23.723 0.716471 23.723C0.474495 23.723 0.27832 23.9192 0.27832 24.1612V28.649C0.27832 29.5349 0.999048 30.2555 1.88487 30.2555H22.0335C22.9193 30.2555 23.64 29.5349 23.64 28.649V11.8606C25.0765 11.6436 26.1888 10.3749 26.1888 8.86534V7.1572C26.1888 6.9716 26.0718 6.80609 25.8969 6.74417ZM22.5808 3.48585C22.5808 3.14339 22.8594 2.86484 23.2019 2.86484C23.5443 2.86484 23.8229 3.14345 23.8229 3.48585C23.8229 3.82825 23.5443 4.10691 23.2019 4.10691C22.8594 4.10685 22.5808 3.82825 22.5808 3.48585Z" fill="#003B34"/>
</mask>

<g mask="url(#stealing)">
<rect width="31" height="31" />
</g>
</svg>
