<svg width="114" height="114" viewBox="0 0 114 114" fill="none" xmlns="http://www.w3.org/2000/svg">
<g clip-path="url(#clip0)">
<path fill-rule="evenodd" clip-rule="evenodd" d="M57.0012 114C88.3871 114 113.983 88.3957 113.983 57C113.983 25.6043 88.3897 0 57.0012 0C25.6127 0 0.019104 25.6043 0.019104 57C0.019104 88.3957 25.6153 114 57.0012 114Z" fill="url(#paint0_radial)"/>
<path fill-rule="evenodd" clip-rule="evenodd" d="M57 110.156C86.2715 110.156 110.139 86.2814 110.139 57C110.139 27.7186 86.2722 3.84418 57 3.84418C27.7277 3.84418 3.86084 27.7186 3.86084 57C3.86084 86.2814 27.7277 110.156 57 110.156Z" stroke="#FECA20" stroke-width="3.82143" stroke-miterlimit="10"/>
<path d="M57 95.8044C78.3709 95.8044 95.7922 78.3776 95.7922 57C95.7922 35.6349 78.3709 18.1956 57 18.1956C35.6416 18.1956 18.2078 35.6349 18.2078 57C18.2078 78.3776 35.6416 95.8044 57 95.8044Z" stroke="#FECA20" stroke-width="1.9868" stroke-miterlimit="10"/>
<path d="M56.9622 29.2523H73.2571C73.7628 29.2525 74.2477 29.4535 74.6053 29.8112C74.9629 30.1689 75.1638 30.654 75.164 31.1598C75.164 31.6657 74.9631 32.1509 74.6055 32.5086C74.2479 32.8663 73.7629 33.0673 73.2571 33.0673H57" fill="#FECA20"/>
<path d="M57.0378 29.2523H40.7428C40.2372 29.2525 39.7522 29.4535 39.3947 29.8112C39.0371 30.1689 38.8361 30.654 38.8359 31.1598C38.8359 31.6657 39.0368 32.1509 39.3945 32.5086C39.7521 32.8663 40.2371 33.0673 40.7428 33.0673H57" fill="#FECA20"/>
<path d="M57.3021 29.9323H56.7356H53.6771V32.3117H56.7356H57.3021H60.3228V29.9323H57.3021Z" fill="#003B34"/>
<path d="M68.4183 29.8567H61.0027V32.3873H73.3479C73.6809 32.3843 73.9991 32.2495 74.2329 32.0123C74.4668 31.7752 74.5972 31.4551 74.5956 31.122C74.5972 30.7889 74.4668 30.4688 74.2329 30.2316C73.9991 29.9945 73.6809 29.8597 73.3479 29.8567H68.4183Z" fill="#06ABE2"/>
<path d="M45.5817 29.8567H52.9974V32.3873H40.6501C40.3172 32.3843 39.9989 32.2495 39.7651 32.0123C39.5313 31.7752 39.4009 31.4551 39.4025 31.122C39.4009 30.7889 39.5313 30.4688 39.7651 30.2316C39.9989 29.9945 40.3172 29.8597 40.6501 29.8567H45.5817Z" fill="#EE2326"/>
<path d="M72.7006 67.832L72.8092 67.3236L72.2898 67.3296C72.1533 67.3296 58.7665 67.4781 57 67.4807C55.2336 67.4834 41.8468 67.3309 41.7103 67.3296L41.1908 67.3236L41.2995 67.832C41.3586 68.1026 41.4807 68.3554 41.6558 68.5699C41.8309 68.7845 42.0541 68.9547 42.3073 69.0668H41.2226L41.7016 70.0252C41.8521 70.3288 42.0848 70.5841 42.3732 70.762C42.6616 70.9399 42.9941 71.0332 43.3329 71.0313H70.6737C71.012 71.0325 71.3438 70.939 71.6316 70.7611C71.9193 70.5833 72.1515 70.3283 72.3017 70.0252L72.7808 69.0668H71.6915C71.9449 68.9549 72.1684 68.7847 72.3437 68.5702C72.5191 68.3556 72.6413 68.1027 72.7006 67.832ZM56.9623 68.3112H57.0378C58.6942 68.3079 68.7814 68.1985 71.5802 68.168C71.4136 68.3094 71.2023 68.3869 70.9838 68.3868H43.0142C42.7958 68.3869 42.5844 68.3094 42.4179 68.168C45.2186 68.2012 55.3084 68.3079 56.9623 68.3112ZM70.6704 70.2002H43.3329C43.1998 70.2006 43.0681 70.174 42.9455 70.122C42.823 70.0701 42.7123 69.9938 42.62 69.8979H71.3867C71.294 69.9943 71.1827 70.0707 71.0596 70.1227C70.9365 70.1746 70.8041 70.201 70.6704 70.2002Z" fill="#FECA20"/>
<path d="M79.3244 70.8689L79.3542 70.4984C79.4496 69.3213 79.2303 68.4345 78.7042 67.8638C78.3398 67.4694 77.9125 67.3296 77.6567 67.3296H75.7332C75.0653 67.3296 74.6002 67.887 74.6002 68.3867C74.6002 68.6247 74.5187 70.059 74.4876 70.5912L74.4611 71.0498L74.9196 71.0306C74.9467 71.0306 77.6885 70.9173 78.9554 70.8802L79.3244 70.8689ZM78.5446 70.0616C77.5507 70.0941 76.0791 70.1524 75.341 70.1823C75.3748 69.5857 75.4284 68.6081 75.4284 68.3867C75.4284 68.3205 75.5424 68.1607 75.7306 68.1607H77.6521C77.6686 68.1607 77.8959 68.1972 78.1159 68.457C78.3286 68.7002 78.5578 69.1702 78.5446 70.0616Z" fill="#FECA20"/>
<path d="M84.3766 68.3125C84.4025 68.0335 84.4343 67.71 84.4687 67.3521C84.9213 62.708 85.3453 57.619 84.6456 56.0184C84.3514 55.347 84.1447 54.9347 83.993 54.6345C83.7425 54.1361 83.667 53.9863 83.5809 53.4044C83.5623 53.2804 83.5438 53.128 83.5219 52.951C83.3688 51.697 83.0833 49.3627 81.7422 48.2028C81.0412 47.5957 80.7536 47.2961 80.5078 47.0058C82.1152 47.0058 83.2038 46.9554 83.6524 46.506C84.2143 45.9447 84.0281 45.0439 83.8512 44.6462C83.6054 44.0935 82.4379 42.6943 80.0142 42.8507C79.832 42.8594 79.6988 42.976 79.6014 43.0787C79.2935 43.4225 79.0783 43.839 78.9759 44.289L78.5512 44.2956C78.265 43.7581 77.9655 43.1563 77.6706 42.5638C77.128 41.4715 76.5661 40.3427 76.0764 39.5998C75.5835 38.6566 75.1164 37.8334 74.6983 37.2137C73.5858 35.4779 72.474 34.9364 71.4516 34.2351C72.2215 33.8865 72.9815 33.3735 73.3612 32.895L72.739 32.4038C72.3183 32.9341 71.1362 33.5969 70.3113 33.807V32.9168H69.5162V33.6877C69.3678 33.6711 69.2194 33.6585 69.0716 33.6472C67.7392 33.5677 66.3988 33.4769 65.0597 33.3994C62.3802 33.2429 59.6967 33.123 57.0106 33.068L56.9987 33.4829L56.9868 33.068C54.3007 33.1223 51.6199 33.2423 48.9377 33.3994C47.5986 33.4769 46.2582 33.5677 44.9258 33.6472C44.778 33.6585 44.6296 33.6711 44.4812 33.6877V32.9162H43.6861V33.809C42.8612 33.5989 41.6791 32.938 41.2584 32.4058L40.6362 32.897C41.0159 33.3781 41.7759 33.8911 42.5458 34.2371C41.5247 34.9384 40.4129 35.4799 39.2991 37.2164C38.8804 37.8354 38.4139 38.6586 37.921 39.6024C37.4313 40.3454 36.8694 41.4741 36.3268 42.5664C36.0319 43.1589 35.7305 43.7594 35.4462 44.2983L35.0215 44.2917C34.9197 43.8418 34.7051 43.4254 34.398 43.0814C34.3006 42.9787 34.1674 42.862 33.9852 42.8534C31.5615 42.697 30.394 44.0961 30.1482 44.6489C29.9719 45.0466 29.7858 45.9473 30.347 46.5087C30.7955 46.9581 31.8842 47.0058 33.4916 47.0084C33.2458 47.2987 32.9582 47.5983 32.2572 48.2054C30.9168 49.3633 30.6312 51.6977 30.4788 52.9517C30.457 53.1286 30.4384 53.2831 30.4199 53.405C30.3337 53.987 30.2582 54.1341 30.0077 54.6352C29.856 54.9354 29.6493 55.3477 29.3551 56.0191C28.6554 57.619 29.0794 62.708 29.532 67.3528C29.5664 67.7107 29.5983 68.0341 29.6241 68.3132C29.6367 68.4457 29.6519 68.5743 29.6691 68.7022C29.1298 70.1325 29.3538 73.408 29.6062 76.376C29.6274 76.6206 29.646 76.84 29.6612 77.0335C29.8262 79.0882 30.9201 79.1929 31.3839 79.1929H31.4628H31.5111C32.609 79.1929 36.2585 79.1816 37.1305 79.0358C39.0758 78.7117 39.366 77.7169 39.366 77.1528C39.366 76.9122 39.366 76.5563 39.3621 76.1096C39.3621 75.4587 39.3548 74.5964 39.3535 73.6248C41.9508 73.6036 45.2008 73.5671 48.2254 73.5333C52.028 73.4909 55.6199 73.4511 57.0013 73.4511C58.3828 73.4511 61.9747 73.4909 65.7773 73.5333C68.8019 73.5671 72.0519 73.6036 74.6492 73.6248C74.6492 74.5964 74.6439 75.4587 74.6406 76.1096C74.6406 76.5583 74.6366 76.9122 74.6366 77.1528C74.6366 77.7169 74.9269 78.7117 76.8722 79.0358C77.7442 79.1816 81.3937 79.1929 82.4916 79.1929H82.5399H82.6188C83.0826 79.1929 84.1759 79.0888 84.3415 77.0335C84.3567 76.8413 84.3753 76.6206 84.3965 76.376C84.6489 73.4094 84.8729 70.1325 84.3302 68.7022C84.3468 68.5737 84.364 68.4444 84.3766 68.3125ZM79.3556 45.1148C79.412 45.1149 79.4679 45.1035 79.5198 45.0812C79.5717 45.0589 79.6185 45.0263 79.6574 44.9852C79.6962 44.9442 79.7263 44.8957 79.7457 44.8426C79.7651 44.7896 79.7735 44.7331 79.7703 44.6767C79.7498 44.3042 80.0307 43.8429 80.1818 43.6719C82.3683 43.5792 83.0859 44.967 83.0925 44.9816C83.2091 45.2467 83.2648 45.7167 83.0647 45.9168C83.0501 45.9314 82.8997 46.062 82.1371 46.1269C81.6024 46.1727 80.959 46.1727 80.3362 46.1727C80.2189 46.1727 79.995 46.1727 79.7982 46.1634C79.7319 46.0905 79.6617 46.0123 79.5835 45.9281C79.3675 45.6769 79.1762 45.4054 79.0123 45.1175C79.1416 45.1188 79.2628 45.1175 79.3556 45.1175V45.1148ZM44.9954 34.6785C46.3364 34.5751 47.6682 34.4631 49.0033 34.3631C51.6669 34.1642 54.3325 33.9985 57 33.8991C59.6676 33.9985 62.3332 34.1642 64.9967 34.3631C66.3318 34.4631 67.6636 34.5751 69.0047 34.6785C69.3131 34.7009 69.6196 34.7452 69.9217 34.8111C70.2099 34.8713 70.49 34.9657 70.7559 35.0921C70.7878 35.1066 70.8187 35.123 70.8487 35.1412L70.9394 35.1915C70.9692 35.2073 70.9978 35.2253 71.0249 35.2452L71.1084 35.3016C71.1352 35.3201 71.1609 35.3402 71.1853 35.3619L71.2608 35.4229C71.284 35.4441 71.3045 35.4673 71.327 35.4891L71.3602 35.5216L71.3767 35.5382L71.3907 35.5554C70.1914 35.4036 68.3554 35.2505 65.5189 35.1332C62.1397 34.9934 58.5432 34.9549 57.0378 34.9536H56.9623C55.4569 34.9536 51.8604 34.9934 48.4812 35.1332C45.6447 35.2505 43.8087 35.4036 42.6094 35.5554L42.6233 35.5382L42.6399 35.5216L42.673 35.4891C42.6949 35.4673 42.7154 35.4441 42.7393 35.4229L42.8148 35.3619C42.8391 35.3402 42.8648 35.3201 42.8917 35.3016L42.9751 35.2452C43.0023 35.2253 43.0308 35.2073 43.0606 35.1915L43.1514 35.1412C43.1813 35.123 43.2123 35.1066 43.2441 35.0921C43.5101 34.9657 43.7901 34.8713 44.0783 34.8111C44.3805 34.7452 44.6869 34.7009 44.9954 34.6785ZM40.7164 36.8207C40.9927 36.6497 42.3066 36.2242 48.5156 35.9663C51.9074 35.8258 55.5238 35.788 56.9967 35.7874C58.4696 35.7867 62.0893 35.8258 65.4811 35.9663C71.6915 36.2235 73.0074 36.6523 73.2817 36.8207C73.448 36.9234 73.9681 37.4132 75.1992 39.729C75.9698 41.1792 76.7271 42.7884 77.1796 43.7495C77.2618 43.9231 77.3327 44.0749 77.3923 44.2002C77.7342 44.9206 77.8064 45.8704 77.6256 46.1428C77.6044 46.174 77.5984 46.1773 77.5593 46.176C76.739 46.1382 61.5453 45.7975 56.9974 45.7975C52.4494 45.7975 37.2557 46.1382 36.4354 46.176C36.3977 46.176 36.3911 46.176 36.3692 46.1428C36.1883 45.8704 36.2605 44.9206 36.6024 44.2002C36.662 44.0749 36.7349 43.9231 36.8151 43.7495C37.2676 42.7884 38.025 41.1792 38.7956 39.729C40.03 37.4132 40.5501 36.9234 40.7164 36.8207ZM30.9353 45.9195C30.7366 45.7206 30.7909 45.2474 30.9075 44.9843C30.9141 44.9697 31.6324 43.5825 33.8182 43.6746C33.9693 43.8456 34.2502 44.3069 34.2297 44.6794C34.2265 44.7358 34.2349 44.7922 34.2544 44.8453C34.2738 44.8983 34.3038 44.9469 34.3427 44.9879C34.3815 45.0289 34.4283 45.0616 34.4802 45.0838C34.5321 45.1061 34.588 45.1176 34.6445 45.1175C34.7372 45.1175 34.8585 45.1175 34.9864 45.1175C34.8227 45.4066 34.6314 45.6791 34.4152 45.9314C34.337 46.0156 34.2661 46.0938 34.2006 46.1667C34.0018 46.176 33.7798 46.176 33.6625 46.176C33.0397 46.176 32.3963 46.176 31.8616 46.1302C31.1003 46.064 30.9499 45.9314 30.9353 45.9195ZM30.1157 56.3525C30.4006 55.7009 30.6021 55.3006 30.7492 55.009C31.0142 54.4787 31.1354 54.2408 31.2408 53.527C31.2613 53.3944 31.2805 53.2347 31.3024 53.0531C31.4422 51.9098 31.7 49.7822 32.8012 48.8318C33.7381 48.0212 33.9938 47.705 34.3251 47.3074C34.4106 47.2033 34.5007 47.0926 34.6114 46.9634C34.733 46.9455 34.8507 46.9067 34.9592 46.8487C35.2753 46.6724 35.3289 46.3755 35.3495 46.0925C35.3859 46.0408 35.4237 45.9864 35.4608 45.9294C35.4803 46.1693 35.5561 46.4011 35.6821 46.6061C35.762 46.7317 35.8727 46.8347 36.0036 46.9055C36.1345 46.9762 36.2813 47.0124 36.4301 47.0104H36.4772C37.2955 46.9733 52.46 46.6333 57.0013 46.6333C61.5427 46.6333 76.7072 46.9733 77.5255 47.0104H77.5726C77.7214 47.0124 77.8682 46.9762 77.9991 46.9055C78.13 46.8347 78.2407 46.7317 78.3206 46.6061C78.4466 46.4011 78.5224 46.1693 78.5419 45.9294C78.579 45.9864 78.6168 46.0408 78.6532 46.0925C78.6738 46.3755 78.7281 46.6724 79.0435 46.8487C79.152 46.9067 79.2697 46.9455 79.3913 46.9634C79.502 47.0959 79.5901 47.2033 79.6776 47.3074C80.0049 47.705 80.2633 48.0245 81.2015 48.8318C82.3001 49.7822 82.5605 51.9098 82.7003 53.0531C82.7221 53.2347 82.7414 53.3924 82.7619 53.527C82.8673 54.2408 82.9885 54.4814 83.2535 55.009C83.4006 55.3006 83.6021 55.7009 83.887 56.3525C84.0957 56.829 84.1798 57.7695 84.1878 58.9307C84.0081 58.7848 83.7817 58.7088 83.5504 58.7166C83.4954 58.7166 83.2959 58.7166 82.9852 58.7246C82.9706 56.4963 82.1556 53.7861 80.5688 52.7409C80.2926 52.5658 79.9878 52.4406 79.6683 52.3711C79.7558 50.2733 79.3847 48.4122 79.1064 47.656L78.3266 47.9436C78.5691 48.6018 78.9103 50.3297 78.8407 52.2597C76.7119 52.1504 73.978 53.1598 73.3161 53.4189C72.2991 53.8166 71.6597 54.5304 71.2376 55.237C70.9918 55.231 70.5869 55.225 70.0655 55.2178C70.0721 55.1295 70.0721 55.0409 70.0655 54.9526C70.0606 54.88 70.0484 54.8081 70.0291 54.7379C70.0238 54.718 70.0158 54.6942 70.0072 54.6716L69.9946 54.6372C69.9893 54.6246 69.9827 54.6106 69.9767 54.598C69.9707 54.5855 69.9641 54.5722 69.9568 54.5589C69.9495 54.5457 69.9403 54.5304 69.9316 54.5165C69.923 54.5026 69.9131 54.488 69.9032 54.4748C69.8971 54.4654 69.8902 54.4565 69.8826 54.4483C69.8747 54.4383 69.8654 54.4284 69.8568 54.4191C69.8388 54.3995 69.8198 54.381 69.7998 54.3634L69.7726 54.3409L69.7541 54.3276C69.7296 54.3104 69.7037 54.2938 69.6772 54.2786C69.6507 54.2633 69.6401 54.26 69.6209 54.2507L69.5937 54.2375L69.5798 54.2315L69.5686 54.2275C69.5401 54.2169 69.5083 54.2044 69.4824 54.1964L69.4069 54.1739C69.3128 54.1487 69.2273 54.1308 69.1458 54.1162C69.0643 54.1016 68.9855 54.0897 68.9066 54.0791C68.7509 54.0579 68.5992 54.042 68.4481 54.028C68.146 53.9995 67.8518 53.9803 67.551 53.9618C66.365 53.8955 65.1889 53.8769 64.0121 53.863C61.6726 53.8392 59.337 53.857 57.0007 53.8955C54.6644 53.857 52.3288 53.8392 49.9892 53.863C48.8125 53.8769 47.6364 53.8981 46.4504 53.9618C46.1529 53.979 45.8541 53.9982 45.5532 54.028C45.4022 54.042 45.2504 54.0579 45.0947 54.0791C45.0166 54.0897 44.9377 54.1016 44.8555 54.1162C44.7734 54.1308 44.6886 54.1487 44.5945 54.1739L44.519 54.1964C44.4931 54.2044 44.4613 54.2169 44.4328 54.2275L44.4216 54.2315L44.4076 54.2375L44.3805 54.2507C44.3613 54.26 44.3447 54.2673 44.3242 54.2786C44.3036 54.2899 44.2718 54.3104 44.2473 54.3276L44.2287 54.3409L44.2016 54.3634C44.1816 54.381 44.1626 54.3995 44.1446 54.4191C44.136 54.4284 44.1267 54.4383 44.1188 54.4483C44.1112 54.4565 44.1043 54.4654 44.0982 54.4748C44.0883 54.488 44.079 54.5026 44.0697 54.5165C44.0604 54.5304 44.0505 54.547 44.0445 54.5589L44.0247 54.598C44.0187 54.6106 44.0121 54.6246 44.0068 54.6372L43.9942 54.6716C43.9856 54.6948 43.9776 54.7187 43.9723 54.7379C43.953 54.8081 43.9408 54.88 43.9359 54.9526C43.9293 55.0409 43.9293 55.1295 43.9359 55.2178C43.4144 55.225 43.0083 55.231 42.7638 55.237C42.341 54.5304 41.7036 53.8173 40.6852 53.4189C40.0227 53.1598 37.2895 52.1504 35.1606 52.2597C35.0944 50.3277 35.4323 48.6018 35.6748 47.9436L34.8963 47.6547C34.618 48.4109 34.2469 50.272 34.3344 52.3697C34.0149 52.4392 33.7101 52.5644 33.4339 52.7396C31.8477 53.7848 31.0321 56.495 31.0175 58.7233C30.7068 58.718 30.5073 58.7153 30.4523 58.7153C30.221 58.7075 29.9946 58.7835 29.8149 58.9294C29.8229 57.7695 29.907 56.829 30.1157 56.3525ZM57 61.9278C53.4678 61.9278 40.0538 61.8907 36.2049 61.7767C34.4616 61.725 33.2988 61.4579 32.6501 60.9602C32.2333 60.6407 31.9948 60.2086 31.8987 59.5683C35.2594 59.6253 43.26 59.7711 43.3614 59.7731H43.3687C43.4716 59.7752 43.5733 59.7516 43.6647 59.7044C43.7562 59.6571 43.8343 59.5878 43.8921 59.5027C44.085 59.2237 44.1877 58.6921 43.4946 56.8674C43.4734 56.8124 43.4515 56.7521 43.4283 56.6878C43.3621 56.5056 43.2812 56.2902 43.1825 56.0588L44.1101 56.0456C44.1519 56.1881 44.1983 56.3266 44.2473 56.4638C44.4586 57.0487 44.7207 57.614 45.0305 58.1533C45.1879 58.4282 45.3612 58.6937 45.5493 58.9486C45.6467 59.0812 45.748 59.2064 45.8613 59.3324C45.917 59.3953 45.9766 59.4576 46.0383 59.5193C46.1045 59.5863 46.1749 59.6492 46.249 59.7075C46.4011 59.8276 46.5657 59.9309 46.7399 60.0157C46.8194 60.0522 46.899 60.0893 46.9785 60.1231C47.058 60.1569 47.1355 60.1854 47.2137 60.2132C47.5151 60.3198 47.8227 60.4083 48.1347 60.4783C48.4381 60.5446 48.7396 60.6043 49.0404 60.6526C49.3412 60.701 49.6367 60.7421 49.9382 60.7792C51.1309 60.9231 52.3182 60.998 53.5009 61.0516C54.6585 61.1033 55.8133 61.1312 56.9649 61.1517H57.0404C58.192 61.1312 59.3469 61.1033 60.5044 61.0516C61.6871 60.998 62.8725 60.9231 64.0671 60.7792C64.3653 60.7421 64.6635 60.7024 64.9649 60.6526C65.2664 60.6029 65.5672 60.5473 65.8707 60.4783C66.1827 60.4083 66.4902 60.3198 66.7917 60.2132C66.8699 60.1854 66.9487 60.1536 67.0269 60.1231C67.1051 60.0926 67.1859 60.0522 67.2654 60.0157C67.4397 59.9309 67.6043 59.8276 67.7564 59.7075C67.8305 59.6492 67.9009 59.5863 67.9671 59.5193C68.0287 59.4576 68.0883 59.3953 68.144 59.3324C68.2566 59.2064 68.3587 59.0785 68.4561 58.9486C68.6442 58.6937 68.8174 58.4282 68.9749 58.1533C69.2847 57.614 69.5467 57.0487 69.758 56.4638C69.8071 56.3266 69.8535 56.1881 69.8952 56.0456L70.8228 56.0588C70.7241 56.2908 70.6446 56.5056 70.577 56.6878C70.5532 56.7541 70.5313 56.8124 70.5108 56.8674C69.8157 58.6921 69.9184 59.2237 70.1132 59.5027C70.171 59.5878 70.2492 59.6571 70.3406 59.7044C70.432 59.7516 70.5338 59.7752 70.6366 59.7731H70.6439C70.744 59.7731 78.7447 59.6253 82.1066 59.5683C82.0105 60.2072 81.7753 60.6394 81.3552 60.9602C80.7066 61.4579 79.5437 61.725 77.8005 61.7767C73.9442 61.8907 60.5323 61.9272 57 61.9278ZM40.3838 54.1931C41.1126 54.4781 41.6036 54.9752 41.9514 55.5041C41.7237 55.3455 41.4639 55.2391 41.1904 55.1925C40.9169 55.1458 40.6365 55.16 40.3691 55.2341C40.1017 55.3082 39.8539 55.4403 39.6434 55.6211C39.4329 55.8018 39.2648 56.0268 39.1511 56.28C39.0374 56.5331 38.9808 56.8083 38.9855 57.0858C38.9902 57.3632 39.056 57.6363 39.1782 57.8855C39.3004 58.1346 39.476 58.3538 39.6925 58.5274C39.909 58.7009 40.1611 58.8246 40.4308 58.8896C37.7434 58.8412 33.8971 58.7723 31.8484 58.7378C31.8596 56.776 32.5607 54.3117 33.8911 53.4355C35.2315 52.552 38.6034 53.4958 40.3838 54.1931ZM42.7518 57.2651C43.1342 58.2845 43.2004 58.7498 43.2004 58.94L41.2524 58.9049C41.6432 58.8245 41.9986 58.6226 42.2679 58.3282C42.5372 58.0337 42.7065 57.6616 42.7518 57.2651ZM40.8754 58.1155C40.6657 58.1155 40.4608 58.0533 40.2864 57.9368C40.1121 57.8202 39.9762 57.6546 39.896 57.4608C39.8157 57.2671 39.7947 57.0538 39.8356 56.8481C39.8766 56.6424 39.9775 56.4535 40.1258 56.3052C40.274 56.1568 40.4629 56.0558 40.6686 56.0149C40.8742 55.974 41.0874 55.995 41.2811 56.0753C41.4748 56.1555 41.6404 56.2915 41.7569 56.4658C41.8734 56.6402 41.9355 56.8453 41.9355 57.055C41.9347 57.3357 41.8226 57.6046 41.6239 57.8027C41.4251 58.0009 41.156 58.1122 40.8754 58.1122V58.1155ZM57 54.5477C59.3303 54.5894 61.6613 54.6517 63.9863 54.7558C65.1538 54.8095 66.3232 54.8711 67.4768 54.9732C67.7643 54.9997 68.0519 55.0282 68.3322 55.064C68.4726 55.0825 68.6118 55.1018 68.7456 55.125C68.8119 55.1362 68.8781 55.1488 68.9404 55.1621L68.961 55.1667L68.955 55.2032C65.6017 55.1667 59.8114 55.127 57.0378 55.1263H56.9623C54.188 55.1263 48.399 55.1667 45.045 55.2032L45.0391 55.1667L45.0596 55.1621C45.1219 55.1488 45.1875 55.1362 45.2544 55.125C45.3869 55.1018 45.5274 55.0825 45.6679 55.064C45.9481 55.0282 46.2357 54.9977 46.5233 54.9732C47.6768 54.8711 48.8463 54.8095 50.0138 54.7558C52.3388 54.6537 54.6697 54.5914 57 54.5477ZM57 59.5279H56.9623C55.8186 59.5471 54.6777 59.5584 53.5407 59.5471C52.3792 59.5345 51.2216 59.5 50.08 59.4026C49.7951 59.3774 49.5122 59.3489 49.2326 59.3125C48.953 59.276 48.6753 59.2349 48.4057 59.1832C48.1426 59.1349 47.8827 59.0712 47.6271 58.9923C47.5668 58.9725 47.5092 58.9513 47.4496 58.9314C47.3899 58.9115 47.3396 58.8863 47.2846 58.8651C47.1933 58.8251 47.1063 58.776 47.0248 58.7186C46.9821 58.6884 46.9418 58.6549 46.9043 58.6185C46.8605 58.5774 46.8168 58.5357 46.7717 58.49L46.7671 58.4853L55.7895 58.5635L56.0545 58.9811H57.9455L58.2106 58.5635L67.2303 58.4866L67.2257 58.4913C67.1826 58.537 67.1389 58.5788 67.0931 58.6199C67.0556 58.6563 67.0153 58.6897 66.9726 58.7199C66.8911 58.7773 66.8041 58.8264 66.7128 58.8664C66.6578 58.889 66.6042 58.9122 66.5478 58.9327C66.4915 58.9532 66.4306 58.9738 66.3703 58.9937C66.1161 59.0732 65.8574 59.1378 65.5957 59.1872C65.3254 59.2389 65.0484 59.282 64.7681 59.3165C64.4879 59.3509 64.2056 59.3827 63.9207 59.4066C62.7811 59.504 61.6215 59.5392 60.46 59.5511C59.323 59.5623 58.1821 59.5511 57.0385 59.5319L57 59.5279ZM67.9432 57.5395C67.9201 57.5766 67.8962 57.6131 67.8723 57.6502L57.7527 57.7364L57.4877 58.1499H56.5104L56.2453 57.7364L46.1257 57.6502C46.1019 57.6131 46.078 57.5766 46.0548 57.5395L46.0051 57.4567L55.9777 57.4699H56.3023L56.4163 57.0159H57.5798L57.6931 57.4699H58.0184L67.9909 57.4567L67.9432 57.5395ZM68.69 56.0641C68.6144 56.2524 68.5323 56.4395 68.4435 56.6255C66.4624 56.6255 59.8862 56.6361 58.3437 56.6388L58.2304 56.1854H55.7696L55.657 56.6388C54.1145 56.6388 47.5383 56.6268 45.5572 56.6255C45.4689 56.4399 45.3867 56.2528 45.3107 56.0641L45.2988 56.033C48.6899 55.9979 54.3099 55.9594 57.0007 55.9594C59.6914 55.9594 65.3115 55.9979 68.7026 56.033L68.69 56.0641ZM72.745 58.9049L70.797 58.94C70.797 58.7498 70.8632 58.2845 71.2482 57.2618C71.2927 57.6585 71.4614 58.0311 71.7302 58.3262C71.999 58.6212 72.3542 58.8238 72.745 58.9049ZM72.0678 57.0544C72.0678 56.8446 72.13 56.6396 72.2465 56.4652C72.363 56.2908 72.5285 56.1549 72.7223 56.0746C72.916 55.9943 73.1291 55.9733 73.3348 56.0143C73.5404 56.0552 73.7293 56.1562 73.8776 56.3045C74.0258 56.4528 74.1268 56.6418 74.1677 56.8475C74.2086 57.0532 74.1876 57.2664 74.1074 57.4602C74.0271 57.6539 73.8913 57.8196 73.7169 57.9361C73.5426 58.0526 73.3376 58.1148 73.128 58.1148C72.8468 58.1148 72.5771 58.0031 72.3783 57.8042C72.1795 57.6053 72.0678 57.3356 72.0678 57.0544ZM73.5692 58.8896C73.839 58.8246 74.091 58.7009 74.3076 58.5274C74.5241 58.3538 74.6997 58.1346 74.8218 57.8855C74.944 57.6363 75.0098 57.3632 75.0145 57.0858C75.0192 56.8083 74.9627 56.5331 74.849 56.28C74.7353 56.0268 74.5672 55.8018 74.3566 55.6211C74.1461 55.4403 73.8983 55.3082 73.631 55.2341C73.3636 55.16 73.0832 55.1458 72.8097 55.1925C72.5362 55.2391 72.2763 55.3455 72.0486 55.5041C72.3965 54.9739 72.8874 54.4781 73.6163 54.1931C74.8818 53.6973 76.9517 53.0769 78.524 53.0769C79.1641 53.0769 79.7213 53.1797 80.1089 53.4355C81.4394 54.3117 82.1404 56.776 82.1517 58.7378C80.1063 58.7723 76.2567 58.8412 73.5692 58.8896ZM38.5299 76.1116C38.5299 76.559 38.5338 76.9122 38.5338 77.1508C38.5338 77.8176 37.6957 78.0973 36.9927 78.2113C36.3486 78.3187 33.6367 78.3571 31.5098 78.3571H31.4488C31.2925 78.3571 31.0983 78.3624 30.934 78.2332C30.6942 78.0443 30.5404 77.6048 30.4888 76.9633C30.4735 76.7704 30.4543 76.547 30.4338 76.3005C30.3152 74.9086 30.1025 72.451 30.1893 70.6667C30.4045 71.178 30.7012 71.651 31.0679 72.0672C31.9769 73.0859 33.2544 73.6122 34.8658 73.6321C35.1076 73.6321 35.423 73.636 35.802 73.636C36.5123 73.636 37.4446 73.6314 38.5186 73.6235C38.5226 74.5997 38.5266 75.4614 38.5299 76.1116ZM57 72.618C55.6139 72.618 52.0194 72.6578 48.2148 72.7002C42.8174 72.7605 36.6998 72.8288 34.8757 72.8069C31.5674 72.7671 30.6431 70.2989 30.451 68.2336C30.4245 67.9539 30.3934 67.6298 30.3582 67.2699C30.1793 65.4367 29.8852 62.4117 29.8249 59.9587C29.9962 59.8957 30.1479 59.7887 30.2648 59.6485C30.3543 59.5524 30.3596 59.5464 30.4523 59.5464C30.5086 59.5464 30.7233 59.5464 31.0592 59.5551C31.1712 60.4876 31.5171 61.1371 32.1446 61.6183C32.9476 62.2341 34.2297 62.5462 36.1803 62.6059C40.0233 62.7205 53.3697 62.757 56.9623 62.757H57.0378C60.6303 62.757 73.9747 62.7205 77.8197 62.6059C79.7703 62.5482 81.0524 62.2341 81.8555 61.6183C82.483 61.1371 82.8288 60.4876 82.9408 59.5551C83.2767 59.5491 83.4914 59.5464 83.5477 59.5464C83.6405 59.5464 83.6458 59.5524 83.7352 59.6485C83.8522 59.7887 84.0039 59.8957 84.1752 59.9587C84.1149 62.411 83.8207 65.4367 83.6418 67.2699C83.6067 67.6298 83.5756 67.9539 83.549 68.2336C83.3569 70.2976 82.4326 72.7658 79.1243 72.8069C77.3002 72.8288 71.1826 72.7605 65.7852 72.7002C61.9807 72.6578 58.3861 72.618 57 72.618ZM83.5696 76.3044C83.5491 76.5503 83.5298 76.7737 83.5146 76.9672C83.4629 77.6088 83.3092 78.0482 83.0693 78.2371C82.905 78.3664 82.7109 78.3631 82.5545 78.3611H82.4916C80.3647 78.3611 77.6547 78.3226 77.0087 78.2153C76.3057 78.0986 75.4675 77.8176 75.4675 77.1548C75.4675 76.9162 75.4675 76.5629 75.4715 76.1155C75.4715 75.4654 75.4788 74.6037 75.4801 73.6334C76.5575 73.6413 77.4891 73.646 78.1967 73.646C78.575 73.646 78.8911 73.646 79.1329 73.642C80.7437 73.6221 82.0218 73.0959 82.9309 72.0772C83.2975 71.6609 83.5942 71.188 83.8094 70.6767C83.8949 72.455 83.6842 74.9146 83.5663 76.3044H83.5696Z" fill="#FECA20"/>
<path d="M47.2136 51.0203C47.2799 51.3205 47.4634 51.642 47.8656 51.7494C48.2844 51.864 52.4175 52.5195 56.9622 52.5195C61.4817 52.5195 65.7321 51.8567 66.135 51.7494C66.5378 51.642 66.7187 51.3185 66.7863 51.0203L70.8281 50.2481L69.1305 49.0975L69.9992 47.4081L65.4095 47.9536L65.0166 48.0006L65.0437 48.3983C65.0662 48.7211 65.0437 49.0955 64.9894 49.2327C64.6038 49.4044 62.62 50.1441 56.9993 50.1441C51.3786 50.1441 49.3955 49.4018 49.0099 49.2301C48.9589 49.0929 48.933 48.7184 48.9556 48.3956L48.9834 47.998L44.0001 47.4054L44.8687 49.0949L43.1712 50.2455L47.2136 51.0203ZM45.4531 48.4175L48.1174 48.7343C48.1174 48.8006 48.1214 48.8702 48.126 48.9418C48.1492 49.2871 48.2214 49.767 48.5812 49.9466C48.9237 50.1182 50.9393 50.9726 56.996 50.9726C63.0527 50.9726 65.0716 50.1182 65.4141 49.9466C65.7739 49.767 65.8461 49.2838 65.8693 48.9418C65.8739 48.8702 65.8766 48.7999 65.8779 48.7343L68.5422 48.4175L68.0512 49.3726L68.6952 49.8087L66.3245 50.2627L65.9554 50.3244L65.9879 50.6968C65.9912 50.789 65.9607 50.9374 65.9157 50.9494C65.5281 51.0554 61.4022 51.6904 56.9615 51.6904C52.5746 51.6904 48.4705 51.0554 48.0829 50.9494C48.0379 50.9374 48.0074 50.789 48.0107 50.6968L48.0425 50.333L45.3007 49.8087L45.9448 49.3726L45.4531 48.4175Z" fill="#FECA20"/>
<path d="M39.4025 68.3867C39.4025 67.887 38.9387 67.3296 38.2695 67.3296H36.3433C36.0876 67.3296 35.6602 67.4694 35.2958 67.8638C34.7697 68.4345 34.5504 69.3219 34.6458 70.4984L34.6756 70.8689L35.0473 70.8802C36.3142 70.9173 39.056 71.03 39.0831 71.0306L39.5416 71.0498L39.5151 70.5912C39.484 70.057 39.4025 68.6247 39.4025 68.3867ZM35.4555 70.0616C35.4422 69.1702 35.6715 68.7002 35.8802 68.457C36.1035 68.1972 36.3308 68.1627 36.3473 68.1607H38.2688C38.457 68.1607 38.5709 68.3178 38.5709 68.3867C38.5709 68.6081 38.6246 69.5837 38.6584 70.1823C37.921 70.1524 36.4507 70.0941 35.4555 70.0616Z" fill="#FECA20"/>
<path d="M100.298 61.1298V59.8142H101.614L102.543 58.8843L103.474 59.8142H104.788V61.1298L105.718 62.0604L104.788 62.9903V64.3059H103.474L102.543 65.2358L101.614 64.3059H100.298V62.9903L99.3682 62.0604L100.298 61.1298Z" stroke="#FECA20" stroke-width="1.2336" stroke-miterlimit="10"/>
<path d="M13.7015 61.1298V59.8142H12.3863L11.4567 58.8843L10.5264 59.8142H9.21188V61.1298L8.28162 62.0604L9.21188 62.9903V64.3059H10.5264L11.4567 65.2358L12.3863 64.3059H13.7015V62.9903L14.6318 62.0604L13.7015 61.1298Z" stroke="#FECA20" stroke-width="1.2336" stroke-miterlimit="10"/>
<path d="M9.60748 44.9903L10.3178 42.7639C10.9843 40.6735 12.7428 39.5998 14.5583 40.1791C16.3738 40.7583 17.1967 42.6566 16.5301 44.747L15.8199 46.9733L9.60748 44.9903ZM15.372 44.1896C15.7503 43.0039 15.2315 41.9109 14.119 41.5557C13.0065 41.2004 11.9597 41.7936 11.5813 42.9793L11.2407 44.0471L15.0314 45.2574L15.372 44.1896Z" fill="#FECA20"/>
<path d="M18.9545 36.3037L17.6466 38.8992L18.3754 39.7337L17.6698 41.1335L13.0416 35.8212L13.7466 34.4214L20.77 34.9841L20.0604 36.3919L18.9545 36.3037ZM17.6771 36.2016L15.1122 35.9935L16.8051 37.9315L17.6771 36.2016Z" fill="#FECA20"/>
<path d="M19.026 26.2034L22.8359 32.1314L21.9348 33.4133L15.0691 31.8385L15.9748 30.5487L20.8117 31.6602L18.1262 27.4846L19.026 26.2034Z" fill="#FECA20"/>
<path d="M27.091 25.3027L28.0087 26.171L24.8124 29.5512L20.0716 25.0687L21.037 24.0467L24.8601 27.6622L27.091 25.3027Z" fill="#FECA20"/>
<path d="M31.3495 22.1114L29.0702 23.9135L29.3783 24.9779L28.1492 25.9496L26.1893 19.1812L27.4184 18.2089L33.5499 21.6786L32.3129 22.6569L31.3495 22.1114ZM30.233 21.4804L27.9955 20.2105L28.7137 22.682L30.233 21.4804Z" fill="#FECA20"/>
<path d="M32.4003 16.3298L30.6511 17.3605L30.011 16.2715L34.7266 13.4984L35.3667 14.5873L33.6148 15.618L36.2811 20.1541L35.0692 20.8666L32.4003 16.3298Z" fill="#FECA20"/>
<path d="M42.2834 14.8505L38.5417 11.7022L40.0915 11.1859L42.5378 13.3844L43.2368 10.1367L44.7243 9.64163L43.6257 14.4025L44.3705 16.6361L43.0281 17.0834L42.2834 14.8505Z" fill="#FECA20"/>
<path d="M46.5385 12.5228C46.2555 10.7114 47.594 8.94369 49.4426 8.65538C51.3097 8.36375 53.1047 9.64028 53.3876 11.4517C53.6705 13.2631 52.3526 15.0361 50.4855 15.3284C48.6369 15.6173 46.8221 14.3342 46.5385 12.5228ZM51.9716 11.6731C51.7974 10.5563 50.728 9.74302 49.64 9.91335C48.5521 10.0837 47.7908 11.1833 47.9657 12.2994C48.1406 13.4155 49.21 14.2394 50.29 14.071C51.37 13.9027 52.1452 12.7991 51.971 11.6731H51.9716Z" fill="#FECA20"/>
<path d="M55.9883 8.53277C55.7244 8.77986 55.5343 9.09534 55.439 9.4441C55.6621 9.44208 55.8772 9.52751 56.0382 9.6821C56.1991 9.83668 56.2932 10.0482 56.3003 10.2713C56.3097 10.5001 56.2281 10.7234 56.0734 10.8923C55.9187 11.0612 55.7035 11.162 55.4748 11.1727C54.9447 11.1906 54.5571 10.7087 54.5339 10.0161C54.5153 9.45603 54.8188 8.84693 55.4801 8.16956L55.9883 8.53277Z" fill="#FECA20"/>
<path d="M62.243 13.6893L62.1635 14.9486L57.5195 14.657L57.9289 8.14371L59.3316 8.23186L59.0003 13.4838L62.243 13.6893Z" fill="#FECA20"/>
<path d="M72.8463 10.7419L71.0951 17.0271L69.7501 16.652L70.4749 14.0538L67.6119 13.2585L66.887 15.8566L65.5427 15.4821L67.2952 9.19623L68.6396 9.57137L67.9512 12.0416L70.8142 12.8403L71.5026 10.37L72.8463 10.7419Z" fill="#FECA20"/>
<path d="M76.5502 18.3381L73.9171 17.108L73.1047 17.8609L71.6848 17.1981L76.853 12.4108L78.2729 13.0736L77.9197 20.1117L76.4918 19.445L76.5502 18.3381ZM76.6164 17.0576L76.7489 14.4873L74.8586 16.2384L76.6164 17.0576Z" fill="#FECA20"/>
<path d="M81.6832 22.6747L81.6302 20.0826L80.7688 19.5033L79.5841 21.259L78.4326 20.4802L82.0821 15.0712L84.5138 16.7129C85.6865 17.5083 86.0423 18.8451 85.3201 19.9155C84.7781 20.7188 83.8624 21.0191 82.9501 20.7772L83.0057 23.5649L81.6832 22.6747ZM81.491 18.4422L82.6406 19.2209C83.2151 19.6087 83.8101 19.5755 84.1235 19.1109C84.4369 18.6463 84.2454 18.0816 83.6709 17.6932L82.5214 16.9177L81.491 18.4422Z" fill="#FECA20"/>
<path d="M87.5106 26.277L85.383 24.2979L84.3785 24.7619L83.231 23.6948L89.6209 20.7268L90.7678 21.7946L88.2726 28.384L87.1183 27.3103L87.5106 26.277ZM87.9644 25.078L88.8782 22.6721L86.5459 23.7584L87.9644 25.078Z" fill="#FECA20"/>
<path d="M93.8157 24.9017L94.6771 26.0013L92.3223 27.8459L96.3044 28.0805L97.3526 29.4193L93.5567 29.1628L92.3289 33.5876L91.2807 32.2488L92.1692 29.0077L90.9766 28.903L89.5407 30.0297L88.6794 28.9302L93.8157 24.9017Z" fill="#FECA20"/>
<path d="M95.7432 37.6319L94.3518 35.0795L93.2512 35.2035L92.5012 33.8275L99.502 33.0401L100.252 34.4161L95.7962 39.8742L95.0415 38.4896L95.7432 37.6319ZM96.5535 36.6378L98.1828 34.6494L95.6266 34.9397L96.5535 36.6378Z" fill="#FECA20"/>
<path d="M101.26 39.6541L100.544 37.7519L101.726 37.3065L103.654 42.4259L102.472 42.8713L101.756 40.9691L96.8331 42.8249L96.3395 41.5093L101.26 39.6541Z" fill="#FECA20"/>
<path d="M104.029 43.949L104.387 45.3084L98.0775 46.9654L97.7203 45.606L104.029 43.949Z" fill="#FECA20"/>
<path d="M17.3424 79.4892L15.6151 83.161L14.82 81.7029L15.9464 79.3115L13.3179 78.9516L12.5394 77.5266L16.5321 78.0608L18.2634 74.3969L19.0585 75.8478L17.9354 78.2478L20.5613 78.5984L21.3444 80.032L17.3424 79.4892Z" fill="#FECA20"/>
<path d="M19.9596 87.2809L18.1866 84.9784L17.1191 85.2733L16.163 84.0313L22.9538 82.1569L23.9099 83.3983L20.3638 89.4874L19.4017 88.238L19.9596 87.2809ZM20.6043 86.1727L21.9017 83.9504L19.4223 84.6384L20.6043 86.1727Z" fill="#FECA20"/>
<path d="M29.9156 89.7034L23.4554 92.5163L22.3337 91.4214L24.9873 84.8936L26.1137 85.9944L24.2426 90.5922L28.7912 88.6085L29.9156 89.7034Z" fill="#FECA20"/>
<path d="M30.7571 91.8197L29.9282 92.967L32.5832 94.8891L31.8437 95.9125L29.1888 93.9904L27.6754 96.0841L26.5364 95.2609L30.3582 89.9719L34.4291 92.9153L33.6897 93.9393L30.7571 91.8197Z" fill="#FECA20"/>
<path d="M32.0968 98.0062L33.2603 97.5422C33.5551 98.3018 34.0229 98.9182 34.7518 99.3066C35.3719 99.638 35.8424 99.5227 36.0345 99.1621C36.2532 98.7518 35.9855 98.4469 35.2129 97.7762C34.1455 96.8483 33.4657 96.0476 34.06 94.9328C34.6279 93.8684 35.8881 93.6072 37.145 94.2747C38.0832 94.7758 38.6557 95.4578 38.9738 96.2737L37.8553 96.8178C37.5631 96.1345 37.1053 95.5996 36.5527 95.3047C36.0226 95.023 35.5588 95.1297 35.3759 95.473C35.152 95.8926 35.4243 96.2094 36.2048 96.8848C37.2974 97.8233 37.9216 98.6299 37.3544 99.6943C36.7687 100.793 35.5502 101.079 34.1429 100.327C33.1457 99.7937 32.4367 98.9845 32.0968 98.0062Z" fill="#FECA20"/>
<path d="M40.34 95.9476L41.6393 96.4818L39.1586 102.518L37.8586 101.983L40.34 95.9476Z" fill="#FECA20"/>
<path d="M40.9523 102.132L45.4273 99.074L42.2118 98.1262L42.569 96.9146L47.6331 98.4072L47.3323 99.4279L42.8578 102.485L46.182 103.466L45.8249 104.677L40.6567 103.153L40.9523 102.132Z" fill="#FECA20"/>
<path d="M52.2698 104.462L52.079 105.71L47.4794 105.008L48.464 98.557L49.8554 98.7697L49.0603 103.972L52.2698 104.462Z" fill="#FECA20"/>
<path d="M53.8561 99.2569L55.2594 99.3378L54.8857 105.853L53.4824 105.772L53.8561 99.2569Z" fill="#FECA20"/>
<path d="M59.5244 102.157L62.4073 102.004L62.5498 104.688C61.9316 105.406 60.9483 105.867 59.9717 105.919C58.0846 106.019 56.4004 104.558 56.303 102.727C56.2056 100.897 57.7268 99.2748 59.6159 99.1747C60.5925 99.123 61.6188 99.4769 62.3099 100.126L61.3432 101.09C61.1254 100.875 60.8655 100.706 60.5799 100.596C60.2943 100.485 59.9889 100.434 59.6828 100.446C58.5736 100.505 57.6864 101.522 57.7461 102.651C57.8057 103.78 58.7969 104.706 59.9061 104.648C60.3622 104.619 60.7982 104.449 61.1544 104.163L61.102 103.169L59.5847 103.25L59.5244 102.157Z" fill="#FECA20"/>
<path d="M63.2561 98.9102L64.6422 98.6796L65.7123 105.119L64.3262 105.349L63.2561 98.9102Z" fill="#FECA20"/>
<path d="M72.7171 99.8216L76.0552 102.127L74.4862 102.675L72.3123 101.17L71.5278 103.708L69.9946 104.242L71.1753 100.39L67.8484 98.0811L69.4082 97.5369L71.5947 99.0382L72.3699 96.5043L73.9124 95.9661L72.7171 99.8216Z" fill="#FECA20"/>
<path d="M74.463 95.589L75.7319 94.9846L78.5359 100.877L77.2671 101.481L74.463 95.589Z" fill="#FECA20"/>
<path d="M79.4536 99.2861L80.1997 93.9175L77.336 95.6606L76.6794 94.5816L81.1896 91.8356L81.7422 92.7443L80.9968 98.1129L83.9572 96.3101L84.6138 97.3892L80.0148 100.19L79.4536 99.2861Z" fill="#FECA20"/>
<path d="M81.9409 91.3644L83.0011 90.455L86.9361 91.9331L86.0629 87.8238L87.1289 86.9084L91.3794 91.8595L90.3127 92.7748L87.6623 89.6908L88.5356 93.8001L84.6005 92.3221L87.2509 95.4067L86.1907 96.3161L81.9409 91.3644Z" fill="#FECA20"/>
<path d="M94.8367 86.2755L92.9875 88.5177L93.5129 89.4927L92.519 90.7016L89.179 84.4972L90.1728 83.2883L96.8967 85.3893L95.8936 86.6062L94.8367 86.2755ZM93.613 85.8937L91.1614 85.1235L92.3832 87.3883L93.613 85.8937Z" fill="#FECA20"/>
<path d="M93.7236 80.4933L92.6522 82.2205L91.5789 81.5577L94.4631 76.9089L95.5365 77.575L94.4644 79.3022L98.9342 82.0773L98.1934 83.2704L93.7236 80.4933Z" fill="#FECA20"/>
<path d="M94.7672 76.1467L95.3847 74.8841L101.244 77.754L100.626 79.0133L94.7672 76.1467Z" fill="#FECA20"/>
</g>
<defs>
<radialGradient id="paint0_radial" cx="0" cy="0" r="1" gradientUnits="userSpaceOnUse" gradientTransform="translate(57.0012 57) scale(56.9821 57)">
<stop stop-color="#004C3F"/>
<stop offset="1" stop-color="#003B34"/>
</radialGradient>
<clipPath id="clip0">
<rect width="114" height="114" fill="white"/>
</clipPath>
</defs>
</svg>
