<svg width="20" height="20" viewBox="0 0 20 20" fill="none" xmlns="http://www.w3.org/2000/svg">
<g clip-path="url(#clip0_1165:10350)">
<path fill-rule="evenodd" clip-rule="evenodd" d="M9 0C7.34315 0 6 1.34315 6 3V4H2C1.44772 4 1 4.44772 1 5V12C1 12.8885 1.38625 13.6868 2 14.2361V17C2 18.6569 3.34315 20 5 20H15C16.6569 20 18 18.6569 18 17V14.2361C18.6137 13.6868 19 12.8885 19 12V5C19 4.44772 18.5523 4 18 4H14V3C14 1.34315 12.6569 0 11 0H9ZM12 4V3C12 2.44772 11.5523 2 11 2H9C8.44772 2 8 2.44772 8 3V4H12ZM4 17V15H16V17C16 17.5523 15.5523 18 15 18H5C4.44772 18 4 17.5523 4 17ZM10 8.5C9.17157 8.5 8.5 9.17157 8.5 10V10.01C8.5 10.8384 9.17157 11.51 10 11.51H10.01C10.8384 11.51 11.51 10.8384 11.51 10.01V10C11.51 9.17157 10.8384 8.5 10.01 8.5H10Z" fill="white"/>
</g>
<defs>
<clipPath id="clip0_1165:10350">
<rect width="20" height="20" fill="white"/>
</clipPath>
</defs>
</svg>
