<svg width="20" height="20" viewBox="0 0 20 20" fill="none" xmlns="http://www.w3.org/2000/svg">
<g clip-path="url(#clip0_1143:11068)">
<path d="M19.8161 7.3783C19.7142 7.23422 19.5769 7.11713 19.4167 7.03762C19.2565 6.95812 19.0785 6.9187 18.8987 6.92293H4.53645C4.2334 6.93542 3.93987 7.02948 3.68853 7.19462C3.43719 7.35976 3.23791 7.58951 3.11288 7.85829C3.11081 7.88697 3.11081 7.91576 3.11288 7.94444L1.2654 14.3073V4.23074C1.2654 3.67845 1.71311 3.23074 2.2654 3.23074H5.37161L7.02295 5.4399C7.08185 5.51829 7.15899 5.58202 7.24806 5.62587C7.33713 5.66972 7.43561 5.69245 7.53544 5.6922H17.7156C17.7156 5.36579 17.5822 5.05275 17.3449 4.82194C17.1076 4.59113 16.7858 4.46147 16.4502 4.46147H7.85812L6.39658 2.5046C6.27878 2.34781 6.12451 2.22036 5.94636 2.13266C5.76822 2.04496 5.57127 1.9995 5.37161 2H1.2654C0.929793 2 0.607934 2.12967 0.370626 2.36048C0.133318 2.59128 0 2.90433 0 3.23074V17.1934C0.00987773 17.4148 0.109032 17.6236 0.275997 17.7745C0.442962 17.9253 0.664303 18.0062 0.892105 17.9995H16.6653C16.8065 18.005 16.9455 17.9643 17.0601 17.884C17.1748 17.8037 17.2585 17.6884 17.298 17.5565L19.949 8.26443C19.9984 8.11674 20.0122 7.95994 19.9891 7.80625C19.9661 7.65255 19.9069 7.5061 19.8161 7.3783Z" fill="white"/>
</g>
<defs>
<clipPath id="clip0_1143:11068">
<rect width="20" height="20" fill="white"/>
</clipPath>
</defs>
</svg>
