<svg width="20" height="20" viewBox="0 0 20 20" fill="none" xmlns="http://www.w3.org/2000/svg">
<path d="M16.3153 2H12.6847C12.2379 2.00046 11.8096 2.17818 11.4937 2.49415C11.1779 2.81011 11.0003 3.23849 11 3.68525V7.31475C11.0003 7.76151 11.1779 8.18989 11.4937 8.50585C11.8096 8.82182 12.2379 8.99954 12.6847 9H16.3153C16.7621 8.99954 17.1904 8.82182 17.5063 8.50585C17.8221 8.18989 17.9997 7.76151 18 7.31475V3.68525C17.9997 3.23849 17.8221 2.81011 17.5063 2.49415C17.1904 2.17818 16.7621 2.00046 16.3153 2ZM16.8333 7.31475C16.8333 7.45219 16.7788 7.584 16.6816 7.68124C16.5845 7.77847 16.4528 7.83318 16.3153 7.83333H12.6847C12.5472 7.83318 12.4155 7.77847 12.3183 7.68124C12.2212 7.584 12.1667 7.45219 12.1667 7.31475V3.68525C12.1667 3.54781 12.2212 3.416 12.3183 3.31876C12.4155 3.22153 12.5472 3.16682 12.6847 3.16667H16.3153C16.4528 3.16682 16.5845 3.22153 16.6816 3.31876C16.7788 3.416 16.8333 3.54781 16.8333 3.68525V7.31475Z" fill="white"/>
<path d="M16.3153 11H12.6847C12.2379 11.0005 11.8096 11.1782 11.4937 11.4941C11.1779 11.8101 11.0003 12.2385 11 12.6852V16.3147C11.0003 16.7615 11.1779 17.1899 11.4937 17.5059C11.8096 17.8218 12.2379 17.9995 12.6847 18H16.3153C16.7621 17.9995 17.1904 17.8218 17.5063 17.5059C17.8221 17.1899 17.9997 16.7615 18 16.3147V12.6852C17.9997 12.2385 17.8221 11.8101 17.5063 11.4941C17.1904 11.1782 16.7621 11.0005 16.3153 11ZM16.8333 16.3147C16.8333 16.4522 16.7788 16.584 16.6816 16.6812C16.5845 16.7785 16.4528 16.8332 16.3153 16.8333H12.6847C12.5472 16.8332 12.4155 16.7785 12.3183 16.6812C12.2212 16.584 12.1667 16.4522 12.1667 16.3147V12.6852C12.1667 12.5478 12.2212 12.416 12.3183 12.3188C12.4155 12.2215 12.5472 12.1668 12.6847 12.1667H16.3153C16.4528 12.1668 16.5845 12.2215 16.6816 12.3188C16.7788 12.416 16.8333 12.5478 16.8333 12.6852V16.3147Z" fill="white"/>
<path d="M7.31533 11H3.68467C3.23791 11.0005 2.80959 11.1782 2.49373 11.4941C2.17788 11.8101 2.00031 12.2385 2 12.6852V16.3147C2.00031 16.7615 2.17788 17.1899 2.49373 17.5059C2.80959 17.8218 3.23791 17.9995 3.68467 18H7.31533C7.76209 17.9995 8.19041 17.8218 8.50627 17.5059C8.82212 17.1899 8.99969 16.7615 9 16.3147V12.6852C8.99969 12.2385 8.82212 11.8101 8.50627 11.4941C8.19041 11.1782 7.76209 11.0005 7.31533 11ZM7.83333 16.3147C7.83333 16.4522 7.77878 16.584 7.68165 16.6812C7.58452 16.7785 7.45277 16.8332 7.31533 16.8333H3.68467C3.54723 16.8332 3.41548 16.7785 3.31835 16.6812C3.22122 16.584 3.16667 16.4522 3.16667 16.3147V12.6852C3.16667 12.5478 3.22122 12.416 3.31835 12.3188C3.41548 12.2215 3.54723 12.1668 3.68467 12.1667H7.31533C7.45277 12.1668 7.58452 12.2215 7.68165 12.3188C7.77878 12.416 7.83333 12.5478 7.83333 12.6852V16.3147Z" fill="white"/>
<path d="M7.31533 2H3.68467C3.23791 2.00046 2.80959 2.17818 2.49373 2.49415C2.17788 2.81011 2.00031 3.23849 2 3.68525V7.31475C2.00031 7.76151 2.17788 8.18989 2.49373 8.50585C2.80959 8.82182 3.23791 8.99954 3.68467 9H7.31533C7.76209 8.99954 8.19041 8.82182 8.50627 8.50585C8.82212 8.18989 8.99969 7.76151 9 7.31475V3.68525C8.99969 3.23849 8.82212 2.81011 8.50627 2.49415C8.19041 2.17818 7.76209 2.00046 7.31533 2Z" fill="white"/>
</svg>
