<svg width="20" height="20" viewBox="0 0 20 20" fill="none" xmlns="http://www.w3.org/2000/svg">
<path d="M5.83335 5.20996V5.83329H3.54169C3.04441 5.83329 2.56749 6.03084 2.21586 6.38247C1.86423 6.7341 1.66669 7.21101 1.66669 7.70829V9.58329H5.41669V8.95829C5.41669 8.79253 5.48254 8.63356 5.59975 8.51635C5.71696 8.39914 5.87593 8.33329 6.04169 8.33329C6.20745 8.33329 6.36642 8.39914 6.48363 8.51635C6.60084 8.63356 6.66669 8.79253 6.66669 8.95829V9.58329H13.3334V8.95829C13.3334 8.79253 13.3992 8.63356 13.5164 8.51635C13.6336 8.39914 13.7926 8.33329 13.9584 8.33329C14.1241 8.33329 14.2831 8.39914 14.4003 8.51635C14.5175 8.63356 14.5834 8.79253 14.5834 8.95829V9.58329H18.3334V7.70829C18.3334 7.21101 18.1358 6.7341 17.7842 6.38247C17.4325 6.03084 16.9556 5.83329 16.4584 5.83329H14.1667V5.20996C14.1667 4.71268 13.9691 4.23577 13.6175 3.88414C13.2659 3.53251 12.789 3.33496 12.2917 3.33496H7.70835C7.21107 3.33496 6.73416 3.53251 6.38253 3.88414C6.0309 4.23577 5.83335 4.71268 5.83335 5.20996ZM7.70835 4.58496H12.2917C12.4574 4.58496 12.6164 4.65081 12.7336 4.76802C12.8508 4.88523 12.9167 5.0442 12.9167 5.20996V5.83329H7.08335V5.20996C7.08335 5.0442 7.1492 4.88523 7.26641 4.76802C7.38362 4.65081 7.54259 4.58496 7.70835 4.58496Z" fill="white"/>
<path d="M18.3334 10.8335H14.5834V11.8752C14.5834 12.0409 14.5175 12.1999 14.4003 12.3171C14.2831 12.4343 14.1241 12.5002 13.9584 12.5002C13.7926 12.5002 13.6336 12.4343 13.5164 12.3171C13.3992 12.1999 13.3334 12.0409 13.3334 11.8752V10.8335H6.66669V11.8752C6.66669 12.0409 6.60084 12.1999 6.48363 12.3171C6.36642 12.4343 6.20745 12.5002 6.04169 12.5002C5.87593 12.5002 5.71696 12.4343 5.59975 12.3171C5.48254 12.1999 5.41669 12.0409 5.41669 11.8752V10.8335H1.66669V14.7893C1.66669 15.2866 1.86423 15.7635 2.21586 16.1152C2.56749 16.4668 3.04441 16.6643 3.54169 16.6643H16.4584C16.9556 16.6643 17.4325 16.4668 17.7842 16.1152C18.1358 15.7635 18.3334 15.2866 18.3334 14.7893V10.8335Z" fill="white"/>
</svg>
