<svg width="20" height="20" viewBox="0 0 20 20" fill="none" xmlns="http://www.w3.org/2000/svg">
<path d="M7 3C8.93375 3 10.5 4.49167 10.5 6.33333C10.5 8.175 8.93375 9.66667 7 9.66667C5.06625 9.66667 3.5 8.175 3.5 6.33333C3.5 4.49167 5.06625 3 7 3ZM10.5 11.7833C10.5 12.6667 10.255 14.725 8.58375 17.025L7.875 13L8.6975 11.4333C8.155 11.375 7.58625 11.3333 7 11.3333C6.41375 11.3333 5.845 11.375 5.3025 11.4333L6.125 13L5.41625 17.025C3.745 14.725 3.5 12.6667 3.5 11.7833C1.40875 12.3667 0 14.75 0 16V18H14V16C14 14.5 12.5 12.5 10.5 11.7833Z" fill="white"/>
<path d="M13.2139 12C13.9023 12.4757 14.4656 13.0804 14.8641 13.7715C15.2627 14.4626 15.4868 15.2232 15.5207 16V18H20V16C20 16 20 12.37 13.2139 12Z" fill="white"/>
<path d="M11 3.59005C11.6366 3.20201 12.3905 2.99622 13.1613 3.00005C14.2007 3.00005 15.1976 3.3688 15.9327 4.02518C16.6677 4.68155 17.0806 5.57179 17.0806 6.50004C17.0806 7.42829 16.6677 8.31853 15.9327 8.97491C15.1976 9.63128 14.2007 10 13.1613 10C12.3905 10.0039 11.6366 9.79807 11 9.41003C11.6802 8.5613 12.046 7.54375 12.046 6.50004C12.046 5.45633 11.6802 4.43878 11 3.59005Z" fill="white"/>
</svg>
