<svg width="16" height="16" viewBox="0 0 16 16" fill="none" xmlns="http://www.w3.org/2000/svg">
<g clip-path="url(#clip0)">
<path d="M2.67014 8.35073C2.38622 8.35073 2.11064 8.38413 1.83507 8.42589V4.17537H15.1962V15.0313H7.3883C7.57202 14.5052 7.68058 13.9457 7.68058 13.3612C7.68058 10.5971 5.43423 8.35073 2.67014 8.35073ZM11.0209 8.35073V7.09812C11.0209 6.8643 10.8372 6.68058 10.6033 6.68058H6.42797C6.19415 6.68058 6.01043 6.8643 6.01043 7.09812V8.35073H11.0209ZM0.999995 3.34029H16.0313V0H0.999995V3.34029Z" fill="#00937C"/>
<path d="M6 12L5.072 11L3.536 12.5L2 14L1 13L0 14L2 16L6 12Z" fill="#00937C"/>
</g>
<defs>
<clipPath id="clip0">
<rect width="16" height="16" fill="white" transform="matrix(-1 0 0 1 16 0)"/>
</clipPath>
</defs>
</svg>
