<svg width="16" height="16" viewBox="0 0 16 16" fill="none" xmlns="http://www.w3.org/2000/svg">
<path d="M0.842105 3.36842H16V0H0.842105V3.36842ZM7.57895 13.4737C7.57895 14.0632 7.46947 14.6274 7.28421 15.1579H15.1579V4.21053H1.68421V8.49684C1.96211 8.45474 2.24 8.42105 2.52632 8.42105C5.31368 8.42105 7.57895 10.6863 7.57895 13.4737ZM5.89474 8.42105V7.15789C5.89474 6.92211 6.08 6.73684 6.31579 6.73684H10.5263C10.7621 6.73684 10.9474 6.92211 10.9474 7.15789V8.42105H5.89474Z" fill="#FF0303"/>
<path d="M1.80272 13L0 14.7966L1.20068 16L2.9983 14.1949L4.79593 16L6 14.7966L4.19389 13L6 11.2034L4.79593 10L2.9983 11.8051L1.20068 10L0 11.2034L1.80272 13Z" fill="#FF0303"/>
</svg>
