<svg width="20" height="16" viewBox="0 0 20 16" fill="none" xmlns="http://www.w3.org/2000/svg">
<path d="M10.9302 4.03337C10.9302 3.43343 10.7529 2.84697 10.4208 2.34814C10.0888 1.84932 9.61675 1.46053 9.06452 1.23094C8.51228 1.00136 7.90461 0.941289 7.31836 1.05833C6.7321 1.17537 6.1936 1.46427 5.77093 1.88849C5.34827 2.3127 5.06043 2.85319 4.94381 3.4416C4.8272 4.03 4.88705 4.6399 5.1158 5.19417C5.34454 5.74844 5.73191 6.22218 6.22891 6.55548C6.72591 6.88879 7.31022 7.06669 7.90796 7.06669C8.70951 7.06669 9.47822 6.74711 10.045 6.17825C10.6118 5.60939 10.9302 4.83786 10.9302 4.03337ZM13.9006 8.80002C14.4314 9.21233 14.8658 9.73639 15.1731 10.3353C15.4804 10.9342 15.6532 11.5935 15.6794 12.2667V14H19.1334V12.2667C19.1334 12.2667 19.1333 9.12068 13.9006 8.80002ZM13.0889 1.00005C12.4946 0.996724 11.9133 1.17507 11.4224 1.51138C11.9469 2.24695 12.2289 3.12882 12.2289 4.03337C12.2289 4.93792 11.9469 5.81979 11.4224 6.55536C11.9133 6.89166 12.4946 7.07001 13.0889 7.06669C13.8905 7.06669 14.6592 6.74711 15.2259 6.17825C15.7927 5.60939 16.1111 4.83786 16.1111 4.03337C16.1111 3.22888 15.7927 2.45734 15.2259 1.88849C14.6592 1.31963 13.8905 1.00005 13.0889 1.00005Z" fill="black"/>
<path d="M7.90793 8.79997C11.7246 8.79997 14.8159 10.3513 14.8159 12.2666V14H1V12.2666C1 10.3513 4.0913 8.79997 7.90793 8.79997Z" fill="black"/>
</svg>
