<svg width="16" height="16" viewBox="0 0 16 16" fill="none" xmlns="http://www.w3.org/2000/svg">
<path d="M8.5 1C9.42826 1 10.3185 1.36875 10.9749 2.02513C11.6313 2.6815 12 3.57174 12 4.5C12 5.42826 11.6313 6.3185 10.9749 6.97487C10.3185 7.63125 9.42826 8 8.5 8C7.57174 8 6.6815 7.63125 6.02513 6.97487C5.36875 6.3185 5 5.42826 5 4.5C5 3.57174 5.36875 2.6815 6.02513 2.02513C6.6815 1.36875 7.57174 1 8.5 1ZM8.5 9.75C12.3675 9.75 15.5 11.3162 15.5 13.25V15H7.1875C7.47631 14.3069 7.625 13.5634 7.625 12.8125C7.62125 11.775 7.3338 10.7583 6.79375 9.8725C7.345 9.8025 7.905 9.75 8.5 9.75Z" fill="#9e9e9e"/>
<path d="M3 10C1.33333 10 0 11.3333 0 13C0 14.6667 1.33333 16 3 16C4.66667 16 6 14.6667 6 13C6 11.3333 4.66667 10 3 10ZM3 11C4.10667 11 5 11.8933 5 13C5 13.3733 4.9 13.72 4.72 14L2 11.28C2.28 11.1 2.62667 11 3 11ZM1.28 12L4 14.72C3.72 14.9 3.37333 15 3 15C1.89333 15 1 14.1067 1 13C1 12.6267 1.1 12.28 1.28 12Z" fill="#FF0303"/>
</svg>
