<svg width="20" height="16" viewBox="0 0 20 16" fill="none" xmlns="http://www.w3.org/2000/svg">
<path d="M9.34185 12.7672C8.52473 12.4683 7.79758 11.968 7.22876 11.3133C6.65993 10.6586 6.26813 9.87099 6.09019 9.02455L4.86342 3.29323C4.68606 2.50068 5.19598 1.7228 5.99412 1.55402L13.2143 0.034959L13.2365 0.0276206C14.0272 -0.126487 14.8032 0.379866 14.9658 1.15774L15.2244 2.38326L18.4391 3.06574H18.4613C19.2373 3.24186 19.7398 4.01973 19.5772 4.79761L18.3504 10.5363C18.2088 11.1955 17.9379 11.8205 17.5529 12.3758C17.168 12.931 16.6767 13.4054 16.1071 13.7721C15.5375 14.1387 14.9008 14.3903 14.2332 14.5125C13.5657 14.6347 12.8804 14.6252 12.2166 14.4843C11.0905 14.251 10.0772 13.6457 9.34185 12.7672V12.7672ZM18.1287 4.49673L10.9086 2.97034L9.6818 8.709V8.73101C9.26056 10.6977 10.5391 12.6351 12.527 13.0534C14.515 13.4716 16.4807 12.2094 16.902 10.2354L18.1287 4.49673ZM15.1727 10.6023C14.9392 10.9948 14.5874 11.3044 14.167 11.4875C13.7466 11.6705 13.2789 11.7177 12.83 11.6224C12.3825 11.5273 11.9761 11.2958 11.6674 10.9604C11.3587 10.6249 11.1632 10.2022 11.1081 9.75105L15.1727 10.6023ZM9.6079 2.28786L6.3045 2.99235L7.53127 8.72367L7.53866 8.74569C7.64951 9.26672 7.87121 9.73638 8.17421 10.14C8.10031 9.57493 8.11509 8.98786 8.24072 8.40078L8.5585 6.93309C8.22594 6.87439 7.93772 6.69093 7.78253 6.42674C7.82687 5.9791 8.19638 5.58282 8.7063 5.46541H8.89105L9.46748 2.66946C9.49704 2.53003 9.54138 2.40528 9.6079 2.28786V2.28786ZM14.4558 7.4688C14.6923 7.07986 15.1948 6.87439 15.7048 6.98446C16.2147 7.0872 16.5842 7.47614 16.6507 7.93112C16.4068 8.31272 15.9117 8.5182 15.3944 8.40078C14.8845 8.30538 14.515 7.91644 14.4558 7.4688V7.4688ZM10.8494 6.7056C11.0859 6.31666 11.5811 6.11119 12.091 6.22126C12.5861 6.324 12.9778 6.72028 13.0369 7.16792C12.793 7.54952 12.2979 7.76234 11.788 7.66694C11.2781 7.54218 10.9086 7.15325 10.8494 6.7056V6.7056ZM12.1944 1.74482L13.6429 2.05303L13.5247 1.46596L12.1944 1.74482Z" fill="#9e9e9e"/>
<path d="M3 10C1.33333 10 0 11.3333 0 13C0 14.6667 1.33333 16 3 16C4.66667 16 6 14.6667 6 13C6 11.3333 4.66667 10 3 10ZM3 11C4.10667 11 5 11.8933 5 13C5 13.3733 4.9 13.72 4.72 14L2 11.28C2.28 11.1 2.62667 11 3 11ZM1.28 12L4 14.72C3.72 14.9 3.37333 15 3 15C1.89333 15 1 14.1067 1 13C1 12.6267 1.1 12.28 1.28 12Z" fill="#FF0303"/>
</svg>
