<svg width="20" height="16" viewBox="0 0 20 16" fill="none" xmlns="http://www.w3.org/2000/svg">
<path d="M7.51366 13.7672C6.69655 13.4683 5.96939 12.968 5.40057 12.3133C4.83175 11.6586 4.43995 10.871 4.262 10.0245L3.03524 4.29323C2.85787 3.50068 3.36779 2.7228 4.16593 2.55402L11.3861 1.03496L11.4083 1.02762C12.199 0.873513 12.975 1.37987 13.1376 2.15774L13.3962 3.38326L16.6109 4.06574H16.6331C17.4091 4.24186 17.9116 5.01973 17.749 5.79761L16.5222 11.5363C16.3807 12.1955 16.1097 12.8205 15.7248 13.3758C15.3398 13.931 14.8486 14.4054 14.279 14.7721C13.7094 15.1387 13.0726 15.3903 12.405 15.5125C11.7375 15.6347 11.0523 15.6252 10.3884 15.4843C9.2623 15.251 8.24898 14.6457 7.51366 13.7672V13.7672ZM16.3005 5.49673L9.08037 3.97034L7.85361 9.709V9.73101C7.43237 11.6977 8.71087 13.6351 10.6988 14.0534C12.6868 14.4716 14.6525 13.2094 15.0738 11.2354L16.3005 5.49673ZM13.3445 11.6023C13.111 11.9948 12.7592 12.3044 12.3388 12.4875C11.9184 12.6705 11.4507 12.7177 11.0018 12.6224C10.5543 12.5273 10.1479 12.2958 9.83923 11.9604C9.53055 11.6249 9.33502 11.2022 9.27991 10.7511L13.3445 11.6023ZM7.77971 3.28786L4.47632 3.99235L5.70308 9.72367L5.71047 9.74569C5.82132 10.2667 6.04303 10.7364 6.34602 11.14C6.27212 10.5749 6.2869 9.98786 6.41253 9.40078L6.73031 7.93309C6.39775 7.87439 6.10954 7.69093 5.95434 7.42674C5.99869 6.9791 6.36819 6.58282 6.87811 6.46541H7.06287L7.6393 3.66946C7.66886 3.53003 7.7132 3.40528 7.77971 3.28786V3.28786ZM12.6276 8.4688C12.8641 8.07986 13.3667 7.87439 13.8766 7.98446C14.3865 8.0872 14.756 8.47614 14.8225 8.93112C14.5786 9.31272 14.0835 9.5182 13.5662 9.40078C13.0563 9.30538 12.6868 8.91644 12.6276 8.4688V8.4688ZM9.02125 7.7056C9.25774 7.31666 9.75288 7.11119 10.2628 7.22126C10.7579 7.324 11.1496 7.72028 11.2087 8.16792C10.9649 8.54952 10.4697 8.76234 9.9598 8.66694C9.44988 8.54218 9.08038 8.15325 9.02125 7.7056V7.7056ZM10.3663 2.74482L11.8147 3.05303L11.6965 2.46596L10.3663 2.74482Z" fill="black"/>
</svg>
