<svg width="16" height="16" viewBox="0 0 16 16" fill="none" xmlns="http://www.w3.org/2000/svg">
<path d="M15.8529 5.70601C15.7713 5.57994 15.6615 5.47749 15.5334 5.40792C15.4052 5.33835 15.2628 5.30386 15.119 5.30756H3.62916C3.38672 5.3185 3.1519 5.40079 2.95083 5.54529C2.74976 5.68979 2.59033 5.89082 2.4903 6.126C2.48865 6.1511 2.48865 6.17629 2.4903 6.20138L1.01232 11.7689V2.07689H4.29729L5.61836 4.00991C5.66548 4.07851 5.72719 4.13427 5.79845 4.17264C5.86971 4.21101 5.94849 4.23089 6.02835 4.23067H14.1724C14.1724 3.94506 14.0658 3.67115 13.8759 3.4692C13.6861 3.26724 13.4286 3.15378 13.1601 3.15378H6.28649L5.11727 1.44153C5.02303 1.30434 4.8996 1.19281 4.75709 1.11607C4.61458 1.03934 4.45702 0.999563 4.29729 1H1.01232C0.743834 1 0.486347 1.11346 0.296501 1.31542C0.106655 1.51737 0 1.79128 0 2.07689V14.2942C0.00790218 14.488 0.0872253 14.6706 0.220797 14.8027C0.35437 14.9347 0.531443 15.0054 0.713684 14.9996H13.3322C13.4452 15.0044 13.5564 14.9688 13.6481 14.8985C13.7398 14.8283 13.8068 14.7274 13.8384 14.6119L15.9592 6.48137C15.9988 6.35215 16.0097 6.21495 15.9913 6.08046C15.9729 5.94598 15.9255 5.81784 15.8529 5.70601Z" fill="#00937C"/>
</svg>
