<svg width="20" height="20" viewBox="0 0 20 20" fill="none" xmlns="http://www.w3.org/2000/svg">
<g clip-path="url(#clip0_1207:10754)">
<path d="M4.95152 14.1659C2.21679 14.1404 0.0209633 11.8543 0.0470336 9.05985C0.0731039 6.26539 2.3112 4.02068 5.04593 4.0462C7.22909 4.06656 9.06864 5.52757 9.70869 7.53777L10.1512 7.53528L10.6703 7.53242L10.9388 7.531L11.2124 7.53286L12.3471 7.54047C12.7335 7.54342 13.126 7.55419 13.5185 7.56074L14.1065 7.57204L14.3991 7.57775L14.6899 7.58702L15.8243 7.62325L16.3662 7.64058C16.4548 7.64319 16.5424 7.64585 16.6289 7.65158C16.7153 7.65929 16.8007 7.66779 16.885 7.68344C16.9692 7.69839 17.0522 7.71601 17.1339 7.74003L17.2556 7.77481L17.3752 7.81509C17.5335 7.8676 17.6863 7.92136 17.8331 7.96825C17.9799 8.01544 18.1206 8.05447 18.2543 8.11063C18.3879 8.16858 18.5146 8.23005 18.6337 8.2895C18.8718 8.40817 19.0795 8.50825 19.2504 8.59935L19.4785 8.71822L19.6471 8.80979C19.6929 8.83437 19.728 8.85393 19.7516 8.86747L19.7875 8.88768C19.8 8.89481 19.8132 8.90293 19.8253 8.91125C20.0608 9.07247 20.1238 9.39833 19.9659 9.63903L19.7778 9.92571L19.7686 9.93979C19.7625 9.94952 19.7533 9.96301 19.7413 9.97934L19.6965 10.0417C19.6788 10.0642 19.6582 10.0922 19.635 10.1199C19.5419 10.2339 19.4055 10.3838 19.2325 10.5253C19.0594 10.6682 18.8495 10.8073 18.6094 10.9062C18.5493 10.9276 18.4873 10.9663 18.4239 10.9485C18.3605 10.935 18.2957 10.8696 18.2294 10.79C18.1631 10.7103 18.095 10.6301 18.0248 10.6002C17.9897 10.5833 17.9541 10.5826 17.9181 10.581C17.8821 10.5789 17.8457 10.5769 17.8089 10.5779C17.6811 10.5778 17.5482 10.593 17.4114 10.6216C17.3683 10.3131 17.111 10.0744 16.7967 10.0715C16.5037 10.0688 16.2564 10.2719 16.1847 10.5485C16.1959 10.5957 16.2024 10.6448 16.2019 10.6956C16.1988 11.0236 15.9361 11.2871 15.6152 11.2841L13.8561 11.2676C13.5727 11.265 13.3388 11.0554 13.29 10.7806L13.2791 10.7805L13.2801 10.6802C13.2834 10.3259 13.0041 10.1311 12.6575 10.1279C12.3586 10.1251 12.1077 10.2659 12.0419 10.5316L12.0413 10.5973C12.0408 10.6442 12.0345 10.6896 12.024 10.7333L12.0237 10.7705L12.0144 10.7703C11.9395 11.0131 11.7165 11.1882 11.4545 11.1858C11.1911 11.1833 10.9706 11.002 10.9015 10.7558C10.633 10.7513 10.3722 10.7446 10.1214 10.7402L9.68882 10.7315C9.01993 12.7452 7.14577 14.1864 4.95152 14.1659ZM4.97269 11.8972L5.02477 6.31486C5.02852 5.9119 4.66622 5.60691 4.28064 5.69138C2.75072 6.02642 1.59691 7.40881 1.58137 9.07416C1.56583 10.7395 2.69366 12.1432 4.21705 12.5067C4.60105 12.5984 4.96893 12.3002 4.97269 11.8972Z" fill="#000"/>
</g>
<defs>
<clipPath id="clip0_1207:10754">
<rect width="20" height="20" fill="white"/>
</clipPath>
</defs>
</svg>
