<svg width="16" height="16" viewBox="0 0 16 16" fill="none" xmlns="http://www.w3.org/2000/svg">
<mask id="path-1-inside-1" fill="white">
<path d="M0 8L6 16L16 0"/>
</mask>
<path d="M1.6 6.8L0.4 5.2L-2.8 7.6L-1.6 9.2L1.6 6.8ZM6 16L4.4 17.2C4.79568 17.7276 5.426 18.0262 6.08488 17.9982C6.74375 17.9702 7.34648 17.6192 7.696 17.06L6 16ZM17.696 1.06L18.756 -0.635999L15.364 -2.75599L14.304 -1.06L17.696 1.06ZM-1.6 9.2L4.4 17.2L7.6 14.8L1.6 6.8L-1.6 9.2ZM7.696 17.06L17.696 1.06L14.304 -1.06L4.304 14.94L7.696 17.06Z" fill="#0FA958" mask="url(#path-1-inside-1)"/>
</svg>
