<svg width="16" height="16" viewBox="0 0 16 16" fill="none" xmlns="http://www.w3.org/2000/svg">
<path d="M2.94737 7.57895C2.52632 7.57895 2.10526 7.6379 1.68421 7.73053V4.21053H15.1579V15.1579H8C8.34659 14.3261 8.48245 13.4216 8.39553 12.5247C8.30861 11.6277 8.0016 10.7662 7.50175 10.0164C7.0019 9.2666 6.32467 8.65182 5.53017 8.22662C4.73567 7.80142 3.84849 7.57895 2.94737 7.57895ZM10.9474 8.42105V7.15789C10.9474 6.92211 10.7621 6.73684 10.5263 6.73684H6.31579C6.08 6.73684 5.89474 6.92211 5.89474 7.15789V8.42105H10.9474ZM0.842105 3.36842H16V0H0.842105V3.36842Z" fill="#9e9e9e"/>
<path d="M3 10C1.33333 10 0 11.3333 0 13C0 14.6667 1.33333 16 3 16C4.66667 16 6 14.6667 6 13C6 11.3333 4.66667 10 3 10ZM3 11C4.10667 11 5 11.8933 5 13C5 13.3733 4.9 13.72 4.72 14L2 11.28C2.28 11.1 2.62667 11 3 11ZM1.28 12L4 14.72C3.72 14.9 3.37333 15 3 15C1.89333 15 1 14.1067 1 13C1 12.6267 1.1 12.28 1.28 12Z" fill="#FF0303"/>
</svg>
