<svg width="16" height="16" viewBox="0 0 16 16" fill="none" xmlns="http://www.w3.org/2000/svg">
<path fill-rule="evenodd" clip-rule="evenodd" d="M8.1782 0.00198517C7.11281 -0.0217529 6.05341 0.167604 5.06221 0.558939C4.07101 0.950274 3.16798 1.5357 2.40615 2.28084C1.64431 3.02598 1.03903 3.91582 0.625837 4.89811C0.212643 5.8804 -0.000133679 6.93535 6.30092e-08 8.001C0.000133805 9.06666 0.213175 10.1216 0.626615 11.1037C1.04006 12.0859 1.64556 12.9756 2.40758 13.7206C3.1696 14.4655 4.07278 15.0507 5.06408 15.4418C6.05538 15.8329 7.11482 16.022 8.18021 15.998C10.2704 15.9509 12.2591 15.0874 13.7206 13.5924C15.1821 12.0974 16.0003 10.0897 16 7.999C15.9997 5.9083 15.181 3.90077 13.7192 2.40615C12.2573 0.911517 10.2684 0.0485565 8.1782 0.00198517V0.00198517ZM2.18874 7.99998C2.19087 6.41222 2.82261 4.89011 3.94542 3.76749C5.06823 2.64487 6.59044 2.01338 8.1782 2.01152C9.5373 2.01152 10.788 2.47124 11.7938 3.23712L3.41534 11.6165C2.62042 10.5784 2.18937 9.30749 2.18874 7.99998V7.99998ZM8.1782 13.9884C6.93737 13.989 5.72749 13.6011 4.71823 12.8793L13.0585 4.539C13.7796 5.54893 14.1671 6.75901 14.1667 7.99998C14.1645 9.58756 13.5329 11.1095 12.4103 12.2321C11.2877 13.3547 9.76579 13.9863 8.1782 13.9884V13.9884Z" fill="#FF5F06"/>
</svg>
