<svg width="20" height="16" viewBox="0 0 20 16" fill="none" xmlns="http://www.w3.org/2000/svg">
<g clip-path="url(#clip0)">
<path d="M11.3636 4.03337C11.3636 3.43343 11.177 2.84697 10.8274 2.34814C10.4778 1.84932 9.98085 1.46053 9.39945 1.23094C8.81805 1.00136 8.17829 0.941289 7.56108 1.05833C6.94386 1.17537 6.37692 1.46427 5.93193 1.88849C5.48695 2.3127 5.18391 2.85319 5.06114 3.4416C4.93837 4.03 5.00138 4.6399 5.2422 5.19417C5.48303 5.74844 5.89085 6.22218 6.4141 6.55548C6.93734 6.88879 7.55252 7.06669 8.18182 7.06669C9.02569 7.06669 9.835 6.74711 10.4317 6.17825C11.0284 5.60939 11.3636 4.83786 11.3636 4.03337ZM14.4909 8.80002C15.0498 9.21233 15.5071 9.73639 15.8306 10.3353C16.1542 10.9342 16.3361 11.5935 16.3636 12.2667V14H20V12.2667C20 12.2667 20 9.12068 14.4909 8.80002ZM13.6364 1.00005C13.0106 0.996724 12.3987 1.17507 11.8818 1.51138C12.434 2.24695 12.731 3.12882 12.731 4.03337C12.731 4.93792 12.434 5.81979 11.8818 6.55536C12.3987 6.89166 13.0106 7.07001 13.6364 7.06669C14.4802 7.06669 15.2895 6.74711 15.8862 6.17825C16.483 5.60939 16.8182 4.83786 16.8182 4.03337C16.8182 3.22888 16.483 2.45734 15.8862 1.88849C15.2895 1.31963 14.4802 1.00005 13.6364 1.00005Z" fill="#9e9e9e"/>
<path d="M8.76382 9C12.7618 9 16 10.4917 16 12.3333V14H7.40703C7.70559 13.3399 7.8593 12.6318 7.8593 11.9167C7.85542 10.9286 7.55827 9.96033 7 9.11667C7.56985 9.05 8.14874 9 8.76382 9Z" fill="#9e9e9e"/>
<path d="M3 9C1.33333 9 0 10.3333 0 12C0 13.6667 1.33333 15 3 15C4.66667 15 6 13.6667 6 12C6 10.3333 4.66667 9 3 9ZM3 10C4.10667 10 5 10.8933 5 12C5 12.3733 4.9 12.72 4.72 13L2 10.28C2.28 10.1 2.62667 10 3 10ZM1.28 11L4 13.72C3.72 13.9 3.37333 14 3 14C1.89333 14 1 13.1067 1 12C1 11.6267 1.1 11.28 1.28 11Z" fill="#FF0303"/>
</g>
<defs>
<clipPath id="clip0">
<rect width="20" height="16" fill="white"/>
</clipPath>
</defs>
</svg>
