<svg width="20" height="16" viewBox="0 0 20 16" fill="none" xmlns="http://www.w3.org/2000/svg">
<path d="M11.3436 4.00699C11.3436 3.41227 11.1566 2.83091 10.8061 2.33642C10.4557 1.84193 9.95761 1.45652 9.37486 1.22894C8.79211 1.00135 8.15087 0.941799 7.53223 1.05782C6.91358 1.17385 6.34532 1.46023 5.89931 1.88076C5.45329 2.30129 5.14955 2.83707 5.02649 3.42037C4.90344 4.00366 4.96659 4.60825 5.20797 5.1577C5.44936 5.70715 5.85812 6.17677 6.38258 6.50717C6.90705 6.83758 7.52364 7.01394 8.15441 7.01394C9.00023 7.01394 9.81142 6.69713 10.4095 6.13322C11.0076 5.56931 11.3436 4.80448 11.3436 4.00699ZM14.4781 8.73219C15.0383 9.14092 15.4966 9.66042 15.8209 10.2541C16.1452 10.8479 16.3276 11.5014 16.3552 12.1687V13.887H20V12.1687C20 12.1687 20 9.05007 14.4781 8.73219ZM13.6216 1.00005C12.9944 0.996752 12.381 1.17355 11.863 1.50693C12.4165 2.2361 12.7141 3.11031 12.7141 4.00699C12.7141 4.90367 12.4165 5.77788 11.863 6.50705C12.381 6.84043 12.9944 7.01723 13.6216 7.01394C14.4674 7.01394 15.2786 6.69713 15.8767 6.13322C16.4748 5.56931 16.8108 4.80448 16.8108 4.00699C16.8108 3.2095 16.4748 2.44467 15.8767 1.88076C15.2786 1.31685 14.4674 1.00005 13.6216 1.00005Z" fill="#FF0303"/>
<path d="M8.79676 8.5174C12.6132 8.5174 15.7043 10.1193 15.7043 12.0971V13.887H7.50159C7.78659 13.178 7.93332 12.4176 7.93332 11.6496C7.92962 10.5885 7.64596 9.5487 7.11304 8.64269C7.65701 8.57109 8.20962 8.5174 8.79676 8.5174Z" fill="#FF0303"/>
<path d="M1.78704 11.913L0 13.694L1.19024 14.887L2.97223 13.0976L4.75423 14.887L5.94783 13.694L4.15742 11.913L5.94783 10.1321L4.75423 8.93913L2.97223 10.7285L1.19024 8.93913L0 10.1321L1.78704 11.913Z" fill="#FF0303"/>
</svg>
