<?xml version="1.0" standalone="no"?>
<!DOCTYPE svg PUBLIC "-//W3C//DTD SVG 20010904//EN"
 "http://www.w3.org/TR/2001/REC-SVG-20010904/DTD/svg10.dtd">
<svg version="1.0" xmlns="http://www.w3.org/2000/svg"
 width="700.000000pt" height="700.000000pt" viewBox="0 0 700.000000 700.000000"
 preserveAspectRatio="xMidYMid meet">
<metadata>
Created by potrace 1.14, written by Peter Selinger 2001-2017
</metadata>
<g transform="translate(0.000000,700.000000) scale(0.100000,-0.100000)"
fill="#000000" stroke="none">
<path d="M3274 6989 c-1234 -79 -2341 -815 -2900 -1929 -244 -487 -365 -996
-366 -1545 -1 -240 11 -385 47 -601 193 -1149 965 -2139 2038 -2614 254 -112
565 -204 837 -249 219 -36 329 -44 575 -44 327 0 570 31 867 107 1234 319
2206 1298 2518 2535 70 278 102 547 102 851 0 465 -83 897 -253 1312 -574
1399 -1964 2273 -3465 2177z m531 -119 c986 -92 1869 -603 2454 -1418 317
-444 516 -952 598 -1527 25 -182 25 -675 0 -850 -62 -423 -170 -768 -347
-1112 -538 -1043 -1553 -1728 -2718 -1833 -169 -16 -574 -7 -732 15 -618 86
-1181 326 -1662 709 -615 489 -1050 1193 -1207 1951 -56 271 -66 373 -66 695
0 322 10 424 66 695 166 802 638 1534 1311 2031 481 356 1080 586 1674 643
129 12 501 13 629 1z"/>
<path d="M3180 6629 c-942 -105 -1774 -608 -2294 -1389 -261 -391 -421 -809
-499 -1300 -18 -116 -21 -177 -21 -440 0 -330 10 -429 69 -695 35 -159 130
-440 200 -594 437 -965 1329 -1648 2370 -1815 170 -27 282 -36 491 -36 368 0
668 48 1006 161 1042 348 1845 1250 2072 2324 52 250 60 340 60 655 0 315 -8
405 -60 655 -197 934 -824 1737 -1689 2164 -204 101 -393 171 -610 226 -277
71 -404 87 -730 90 -154 2 -318 -1 -365 -6z m247 -140 c9 -9 8 -18 -4 -35 -15
-23 -14 -25 11 -45 14 -11 26 -29 26 -40 0 -23 -34 -59 -55 -59 -8 0 -24 9
-35 20 -29 29 -26 86 5 133 28 40 35 43 52 26z m208 -154 l-7 -165 65 0 c35 0
79 -3 96 -6 28 -6 31 -10 31 -46 l0 -40 -97 6 c-54 4 -120 9 -147 13 l-49 5 7
72 c3 39 9 128 12 199 l7 127 45 0 44 0 -7 -165z m-443 98 c63 -46 90 -103 86
-180 -3 -50 -10 -71 -35 -105 -83 -116 -246 -122 -341 -14 -62 70 -65 160 -9
243 46 68 103 96 189 91 56 -3 74 -9 110 -35z m1020 -19 c3 -2 -2 -32 -13 -67
-10 -34 -19 -67 -19 -74 0 -11 69 -35 138 -49 29 -6 30 -5 47 60 10 37 22 69
26 72 16 10 79 -8 79 -23 0 -8 -23 -97 -52 -199 -56 -201 -47 -188 -115 -163
l-22 8 20 70 c10 39 19 75 19 79 0 9 -159 57 -165 50 -2 -2 -13 -36 -25 -76
l-21 -74 -37 7 c-20 4 -40 10 -43 13 -4 4 13 77 37 162 24 85 49 171 54 192
10 36 10 36 48 26 20 -6 40 -12 44 -14z m-1466 -21 c-3 -10 -19 -77 -35 -150
l-30 -132 19 -57 c11 -31 20 -62 20 -69 0 -14 -71 -38 -81 -27 -4 4 -16 36
-28 72 -21 62 -27 68 -132 155 -60 50 -109 93 -109 96 0 6 69 29 88 29 7 0 42
-27 78 -60 37 -34 70 -57 74 -53 4 4 15 47 25 95 l17 87 42 15 c54 19 58 19
52 -1z m2019 -174 l47 -21 -6 -71 c-3 -40 -8 -136 -12 -214 -4 -79 -11 -143
-16 -143 -5 0 -26 9 -47 19 -33 17 -37 23 -33 50 4 28 0 32 -67 65 -82 42 -84
42 -120 17 -26 -19 -27 -19 -69 3 l-42 22 157 146 c87 81 159 147 159 148 1 0
23 -9 49 -21z m-2612 -78 c9 -16 17 -31 17 -34 0 -3 -23 -19 -51 -36 l-50 -32
32 -57 c18 -31 49 -84 69 -117 66 -108 64 -101 26 -124 -18 -12 -36 -21 -39
-21 -4 0 -39 55 -78 123 -94 160 -88 154 -135 125 -22 -14 -44 -27 -51 -31 -6
-4 -19 7 -32 28 l-20 35 22 14 c45 29 262 156 267 156 3 0 13 -13 23 -29z
m2981 -127 c100 -69 126 -103 126 -168 0 -43 -4 -53 -39 -87 -32 -33 -45 -39
-80 -39 l-41 0 0 -85 0 -86 -45 31 -45 31 0 78 c0 73 -2 80 -25 95 -24 16 -25
16 -61 -38 l-36 -55 -34 22 c-19 12 -34 25 -34 30 0 13 213 327 222 327 5 0
46 -25 92 -56z m-1474 -74 c169 -13 293 -33 440 -70 607 -153 1144 -547 1476
-1082 466 -753 491 -1690 66 -2463 -180 -329 -441 -617 -757 -837 -442 -309
-1010 -467 -1537 -428 -762 56 -1422 429 -1853 1045 -416 596 -544 1341 -351
2045 258 939 1083 1657 2041 1774 214 26 298 29 475 16z m-1797 -156 c95 -54
178 -102 184 -108 10 -9 4 -18 -23 -40 -35 -28 -37 -28 -68 -13 -33 15 -33 15
-99 -36 -63 -50 -65 -53 -60 -88 4 -31 1 -39 -27 -62 -17 -15 -35 -27 -39 -27
-4 0 -34 93 -66 206 l-58 207 34 28 c19 16 38 29 42 29 5 0 86 -43 180 -96z
m3674 -86 c18 -18 33 -36 33 -42 0 -15 -144 -396 -150 -396 -3 0 -20 14 -38
31 -31 28 -33 32 -23 61 11 30 9 35 -26 71 -67 69 -89 81 -124 66 -29 -11 -33
-10 -65 23 l-35 35 193 90 c106 50 195 92 198 92 2 1 19 -13 37 -31z m-4127
-283 c59 -58 112 -105 115 -105 4 0 37 32 73 71 l65 70 31 -30 30 -31 -94 -97
c-52 -54 -100 -98 -107 -98 -7 0 -76 60 -153 134 l-141 134 27 28 c15 16 32
29 36 29 5 0 58 -47 118 -105z m4378 25 c12 -16 22 -33 22 -37 0 -4 -30 -30
-67 -58 l-66 -50 119 -9 c90 -7 122 -13 132 -25 7 -9 22 -29 34 -45 l21 -28
-59 6 c-32 3 -86 7 -119 8 l-60 3 -35 -130 c-19 -71 -39 -129 -43 -128 -5 1
-21 18 -37 38 l-28 35 24 88 c13 48 26 93 29 100 3 8 -7 12 -34 12 -28 0 -49
-8 -76 -30 -44 -35 -51 -34 -79 3 -20 27 -20 27 -1 46 27 27 289 231 296 231
3 0 15 -13 27 -30z m-4490 -247 c56 -88 102 -164 102 -169 0 -5 -13 -25 -28
-44 l-28 -33 -204 47 c-112 25 -206 48 -208 51 -3 3 7 22 21 44 l26 39 143
-33 c78 -19 144 -33 145 -31 1 1 -34 57 -77 125 l-79 123 27 40 c32 49 20 61
160 -159z m4839 -265 l20 -43 -110 -135 c-60 -74 -122 -150 -137 -168 l-27
-33 -25 43 -24 44 20 28 21 27 -40 75 c-39 72 -41 74 -77 74 -34 0 -40 4 -58
41 -12 23 -20 42 -18 43 5 4 349 43 394 45 38 1 41 -1 61 -41z m-5039 -59 c94
-7 172 -16 172 -21 0 -5 -9 -27 -20 -49 -19 -37 -23 -39 -53 -34 -32 6 -33 6
-72 -74 l-39 -81 23 -24 22 -24 -21 -42 c-11 -23 -25 -40 -29 -38 -5 2 -70 74
-145 160 l-136 157 22 46 c22 46 23 46 63 41 22 -3 118 -11 213 -17z m5178
-231 c15 -40 40 -107 56 -148 35 -92 35 -98 1 -111 -38 -14 -46 -8 -67 50 -10
28 -19 51 -21 51 -2 0 -61 -22 -132 -49 -182 -69 -169 -67 -182 -30 -6 18 -11
37 -11 43 0 7 65 36 145 65 80 30 145 58 145 62 0 5 -9 32 -19 60 l-20 51 32
13 c18 8 35 14 39 15 3 0 19 -33 34 -72z m-5350 -118 c99 -49 126 -154 79
-309 -17 -54 -33 -91 -41 -91 -12 0 -365 110 -372 116 -5 4 47 163 63 194 15
28 69 81 100 98 33 19 124 14 171 -8z m5474 -261 c6 -23 10 -42 8 -43 -14 -11
-371 -97 -383 -93 -14 6 -17 16 -19 64 -1 13 35 26 174 63 96 26 183 48 192
49 12 1 21 -11 28 -40z m-5572 -889 l52 0 0 -52 c0 -47 4 -56 37 -90 l37 -38
-37 -38 c-33 -34 -37 -43 -37 -90 l0 -52 -52 0 c-46 0 -56 -4 -88 -35 l-36
-35 -34 35 c-30 31 -39 35 -87 35 l-53 0 0 50 c0 43 -5 55 -36 90 l-36 40 36
40 c31 35 36 47 36 90 l0 50 53 0 c48 0 57 4 87 35 l34 35 36 -35 c32 -31 42
-35 88 -35z m5590 0 l52 0 0 -52 c0 -47 4 -56 37 -90 l36 -37 -36 -41 c-32
-35 -37 -47 -37 -90 l0 -50 -52 0 c-46 0 -56 -4 -88 -35 l-36 -35 -34 35 c-30
31 -39 35 -87 35 l-53 0 0 52 c0 47 -4 56 -37 90 l-37 38 37 38 c33 34 37 43
37 90 l0 52 53 0 c48 0 57 4 87 35 l34 35 36 -35 c32 -31 42 -35 88 -35z
m-5248 -1025 c0 -5 -14 -39 -30 -74 -17 -35 -28 -67 -24 -70 3 -3 38 -10 77
-16 69 -10 72 -11 94 -50 13 -22 23 -43 23 -46 0 -3 -55 2 -122 11 l-121 17
-51 -109 c-28 -59 -54 -108 -58 -108 -4 0 -17 19 -29 41 l-21 42 32 69 c18 38
30 71 28 73 -2 3 -37 9 -78 15 -41 6 -75 11 -76 13 -12 15 -42 87 -36 87 5 0
59 -7 122 -15 62 -8 114 -14 115 -12 1 1 25 51 54 112 l52 109 24 -39 c13 -22
25 -44 25 -50z m4874 -32 l174 -87 -19 -38 c-11 -21 -21 -38 -23 -38 -7 0
-356 172 -356 176 0 12 35 74 42 74 4 0 86 -39 182 -87z m-192 -65 c17 -12 16
-16 -12 -58 -16 -25 -30 -49 -30 -55 0 -5 59 -46 130 -89 72 -44 130 -83 130
-89 0 -14 -33 -67 -42 -67 -5 0 -63 34 -129 76 -67 41 -127 78 -133 80 -7 3
-27 -18 -44 -46 l-32 -52 -33 21 c-17 12 -31 25 -30 30 1 5 30 53 64 107 34
55 73 116 86 137 25 39 30 39 75 5z m-4412 -328 l32 -40 -108 -185 c-60 -102
-111 -185 -115 -185 -4 0 -19 16 -33 35 -26 33 -26 36 -11 66 l16 31 -52 69
c-29 38 -53 69 -54 69 0 0 -15 -4 -32 -9 -30 -9 -35 -7 -64 30 -17 21 -29 39
-27 40 8 2 413 117 415 118 1 1 16 -17 33 -39z m4300 -95 c102 -31 191 -60
197 -64 16 -8 -44 -84 -61 -78 -50 19 -51 18 -108 -50 -55 -68 -55 -68 -40
-99 14 -30 13 -33 -14 -68 -26 -33 -30 -35 -41 -19 -23 30 -193 352 -193 364
0 17 53 78 65 75 6 -2 93 -29 195 -61z m-4140 -111 c0 -6 -24 -70 -54 -142
l-55 -131 57 25 c31 14 94 41 140 61 l84 36 35 -35 36 -36 -49 -22 c-27 -11
-118 -51 -202 -87 l-153 -67 -35 35 -35 35 82 203 82 202 34 -32 c18 -18 33
-38 33 -45z m3881 -200 c68 -80 125 -149 127 -153 1 -5 -12 -20 -31 -34 l-34
-25 -76 90 c-42 49 -77 86 -77 81 0 -4 11 -57 24 -118 14 -60 23 -111 21 -113
-1 -2 -51 16 -110 38 -59 22 -109 40 -110 38 -2 -2 29 -41 70 -88 l73 -85 -26
-27 c-14 -16 -31 -28 -36 -28 -11 0 -272 299 -265 303 2 1 18 14 34 29 l31 28
114 -44 c63 -24 116 -40 118 -36 1 4 -9 58 -22 121 l-25 114 32 28 c17 15 34
27 37 27 4 0 62 -66 131 -146z m-3443 -162 c39 -29 72 -57 72 -62 0 -5 -10
-20 -22 -34 l-23 -25 -80 59 c-44 33 -85 59 -92 60 -6 0 -21 -13 -32 -29 l-21
-29 80 -58 c44 -31 80 -60 80 -63 0 -3 -10 -19 -23 -34 l-22 -29 -77 56 c-42
31 -79 56 -82 56 -4 0 -78 -94 -92 -118 -5 -8 -73 44 -70 53 2 6 55 81 117
167 l113 157 50 -37 c28 -20 84 -60 124 -90z m2967 -18 c16 -25 16 -34 -4
-178 -12 -84 -21 -158 -21 -164 0 -6 39 13 87 43 l87 54 22 -32 c17 -24 19
-35 11 -43 -7 -6 -70 -46 -141 -89 l-130 -78 -18 23 c-23 28 -22 38 2 206 11
75 18 139 16 142 -3 2 -39 -17 -81 -42 -42 -25 -80 -46 -85 -46 -11 0 -44 60
-37 67 9 8 262 162 268 162 4 1 14 -11 24 -25z m-2764 -104 c42 0 149 -99 149
-137 0 -5 -16 -17 -34 -26 -33 -15 -35 -15 -41 3 -3 10 -22 33 -41 50 -27 23
-44 30 -67 28 -53 -5 -46 -32 27 -107 74 -77 86 -108 62 -157 -43 -91 -153
-94 -255 -8 -28 23 -78 102 -69 108 10 8 69 28 71 25 2 -2 15 -22 29 -45 29
-45 87 -79 118 -69 36 11 22 46 -45 116 -58 60 -65 71 -65 107 0 64 70 130
125 117 11 -3 27 -5 36 -5z m2494 -236 c47 -97 85 -180 85 -185 0 -7 -62 -39
-76 -39 -2 0 -17 28 -33 63 -16 34 -54 115 -84 179 l-56 118 37 20 c20 10 38
19 40 20 2 0 41 -79 87 -176z m-2198 92 c21 -11 21 -12 -52 -191 -40 -98 -78
-181 -84 -183 -17 -6 -71 18 -71 32 0 6 32 91 72 189 78 191 73 185 135 153z
m1999 7 c-50 -163 -65 -216 -61 -222 2 -4 47 -36 99 -72 52 -35 95 -67 96 -70
0 -3 -22 -12 -48 -21 l-49 -15 -63 44 c-71 50 -69 51 -97 -44 -17 -60 -19 -63
-62 -78 -24 -8 -46 -13 -49 -11 -2 2 12 55 31 117 l34 113 -36 26 c-20 14 -65
45 -99 69 -35 24 -60 47 -55 51 4 4 25 13 46 20 36 11 40 10 101 -29 34 -23
65 -41 67 -41 3 0 16 33 28 73 22 70 25 74 65 89 55 21 58 21 52 1z m-1762
-88 c82 -25 150 -45 152 -45 1 0 -3 -15 -8 -34 -9 -28 -33 -49 -139 -122 -71
-48 -129 -90 -129 -94 0 -5 12 -11 28 -15 15 -3 57 -15 94 -26 l66 -20 -10
-37 c-6 -20 -11 -38 -12 -39 -3 -3 -309 87 -314 92 -2 2 -1 17 3 34 6 26 29
46 143 123 l136 93 -94 29 c-52 15 -96 29 -97 30 -5 4 19 76 25 76 4 0 74 -20
156 -45z m285 -71 c2 -2 -7 -71 -19 -154 -13 -87 -19 -155 -14 -159 5 -5 47
-13 93 -20 46 -6 86 -13 89 -16 10 -10 -10 -75 -24 -75 -17 0 -267 40 -270 43
-1 1 12 91 29 200 l31 198 40 -7 c23 -3 43 -8 45 -10z m916 -16 c16 -73 61
-369 56 -372 -3 -2 -23 -7 -43 -11 -44 -8 -37 -26 -73 195 -14 85 -27 165 -30
177 -4 16 0 23 17 26 54 10 68 7 73 -15z m-609 -14 l29 -6 -12 -196 c-6 -108
-12 -198 -12 -199 -1 -2 -22 -3 -47 -3 l-47 0 6 58 c4 31 9 120 13 197 4 77 8
143 11 148 5 8 21 9 59 1z m413 -20 l52 -27 -31 -32 -31 -32 -37 19 c-79 41
-168 -4 -179 -92 -11 -77 44 -140 122 -140 52 0 75 15 75 50 0 29 -2 30 -44
30 -45 0 -56 10 -56 49 0 16 13 19 85 25 47 4 90 4 95 1 6 -3 10 -44 10 -90
l0 -85 -37 -24 c-200 -132 -441 86 -311 280 59 90 184 119 287 68z"/>
<path d="M3008 6374 c-78 -42 -76 -178 2 -219 75 -39 165 7 177 91 13 100 -92
176 -179 128z"/>
<path d="M4652 6051 l-53 -47 46 -22 c25 -12 47 -22 50 -22 6 0 18 105 13 123
-2 11 -17 2 -56 -32z"/>
<path d="M5034 5909 c-17 -24 -24 -43 -18 -47 60 -41 87 -53 110 -50 60 7 57
70 -6 112 -22 14 -44 26 -48 26 -5 0 -22 -18 -38 -41z"/>
<path d="M3335 5814 c-16 -2 -73 -9 -125 -15 -117 -13 -291 -51 -407 -88 -854
-277 -1466 -1000 -1600 -1891 -23 -159 -24 -483 0 -640 115 -756 575 -1401
1244 -1743 234 -119 460 -192 733 -234 172 -26 501 -24 675 6 394 66 729 209
1045 445 109 81 331 297 412 402 397 505 573 1154 482 1774 -98 672 -495 1277
-1074 1640 -116 73 -343 181 -470 224 -132 44 -285 81 -420 101 -101 15 -433
28 -495 19z m1204 -617 c48 -17 76 -58 76 -114 0 -39 -5 -49 -37 -79 -21 -19
-47 -34 -58 -34 -22 0 -112 -64 -108 -77 1 -4 27 -27 58 -50 30 -23 71 -63 91
-90 46 -61 141 -226 210 -365 48 -97 79 -134 79 -94 0 8 12 29 27 46 26 31 29
32 90 27 109 -8 193 -78 193 -160 0 -65 -51 -95 -162 -97 -21 0 -38 -2 -38 -5
0 -3 24 -29 53 -58 64 -62 90 -123 112 -262 10 -62 27 -119 52 -171 36 -77 37
-83 41 -221 3 -89 -2 -219 -13 -345 -19 -226 -20 -235 -10 -400 8 -133 -9
-395 -29 -442 -7 -17 -23 -40 -36 -51 -20 -18 -34 -20 -208 -17 -216 3 -276
15 -316 63 -25 29 -26 36 -26 153 l0 123 -540 5 c-297 3 -783 3 -1080 0 l-540
-5 0 -123 c0 -117 -1 -124 -26 -153 -40 -48 -100 -60 -316 -63 -185 -3 -187
-3 -212 21 -14 13 -30 38 -35 55 -25 78 -40 450 -21 530 6 27 2 107 -11 255
-14 147 -19 267 -17 376 l4 160 37 79 c25 52 42 109 52 171 23 143 48 200 118
268 l59 57 -48 0 c-113 1 -164 31 -164 97 0 82 84 152 193 160 61 5 64 4 90
-27 15 -17 27 -38 27 -46 0 -40 31 -3 79 94 69 139 164 304 210 365 20 27 61
67 91 90 31 23 55 46 55 52 0 16 -83 75 -105 75 -11 0 -37 15 -58 34 -32 30
-37 40 -37 79 0 56 28 97 76 114 49 17 2029 17 2078 0z"/>
<path d="M2449 5142 c-28 -23 -30 -73 -4 -102 18 -19 30 -20 412 -20 l393 0 0
70 0 70 -389 0 c-363 0 -390 -1 -412 -18z"/>
<path d="M3300 5090 l0 -70 200 0 200 0 0 70 0 70 -200 0 -200 0 0 -70z"/>
<path d="M2600 4964 c0 -5 63 -34 75 -34 3 0 5 9 5 20 0 17 -7 20 -40 20 -22
0 -40 -2 -40 -6z"/>
<path d="M2730 4955 c0 -18 42 -18 325 -1 l200 13 -262 2 c-228 1 -263 -1
-263 -14z"/>
<path d="M3945 4954 c283 -17 325 -17 325 1 0 13 -35 15 -262 14 l-263 -2 200
-13z"/>
<path d="M4320 4950 c0 -24 1 -24 45 -6 45 19 44 26 -5 26 -33 0 -40 -3 -40
-20z"/>
<path d="M3350 4908 c-226 -10 -580 -38 -636 -49 -28 -5 -60 -17 -70 -25 -17
-13 -15 -14 26 -10 25 3 70 8 100 11 258 26 1235 23 1501 -5 51 -5 95 -7 98
-5 2 3 -13 12 -34 21 -41 17 -234 36 -545 53 -289 17 -284 17 -440 9z"/>
<path d="M3085 4794 c-347 -13 -552 -36 -589 -65 -53 -42 -255 -435 -263 -513
l-6 -47 414 8 c528 10 1190 10 1718 0 l414 -8 -6 48 c-11 82 -210 471 -263
512 -28 22 -118 36 -314 51 -136 10 -938 20 -1105 14z"/>
<path d="M2019 4311 c-54 -11 -101 -43 -116 -78 -21 -51 -1 -63 109 -63 81 0
92 2 109 23 24 28 23 34 -1 40 -11 3 -20 14 -20 24 0 20 -27 64 -38 62 -4 -1
-23 -4 -43 -8z"/>
<path d="M4912 4293 c-5 -15 -13 -36 -16 -45 -3 -10 -12 -18 -21 -18 -20 0
-19 -10 4 -37 17 -21 28 -23 109 -23 110 0 130 12 109 63 -15 37 -72 72 -133
82 -38 6 -42 4 -52 -22z"/>
<path d="M2170 4162 c0 -7 -42 -54 -94 -105 -57 -56 -101 -108 -111 -132 -9
-22 -24 -89 -35 -150 -12 -75 -29 -134 -53 -185 -41 -88 -61 -207 -32 -196 9
3 25 6 35 6 14 0 19 11 25 53 19 156 89 289 170 323 29 12 30 14 33 91 2 43 8
105 15 138 11 54 14 60 37 60 29 0 29 0 11 -118 -6 -43 -11 -96 -11 -118 l0
-39 53 0 c90 0 269 -51 337 -96 19 -13 44 -37 55 -54 17 -26 25 -30 55 -28 28
2 36 8 38 26 2 12 13 27 24 33 12 7 108 15 217 20 210 9 1228 5 1274 -5 15 -3
39 -8 53 -11 17 -4 29 -16 36 -35 8 -25 16 -30 41 -30 24 0 37 7 52 30 11 17
36 41 55 54 68 45 247 96 339 96 l54 0 -7 86 c-3 47 -11 106 -17 131 -10 49
-2 66 31 60 18 -3 37 -88 43 -200 4 -74 6 -81 28 -89 82 -30 154 -166 174
-325 6 -42 11 -53 25 -53 10 0 26 -3 35 -6 29 -11 9 108 -32 196 -24 52 -41
110 -54 187 -10 62 -28 132 -39 157 -13 26 -57 78 -108 127 -48 46 -90 90 -94
99 -6 13 -7 12 -7 -2 -1 -10 -12 -25 -25 -33 -21 -14 -68 -15 -437 -5 -524 13
-1199 13 -1718 0 -222 -6 -412 -8 -422 -5 -11 4 -26 18 -34 33 -8 15 -14 21
-15 14z m733 -93 l107 -13 0 -38 c0 -47 7 -51 157 -74 149 -22 517 -22 666 0
150 23 157 27 157 74 l0 38 111 12 c62 7 132 16 156 19 l45 6 -26 -51 c-14
-28 -26 -53 -26 -56 0 -2 23 -18 50 -36 28 -18 50 -33 50 -35 0 -1 -53 -13
-117 -25 -90 -17 -123 -28 -140 -45 -60 -62 -632 -92 -978 -51 -162 20 -188
26 -214 55 -11 13 -52 26 -133 41 -65 13 -118 24 -118 25 0 2 23 17 50 35 28
18 50 34 50 36 0 3 -12 28 -26 56 l-26 51 49 -6 c26 -4 96 -12 156 -18z"/>
<path d="M2812 3995 c11 -23 10 -29 -5 -40 -16 -11 -8 -15 60 -27 66 -12 78
-17 81 -35 3 -18 14 -22 95 -32 174 -22 302 -30 457 -30 155 0 283 8 457 30
81 10 92 14 95 32 3 18 15 23 81 35 68 12 76 16 60 27 -15 11 -16 17 -5 40
l13 28 -53 -6 c-29 -4 -63 -7 -75 -7 -16 0 -23 -8 -28 -31 -18 -79 -151 -104
-555 -104 -264 1 -306 3 -395 23 -105 22 -145 48 -145 93 0 13 -7 19 -22 19
-13 0 -47 3 -76 7 l-53 6 13 -28z"/>
<path d="M2113 3730 c-69 -22 -134 -139 -149 -271 l-6 -56 38 -6 c22 -4 133
-7 248 -7 l209 0 -26 26 c-35 35 -44 86 -24 130 22 46 58 67 113 66 39 -1 44
1 34 13 -51 61 -347 132 -437 105z"/>
<path d="M4710 3725 c-91 -18 -188 -52 -232 -81 -21 -13 -38 -26 -38 -29 0 -2
20 -4 45 -3 54 1 90 -21 112 -66 20 -44 11 -95 -24 -130 l-26 -26 209 0 c115
0 226 3 248 7 l38 6 -6 56 c-16 137 -80 250 -154 271 -47 13 -90 11 -172 -5z"/>
<path d="M3175 3639 c-464 -17 -365 -24 325 -24 388 0 674 3 635 7 -76 8 -625
29 -690 26 -22 0 -143 -5 -270 -9z"/>
<path d="M2472 3544 c-26 -18 -30 -65 -6 -88 8 -9 28 -16 44 -16 56 0 80 60
40 100 -24 24 -48 25 -78 4z"/>
<path d="M2660 3550 c0 -6 6 -25 13 -43 28 -67 39 -134 27 -158 l-12 -22 -364
7 -364 6 13 -32 c18 -45 64 -73 144 -89 100 -21 2666 -21 2766 0 80 16 126 44
144 89 l13 32 -364 -7 -364 -6 -12 22 c-12 24 -1 91 27 158 18 44 17 53 -10
53 -18 0 -26 -11 -45 -59 -34 -89 -93 -165 -146 -190 -192 -90 -1060 -90
-1252 0 -53 25 -112 101 -146 190 -19 48 -27 59 -45 59 -13 0 -23 -5 -23 -10z"/>
<path d="M2792 3548 c6 -17 628 -24 628 -8 0 6 33 10 80 10 47 0 80 -4 80 -10
0 -16 622 -9 628 8 3 9 -143 12 -708 12 -565 0 -711 -3 -708 -12z"/>
<path d="M4450 3540 c-40 -40 -16 -100 40 -100 16 0 36 7 44 16 24 23 20 70
-6 88 -30 21 -54 20 -78 -4z"/>
<path d="M3463 3485 c-7 -12 -57 -15 -323 -18 l-315 -2 316 -3 c271 -2 318 -4
323 -17 7 -20 62 -20 73 0 7 12 57 15 323 18 l315 2 -316 3 c-271 2 -318 4
-323 17 -7 20 -62 20 -73 0z"/>
<path d="M2620 3459 c0 -9 -11 -27 -24 -40 -30 -29 -25 -39 20 -39 35 0 35 1
29 33 -4 17 -11 39 -16 47 -7 13 -8 13 -9 -1z"/>
<path d="M4361 3434 c-15 -54 -15 -54 23 -54 38 0 55 14 32 27 -8 4 -21 21
-29 37 l-15 28 -11 -38z"/>
<path d="M2894 3395 c45 -33 144 -40 606 -40 461 0 561 7 606 40 14 10 -36 11
-257 7 -151 -2 -275 -9 -277 -13 -5 -12 -139 -12 -144 0 -1 4 -126 11 -277 13
-224 5 -272 3 -257 -7z"/>
<path d="M1850 3327 c-14 -10 -15 -31 -8 -147 10 -177 35 -416 48 -460 19 -68
66 -127 122 -156 l53 -27 1435 0 1435 0 50 24 c55 27 106 92 125 157 13 46 38
283 48 462 8 146 5 159 -44 160 -17 0 -23 -8 -29 -37 -10 -53 -67 -105 -141
-127 -53 -17 -127 -19 -751 -27 -381 -5 -1005 -5 -1385 0 -625 8 -699 10 -752
27 -74 22 -131 74 -141 127 -6 29 -12 37 -29 37 -11 0 -28 -6 -36 -13z m544
-479 c23 -20 26 -33 32 -115 l7 -93 -141 0 c-180 0 -186 4 -161 119 8 37 20
58 45 81 32 28 40 30 114 30 68 0 82 -3 104 -22z m2072 -13 c-4 -16 -16 -39
-28 -52 l-21 -23 26 0 27 0 -24 -48 c-14 -28 -36 -53 -51 -60 -38 -17 -1752
-17 -1790 0 -15 7 -37 32 -51 60 l-24 48 27 0 26 0 -21 23 c-12 13 -24 36 -28
52 l-5 30 971 0 972 0 -6 -30z m348 14 c35 -28 53 -65 62 -126 10 -79 1 -83
-168 -83 l-141 0 7 93 c6 82 9 95 32 115 21 19 36 22 103 22 64 0 83 -4 105
-21z"/>
<path d="M2206 2792 c-9 -11 -20 -36 -23 -56 l-6 -36 65 0 c36 0 80 -3 97 -6
l32 -7 -3 59 -3 59 -71 3 c-59 2 -73 0 -88 -16z"/>
<path d="M2773 2803 c82 -2 212 -2 290 0 78 1 12 3 -148 3 -159 0 -223 -2
-142 -3z"/>
<path d="M3943 2803 c82 -2 212 -2 290 0 78 1 12 3 -148 3 -159 0 -223 -2
-142 -3z"/>
<path d="M2635 2700 c4 -7 303 -10 865 -10 562 0 861 3 865 10 4 7 -287 10
-865 10 -578 0 -869 -3 -865 -10z"/>
<path d="M4637 2803 c-4 -3 -7 -31 -7 -61 l0 -54 31 6 c17 3 61 6 97 6 l65 0
-6 36 c-10 60 -30 74 -107 74 -37 0 -70 -3 -73 -7z"/>
<path d="M1864 2460 c6 -183 16 -247 38 -262 7 -5 92 -7 195 -5 151 4 189 8
220 23 l38 19 3 123 3 122 -146 0 c-192 0 -254 22 -329 118 l-28 37 6 -175z"/>
<path d="M5112 2596 c-27 -40 -85 -82 -139 -102 -25 -9 -88 -13 -186 -14
l-148 0 3 -122 3 -123 38 -19 c31 -15 69 -19 220 -23 103 -2 188 0 195 5 7 5
18 27 23 48 9 40 25 384 18 384 -2 0 -14 -15 -27 -34z"/>
<path d="M1730 5738 c0 -7 8 -38 18 -69 l17 -57 42 33 c47 36 48 34 -29 79
-32 18 -48 22 -48 14z"/>
<path d="M5381 5569 l-64 -29 39 -34 c21 -19 42 -31 46 -28 8 9 49 115 45 119
-2 1 -32 -11 -66 -28z"/>
<path d="M5960 4863 c-19 -2 -45 -6 -58 -8 l-22 -5 21 -43 c29 -56 26 -55 55
-22 51 62 66 85 52 83 -7 0 -29 -3 -48 -5z"/>
<path d="M940 4780 c1 -8 90 -103 94 -99 9 10 47 91 44 94 -6 5 -138 11 -138
5z"/>
<path d="M769 4435 c-27 -15 -55 -63 -65 -112 l-6 -29 106 -33 c58 -18 110
-30 115 -27 4 3 14 26 21 51 18 63 1 119 -43 145 -37 23 -91 25 -128 5z"/>
<path d="M685 3310 c-10 -11 -31 -20 -47 -20 -24 0 -28 -4 -28 -27 0 -15 -10
-37 -22 -50 l-21 -23 21 -23 c12 -13 22 -35 22 -50 0 -23 4 -27 28 -27 16 0
37 -9 47 -20 l18 -20 22 20 c12 11 33 20 48 20 23 0 27 4 27 27 0 15 10 37 22
50 l21 23 -21 23 c-12 13 -22 35 -22 50 0 23 -4 27 -27 27 -15 0 -36 9 -48 20
l-22 20 -18 -20z"/>
<path d="M6275 3310 c-10 -11 -31 -20 -47 -20 -24 0 -28 -4 -28 -27 0 -15 -10
-37 -22 -50 l-21 -23 21 -23 c12 -13 22 -35 22 -50 0 -23 4 -27 28 -27 16 0
37 -9 47 -20 l18 -20 22 20 c12 11 33 20 48 20 23 0 27 4 27 27 0 15 10 37 22
50 l21 23 -21 23 c-12 13 -22 35 -22 50 0 23 -4 27 -27 27 -15 0 -36 9 -48 20
l-22 20 -18 -20z"/>
<path d="M1267 1821 c-32 -9 -58 -21 -58 -26 0 -18 53 -77 61 -68 16 16 69
113 62 112 -4 0 -33 -8 -65 -18z"/>
<path d="M5637 1704 l36 -67 33 39 c18 22 33 42 34 45 0 3 -26 13 -57 23 -32
10 -63 21 -70 23 -6 3 5 -26 24 -63z"/>
</g>
</svg>
