<svg width="20" height="20" viewBox="0 0 20 20" fill="none" xmlns="http://www.w3.org/2000/svg">
<g clip-path="url(#clip0_1207:10750)">
<path d="M2.1152 9.07499C2.32225 6.77249 4.6415 5.28058 6.42589 5.11474C8.42282 4.92833 9.9652 6.33379 10.6596 8.077L18.2875 7.80669C18.5975 7.79596 19.8829 8.70237 20.0973 8.92137L19.963 9.81081C19.963 9.81081 19.3744 10.9738 18.6918 11.0756C18.0092 11.1774 17.122 10.9936 16.9096 10.7144C16.7878 10.554 16.6244 10.4575 16.4442 10.4639C16.2198 10.4715 16.0252 10.6384 15.9096 10.8855C15.8209 11.0752 15.6277 11.197 15.4193 11.2042L15.3459 11.207C15.0573 11.2242 14.8741 11.0831 14.7629 10.9206C14.5901 10.6687 14.3357 10.5772 14.0618 10.5481C13.8241 10.5224 13.5768 10.6668 13.4088 10.8383C13.1065 11.1477 12.8467 11.2871 12.4183 11.3027L11.3035 11.3441C10.6479 13.1967 8.87048 14.5445 6.7817 14.5317C4.10219 14.5149 1.87464 11.7541 2.1152 9.07499V9.07499ZM5.88224 11.1617C6.58185 11.1364 7.1395 10.5489 7.12834 9.84893C7.11718 9.14894 6.53968 8.60076 5.84007 8.62606C5.14045 8.65136 4.5828 9.23883 4.59396 9.93881C4.60512 10.6388 5.18263 11.187 5.88224 11.1617Z" fill="white"/>
<path d="M1.94875 10.095C1.86731 7.49778 3.90688 5.3491 6.50482 5.29522C8.49343 5.25398 10.23 6.45192 10.9734 8.18046L17.5951 8.02217C17.7494 8.0188 17.9032 8.04723 18.0467 8.10571C18.1903 8.16418 18.3206 8.25143 18.4295 8.36204L19.4501 9.40541C19.3765 9.70298 19.7172 10.0382 19.7172 10.0382L18.9485 10.9851C18.7417 11.2173 18.4472 11.3527 18.1365 11.3591L17.5882 11.3705C17.246 11.3776 16.9028 11.2398 16.6993 10.9636C16.5734 10.7916 16.4024 10.6869 16.2156 10.6907C15.9956 10.6953 15.8074 10.8503 15.6925 11.085C15.5973 11.2808 15.4111 11.4157 15.192 11.4211L15.1169 11.4226C14.8256 11.4357 14.6393 11.2911 14.525 11.1266C14.3466 10.871 14.0895 10.7759 13.8141 10.7414C13.5738 10.7115 13.3267 10.8546 13.1608 11.0239C12.8612 11.3306 12.6008 11.4678 12.1696 11.4768L11.1282 11.501C10.5321 13.328 8.83817 14.66 6.79893 14.7023C4.20178 14.7535 2.03019 12.6922 1.94875 10.095V10.095ZM5.63949 11.2952C6.34484 11.2806 6.8987 10.6971 6.87575 9.99281C6.85364 9.28765 6.26392 8.72788 5.55947 8.74336C4.85411 8.75799 4.30025 9.34148 4.32321 10.0457C4.34442 10.7501 4.93413 11.3098 5.63949 11.2952Z" fill="black"/>
</g>
<defs>
<clipPath id="clip0_1207:10750">
<rect width="20" height="20" fill="white"/>
</clipPath>
</defs>
</svg>
