<?xml version="1.0" ?>
<svg version="1.1" xmlns="http://www.w3.org/2000/svg" width="20" height="20" viewBox="0 0 20 20">

<defs>
<style>.cls-1,.cls-2{fill:none;}.cls-2{stroke:#000;stroke-linecap:round;stroke-linejoin:round;}</style>
</defs>

<g data-name="Layer 2" id="Layer_2">
<g id="Workspace">
<rect class="cls-1" height="24" width="24" fill="#00937c"/>
<rect class="cls-2" height="4" rx="2" width="10" x="5" y="14" fill="#00937c"/>
<line class="cls-2" x1="9" x2="7" y1="16" y2="16" fill="#00937c"/>
<line class="cls-2" x1="13" x2="13" y1="16" y2="16" fill="#00937c"/>
<rect class="cls-2" height="4" rx="2" width="10" x="9" y="6" fill="#00937c"/>
<line class="cls-2" x1="13" x2="11" y1="8" y2="8" fill="#00937c"/>
<line class="cls-2" x1="17" x2="17" y1="8" y2="8" fill="#00937c"/>
<path class="cls-2" d="M7,8A1,1,0,0,0,6,9v3" fill="#00937c"/>
<polyline class="cls-2" points="5 11 6 12 7 11" />
<path class="cls-2" d="M17,16a1,1,0,0,0,1-1V12" fill="#00937c"/>
<polyline class="cls-2" points="19 13 18 12 17 13" />
</g>
</g>
</svg>