<svg width="20" height="20" viewBox="0 0 20 20" fill="none" xmlns="http://www.w3.org/2000/svg">
<path d="M11.1168 6.8085C10.3418 6.8085 9.7085 6.16683 9.7085 5.39183C9.7085 5.01832 9.85687 4.6601 10.121 4.39599C10.3851 4.13187 10.7433 3.9835 11.1168 3.9835C11.9002 3.9835 12.5335 4.61683 12.5335 5.39183C12.5335 6.16683 11.9002 6.8085 11.1168 6.8085ZM8.69084 16.1331C8.63111 16.3976 8.37147 16.5663 8.10553 16.5134L4.349 15.7659C3.95855 15.6882 3.70516 15.3085 3.78324 14.9181V14.9181C3.86151 14.5267 4.24311 14.2736 4.63413 14.3537L6.88987 14.8157C7.16187 14.8714 7.42718 14.6949 7.48079 14.4224L8.5085 9.20016L7.24183 9.70016V11.3793C7.24183 11.7682 6.92656 12.0835 6.53766 12.0835V12.0835C6.14876 12.0835 5.8335 11.7682 5.8335 11.3793V9.44506C5.8335 9.04393 6.07319 8.68163 6.44236 8.52473L9.50016 7.22516L10.0585 7.1585C10.5585 7.1585 10.9752 7.44183 11.2502 7.86683L11.9668 8.99183C12.4323 9.82005 13.2744 10.429 14.3039 10.6201C14.684 10.6907 15.0002 10.9969 15.0002 11.3835V11.3835C15.0002 11.7701 14.6853 12.0883 14.3022 12.0365C13.0301 11.8642 11.8938 11.2306 11.1168 10.3335L10.7002 12.4502L12.0204 13.7108C12.1193 13.8051 12.1752 13.9358 12.1752 14.0724V18.4627C12.1752 18.8516 11.8599 19.1668 11.471 19.1668V19.1668C11.0821 19.1668 10.7668 18.8516 10.7668 18.4627V15.1316C10.7668 14.9945 10.7105 14.8634 10.6111 14.769L9.2835 13.5085L8.69084 16.1331ZM17.5002 19.1668H15.8335V2.50016H5.00016V13.4252L3.3335 13.0752V1.8335C3.3335 1.28121 3.78121 0.833496 4.3335 0.833496H16.5002C17.0524 0.833496 17.5002 1.28121 17.5002 1.8335V19.1668ZM5.00016 19.1668H3.3335V16.4835L5.00016 16.8335V19.1668Z" fill="black"/>
</svg>
